<svg width="16" height="16" viewBox="0 0 16 16" fill="none" xmlns="http://www.w3.org/2000/svg">
  <path
    d="M4.23438 8.35938V3.76172C4.23438 3.18522 4.38118 2.74837 4.6748 2.45117C4.96842 2.15039 5.40348 2 5.97998 2H8.56885C8.79443 2 8.99137 2.01611 9.15967 2.04834C9.32796 2.07699 9.48372 2.13249 9.62695 2.21484C9.77018 2.29362 9.91699 2.40999 10.0674 2.56396L12.8818 5.42676C13.0394 5.58431 13.1576 5.73649 13.2363 5.8833C13.3187 6.02653 13.3742 6.18587 13.4028 6.36133C13.4315 6.5332 13.4458 6.74447 13.4458 6.99512V11.8667C13.4458 12.4432 13.299 12.88 13.0054 13.1772C12.7118 13.478 12.2767 13.6284 11.7002 13.6284H7.79004C7.8903 13.4673 7.97266 13.2972 8.03711 13.1182C8.10514 12.9427 8.15527 12.7601 8.1875 12.5703H11.6143C11.8757 12.5703 12.0708 12.5041 12.1997 12.3716C12.3286 12.2391 12.3931 12.0493 12.3931 11.8022V7.14014H9.49805C9.11491 7.14014 8.82845 7.04525 8.63867 6.85547C8.45247 6.66569 8.35938 6.37923 8.35938 5.99609V3.05273H6.07129C5.8099 3.05273 5.61475 3.12077 5.48584 3.25684C5.35693 3.3929 5.29248 3.58447 5.29248 3.83154V8.35938C5.20296 8.34505 5.11344 8.33431 5.02393 8.32715C4.93441 8.31641 4.84489 8.31104 4.75537 8.31104C4.66585 8.31104 4.57812 8.31641 4.49219 8.32715C4.40625 8.33431 4.32031 8.34505 4.23438 8.35938ZM9.28857 5.89404C9.28857 6.00505 9.31185 6.08561 9.3584 6.13574C9.40853 6.18587 9.4891 6.21094 9.6001 6.21094H12.248L9.28857 3.19775V5.89404ZM4.76611 14.6113C4.38656 14.6113 4.03027 14.5397 3.69727 14.3965C3.36426 14.2533 3.07064 14.0527 2.81641 13.7949C2.56217 13.5407 2.36344 13.2471 2.22021 12.9141C2.0734 12.5811 2 12.2248 2 11.8452C2 11.4657 2.0734 11.1094 2.22021 10.7764C2.36344 10.4434 2.56217 10.1497 2.81641 9.89551C3.07064 9.6377 3.36426 9.43717 3.69727 9.29395C4.03027 9.15072 4.38656 9.0791 4.76611 9.0791C5.14567 9.0791 5.50195 9.15072 5.83496 9.29395C6.16797 9.43717 6.46159 9.6359 6.71582 9.89014C6.97005 10.1444 7.16878 10.4398 7.31201 10.7764C7.45882 11.1094 7.53223 11.4657 7.53223 11.8452C7.53223 12.2212 7.45882 12.5757 7.31201 12.9087C7.16878 13.2453 6.96826 13.5407 6.71045 13.7949C6.45622 14.0492 6.16081 14.2479 5.82422 14.3911C5.49121 14.5379 5.13851 14.6113 4.76611 14.6113ZM4.76611 13.5962C4.87712 13.5962 4.96484 13.5622 5.0293 13.4941C5.09733 13.4261 5.13135 13.3384 5.13135 13.231V12.2104H6.15186C6.25928 12.2104 6.34701 12.1764 6.41504 12.1084C6.48307 12.0439 6.51709 11.9562 6.51709 11.8452C6.51709 11.7342 6.48307 11.6465 6.41504 11.582C6.34701 11.514 6.25928 11.48 6.15186 11.48H5.13135V10.4595C5.13135 10.3521 5.09733 10.2643 5.0293 10.1963C4.96484 10.1283 4.87712 10.0942 4.76611 10.0942C4.65511 10.0942 4.56559 10.1283 4.49756 10.1963C4.43311 10.2643 4.40088 10.3521 4.40088 10.4595V11.48H3.38037C3.27295 11.48 3.18522 11.514 3.11719 11.582C3.04915 11.6465 3.01514 11.7342 3.01514 11.8452C3.01514 11.9562 3.04915 12.0439 3.11719 12.1084C3.18522 12.1764 3.27295 12.2104 3.38037 12.2104H4.40088V13.231C4.40088 13.3384 4.43311 13.4261 4.49756 13.4941C4.56559 13.5622 4.65511 13.5962 4.76611 13.5962Z"
    fill="currentColor" />
</svg>