<svg width="12" height="12" viewBox="0 0 12 12" fill="none" xmlns="http://www.w3.org/2000/svg">
  <path
    d="M2.25 2.4375C2.25 1.81618 2.75368 1.3125 3.375 1.3125H6.78217C6.88163 1.3125 6.97701 1.35201 7.04733 1.42233L9.64017 4.01517C9.71049 4.08549 9.75 4.18087 9.75 4.28033V9.5625C9.75 10.1838 9.24632 10.6875 8.625 10.6875H3.375C2.75368 10.6875 2.25 10.1838 2.25 9.5625V2.4375Z"
    stroke="currentColor" stroke-width="0.8" />
  <path
    d="M8.46881 7.053C8.18987 6.77864 7.39423 6.85409 6.99641 6.90439C6.60316 6.66432 6.34023 6.3328 6.15503 5.84581C6.2442 5.47771 6.38595 4.91756 6.2785 4.56546C6.18247 3.96644 5.41426 4.02589 5.30451 4.43057C5.20392 4.79867 5.29537 5.31081 5.46456 5.9647C5.23592 6.51114 4.89526 7.24505 4.65519 7.66574C4.19793 7.90123 3.58062 8.26476 3.48916 8.72203C3.41371 9.08327 4.08361 9.98409 5.22907 8.00869C5.74121 7.8395 6.29907 7.63144 6.79292 7.54913C7.22504 7.78234 7.73032 7.93781 8.0687 7.93781C8.65171 7.93781 8.70887 7.29306 8.46881 7.053ZM3.93957 8.83177C4.05617 8.51854 4.49972 8.1573 4.63462 8.03155C4.20021 8.72431 3.93957 8.84777 3.93957 8.83177ZM5.80522 4.47401C5.97441 4.47401 5.95841 5.20792 5.84638 5.40684C5.74578 5.08903 5.74806 4.47401 5.80522 4.47401ZM5.24736 7.59715C5.46913 7.21076 5.6589 6.7512 5.81208 6.34652C6.00185 6.69176 6.2442 6.9684 6.50027 7.15817C6.02471 7.25648 5.61088 7.45768 5.24736 7.59715ZM8.25618 7.48283C8.25618 7.48283 8.14186 7.62001 7.40337 7.3045C8.20588 7.24505 8.33849 7.42796 8.25618 7.48283Z"
    fill="currentColor" />
  <path d="M6.75 1.3125V3.5625C6.75 3.97671 7.08579 4.3125 7.5 4.3125H9.75" stroke="#52525B" stroke-width="0.8" />
</svg>