<svg width="12" height="12" viewBox="0 0 12 12" fill="none" xmlns="http://www.w3.org/2000/svg">
  <path
    d="M10.561 8.36743C10.5779 8.78165 10.4822 9.0973 10.274 9.31441C10.0657 9.53151 9.74912 9.64006 9.32419 9.64006H2.48586C2.13409 9.64006 1.86816 9.53865 1.68805 9.33583C1.50795 9.13301 1.41227 8.83307 1.40101 8.43599L2.9924 6.98768C3.07964 6.90484 3.16688 6.84485 3.25412 6.80771C3.34417 6.76772 3.43844 6.74772 3.53694 6.74772C3.63543 6.74772 3.73252 6.76915 3.8282 6.812C3.92669 6.85199 4.01956 6.91198 4.1068 6.99197L4.88772 7.70755L6.79147 5.97643C6.88997 5.89073 6.99128 5.82646 7.0954 5.78361C7.19952 5.74076 7.30927 5.71934 7.42465 5.71934C7.53722 5.71934 7.64697 5.74219 7.7539 5.78789C7.86366 5.83074 7.96496 5.89645 8.05783 5.985L10.561 8.36743ZM4.27142 6.07927C4.08569 6.07927 3.91544 6.03357 3.76066 5.94215C3.6087 5.85074 3.48628 5.72648 3.39341 5.56936C3.30336 5.41225 3.25834 5.23942 3.25834 5.05088C3.25834 4.8652 3.30336 4.6938 3.39341 4.53669C3.48628 4.37958 3.6087 4.25531 3.76066 4.1639C3.91544 4.06963 4.08569 4.0225 4.27142 4.0225C4.45715 4.0225 4.626 4.06963 4.77797 4.1639C4.92993 4.25531 5.05094 4.37958 5.14099 4.53669C5.23385 4.6938 5.28029 4.8652 5.28029 5.05088C5.28029 5.23942 5.23385 5.41225 5.14099 5.56936C5.05094 5.72648 4.92993 5.85074 4.77797 5.94215C4.626 6.03357 4.45715 6.07927 4.27142 6.07927ZM2.38455 10C1.92866 10 1.58393 9.88288 1.35036 9.64863C1.11679 9.41439 1 9.06874 1 8.61168V3.39261C1 2.93555 1.11679 2.58989 1.35036 2.35565C1.58393 2.11855 1.92866 2 2.38455 2H9.61123C10.0699 2 10.4161 2.11855 10.6496 2.35565C10.8832 2.58989 11 2.93555 11 3.39261V8.61168C11 9.06874 10.8832 9.41439 10.6496 9.64863C10.4161 9.88288 10.0699 10 9.61123 10H2.38455ZM2.4352 9.16015H9.5648C9.75897 9.16015 9.90812 9.10873 10.0122 9.00589C10.1164 8.9002 10.1684 8.74451 10.1684 8.53883V3.46545C10.1684 3.25978 10.1164 3.10552 10.0122 3.00268C9.90812 2.89698 9.75897 2.84413 9.5648 2.84413H2.4352C2.23822 2.84413 2.08766 2.89698 1.98354 3.00268C1.88223 3.10552 1.83157 3.25978 1.83157 3.46545V8.53883C1.83157 8.74451 1.88223 8.9002 1.98354 9.00589C2.08766 9.10873 2.23822 9.16015 2.4352 9.16015Z"
    fill="currentColor" />
</svg>