<svg width="16" height="16" viewBox="0 0 16 16" fill="none" xmlns="http://www.w3.org/2000/svg">
  <path
    d="M11.9453 1.89891C12.2216 1.42086 12.8333 1.2576 13.3115 1.53368L14.1777 2.03368C14.6555 2.30996 14.8189 2.92083 14.543 3.39891L12.4502 7.02391L12.7236 7.18211C13.68 7.73446 14.0073 8.95803 13.4551 9.91454L12.7773 11.0874C12.4387 12.0886 11.8077 12.9525 11.0518 13.5786C10.2446 14.2469 9.26104 14.6723 8.29883 14.6723C7.63273 14.6723 6.9686 14.4258 6.3584 14.0708C5.74423 13.7134 5.1514 13.2272 4.61914 12.7016C3.56179 11.6575 2.68236 10.3973 2.30957 9.53856L2 8.82762L2.77637 8.84032C3.20922 8.8473 3.78694 8.71827 4.38672 8.4575C4.8012 8.27725 5.20844 8.03979 5.56934 7.76219L6.60938 5.96141C7.1617 5.00495 8.38527 4.67771 9.3418 5.22997L9.85156 5.52391L11.9453 1.89891ZM6.47656 8.31004C5.97193 8.75468 5.37909 9.11659 4.78613 9.3745C4.37795 9.55199 3.95629 9.68438 3.55273 9.76219C3.75627 10.1024 4.01934 10.4834 4.3252 10.8716C5.15806 10.6696 5.87197 10.2675 6.48633 9.63231L7.20605 10.3266C6.58002 10.974 5.85813 11.4277 5.04297 11.7036C5.13409 11.8001 5.22727 11.8959 5.32227 11.9897C5.64306 12.3065 5.97871 12.5984 6.31738 12.8472C6.57806 12.7336 6.88004 12.559 7.16602 12.3403C7.52373 12.0667 7.81936 11.7579 7.98047 11.479L8.84668 11.979C8.59636 12.4124 8.19187 12.8149 7.77441 13.1343C7.63018 13.2446 7.47701 13.345 7.32422 13.4399C7.67403 13.5916 8.00135 13.6723 8.29883 13.6723C8.974 13.6723 9.7387 13.3664 10.4131 12.8081C10.903 12.4024 11.3255 11.8771 11.6182 11.2788L6.47656 8.31004ZM8.8418 6.0952C8.36359 5.8191 7.7518 5.9833 7.47559 6.46141L6.9248 7.41454L12.0391 10.3677L12.5898 9.41454C12.8659 8.93635 12.7017 8.32455 12.2236 8.04832L8.8418 6.0952ZM3.79688 3.72899C4.6253 3.72899 5.29688 4.40056 5.29688 5.22899C5.29666 6.05724 4.62517 6.72899 3.79688 6.72899C2.96858 6.72899 2.29709 6.05724 2.29688 5.22899C2.29688 4.40056 2.96845 3.72899 3.79688 3.72899ZM10.7314 6.00145L11.5977 6.50145L13.6777 2.89891L12.8115 2.39891L10.7314 6.00145ZM3.79688 4.72899C3.52073 4.72899 3.29688 4.95285 3.29688 5.22899C3.29709 5.50495 3.52086 5.72899 3.79688 5.72899C4.07289 5.72899 4.29666 5.50495 4.29688 5.22899C4.29688 4.95285 4.07302 4.72899 3.79688 4.72899ZM6.86719 2.22899C7.41947 2.22899 7.86719 2.6767 7.86719 3.22899C7.86698 3.78109 7.41934 4.22899 6.86719 4.22899C6.31503 4.22899 5.8674 3.78109 5.86719 3.22899C5.86719 2.6767 6.3149 2.22899 6.86719 2.22899Z"
    fill="currentColor" />
</svg>