<svg class="icon" width="200px" height="200.00px" viewBox="0 0 1024 1024" version="1.1"
  xmlns="http://www.w3.org/2000/svg">
  <path fill="currentColor"
    d="M797.663 143.28L512 428.944 226.336 143.28c-21.091-21.091-55.285-21.091-76.375 0s-21.091 55.284 0 76.375l285.664 285.664-285.664 285.663c-21.09 21.09-21.09 55.284 0 76.375 21.091 21.091 55.285 21.09 76.375 0L512 581.693l285.664 285.664c21.09 21.09 55.284 21.09 76.374 0 21.091-21.091 21.091-55.284 0-76.375L588.375 505.319l285.663-285.664c21.092-21.091 21.092-55.285 0.001-76.375-21.091-21.09-55.284-21.091-76.376 0z" />
</svg>