<svg width="16" height="16" viewBox="0 0 16 16" fill="none" xmlns="http://www.w3.org/2000/svg">
  <path
    d="M3.46484 12.3047C3.37891 12.2227 3.32227 12.125 3.29492 12.0117C3.26758 11.8984 3.26758 11.7852 3.29492 11.6719C3.32617 11.5586 3.38281 11.4629 3.46484 11.3848L7.0625 7.77539L3.46484 4.17188C3.38281 4.09375 3.32812 3.99805 3.30078 3.88477C3.27344 3.77148 3.27344 3.6582 3.30078 3.54492C3.32812 3.43164 3.38281 3.33398 3.46484 3.25195C3.55078 3.16602 3.65039 3.10938 3.76367 3.08203C3.87695 3.05469 3.99023 3.05469 4.10352 3.08203C4.2168 3.10938 4.31445 3.16406 4.39648 3.24609L8 6.84961L11.5977 3.24609C11.6797 3.16016 11.7773 3.10547 11.8906 3.08203C12.0039 3.05469 12.1152 3.05469 12.2246 3.08203C12.3379 3.10938 12.4395 3.16602 12.5293 3.25195C12.6113 3.33398 12.666 3.43164 12.6934 3.54492C12.7246 3.6582 12.7246 3.77148 12.6934 3.88477C12.666 3.99414 12.6113 4.0918 12.5293 4.17773L8.93164 7.77539L12.5293 11.3789C12.6113 11.4648 12.666 11.5645 12.6934 11.6777C12.7207 11.7871 12.7207 11.8984 12.6934 12.0117C12.666 12.125 12.6113 12.2227 12.5293 12.3047C12.4434 12.3906 12.3438 12.4473 12.2305 12.4746C12.1172 12.502 12.0039 12.502 11.8906 12.4746C11.7773 12.4473 11.6797 12.3926 11.5977 12.3105L8 8.70703L4.39648 12.3105C4.31445 12.3926 4.2168 12.4473 4.10352 12.4746C3.99414 12.502 3.88086 12.502 3.76367 12.4746C3.65039 12.4473 3.55078 12.3906 3.46484 12.3047Z"
    fill="currentColor" />
</svg>