<svg width="12" height="13" viewBox="0 0 12 13" fill="none" xmlns="http://www.w3.org/2000/svg">
  <path
    d="M2.16016 12.2363C1.52734 12.2363 1.04688 12.0742 0.71875 11.75C0.394531 11.4297 0.232422 10.957 0.232422 10.332V3.61133C0.232422 2.98242 0.394531 2.50781 0.71875 2.1875C1.04688 1.86719 1.52734 1.70703 2.16016 1.70703H8.68164L7.5332 2.85547H2.23047C1.95703 2.85547 1.74805 2.92773 1.60352 3.07227C1.45898 3.21289 1.38672 3.42578 1.38672 3.71094V10.2324C1.38672 10.5176 1.45898 10.7305 1.60352 10.8711C1.74805 11.0117 1.95703 11.082 2.23047 11.082H8.91602C9.11523 11.082 9.2793 11.0117 9.4082 10.8711C9.54102 10.7305 9.60742 10.5176 9.60742 10.2324V4.98242L10.7617 3.82812V10.332C10.7617 10.957 10.6055 11.4297 10.293 11.75C9.98438 12.0742 9.54883 12.2363 8.98633 12.2363H2.16016ZM4.36914 8.31641C4.30273 8.34375 4.24219 8.33008 4.1875 8.27539C4.13281 8.2168 4.11914 8.1543 4.14648 8.08789L4.67383 6.92773L10.0176 1.58398L10.9141 2.46875L5.56445 7.8125L4.36914 8.31641ZM11.3594 2.0293L10.4629 1.12695L10.873 0.722656C10.9824 0.617188 11.1094 0.558594 11.2539 0.546875C11.4023 0.535156 11.5254 0.578125 11.623 0.675781L11.7754 0.833984C11.8887 0.943359 11.9434 1.07031 11.9395 1.21484C11.9395 1.35938 11.8828 1.49023 11.7695 1.60742L11.3594 2.0293Z"
    fill="currentColor" />
</svg>