<svg width="12" height="14" viewBox="0 0 12 14" fill="none" xmlns="http://www.w3.org/2000/svg">
  <path
    d="M11.2998 0.867188C11.6864 0.867188 12 1.18075 12 1.56738V12.4219C11.9999 12.8822 11.5632 13.2167 11.1143 13.1152C9.46233 12.7411 7.74449 12.5439 5.98242 12.5439C4.2322 12.544 2.5263 12.7383 0.884766 13.1074C0.43604 13.2083 7.90617e-05 12.874 0 12.4141V1.56738C0 1.18075 0.313558 0.867188 0.700195 0.867188H11.2998ZM6.73633 3.35156V3.67676L7.98047 4.11914L8.13477 7.42969L4.72559 3.4873H2.2041V3.83984L3.39453 4.25586L3.49023 9.12402L2.61133 9.55371V9.91016H5.41406V9.59375L4.39453 9.12402L4.1582 5.20605L8.13184 9.96094H8.97754L8.74902 4.11914L9.72363 3.67676V3.35156H6.73633Z"
    fill="currentColor" />
</svg>