<svg width="20" height="20" viewBox="0 0 20 20" fill="none" xmlns="http://www.w3.org/2000/svg">
  <path fill-rule="evenodd" clip-rule="evenodd"
    d="M9.99917 1C5.02941 1 1 5.0294 1 10.0003C1 13.9766 3.57853 17.3497 7.15488 18.5403C7.60518 18.6226 7.76927 18.3447 7.76927 18.106C7.76927 17.8928 7.76153 17.3265 7.75711 16.5756C5.25372 17.1193 4.72553 15.3689 4.72553 15.3689C4.31612 14.3297 3.72605 14.0529 3.72605 14.0529C2.9089 13.4943 3.78793 13.5054 3.78793 13.5054C4.69127 13.5694 5.16643 14.433 5.16643 14.433C5.96921 15.8082 7.27312 15.4109 7.78584 15.1811C7.86761 14.5993 8.09967 14.2026 8.35713 13.9777C6.35873 13.7507 4.25756 12.9783 4.25756 9.52954C4.25756 8.54719 4.6084 7.74385 5.18411 7.11455C5.09129 6.88692 4.78244 5.97197 5.27195 4.73271C5.27195 4.73271 6.02778 4.49071 7.74717 5.65539C8.46487 5.45594 9.23506 5.35593 10.0003 5.35262C10.7644 5.35593 11.5346 5.45594 12.2534 5.65539C13.9717 4.49071 14.7258 4.73271 14.7258 4.73271C15.217 5.97197 14.9082 6.88692 14.8153 7.11455C15.3922 7.74385 15.7408 8.54719 15.7408 9.52954C15.7408 12.9871 13.6363 13.7479 11.6313 13.9706C11.9545 14.2485 12.2423 14.7977 12.2423 15.6375C12.2423 16.8403 12.2313 17.811 12.2313 18.106C12.2313 18.3469 12.3932 18.6271 12.8501 18.5392C16.4237 17.3464 19 13.9755 19 10.0003C19 5.0294 14.97 1 9.99917 1Z"
    fill="currentColor" />
</svg>