<svg class="icon" width="14px" height="14px" viewBox="0 0 1024 1024" version="1.1" xmlns="http://www.w3.org/2000/svg">
  <path fill="currentColor"
    d="M908.4928 41.8816H112.64v915.0464h258.7648v-79.5648H192.4096V121.4464H829.44v318.2592h79.5648z m0 0" />
  <path fill="currentColor"
    d="M271.9744 320.4096h477.3888v-79.5648H271.9744z m0 159.1296H471.04v-79.5648H271.9744z m380.1088 356.864L799.4368 664.576l-60.416-51.8144-91.3408 106.7008-49.2544-49.2544L542.72 726.4256l109.4656 109.9776z m0 0" />
  <path fill="currentColor"
    d="M948.224 718.2336a278.528 278.528 0 1 1-278.4256-278.528 278.4256 278.4256 0 0 1 278.4256 278.528z m-79.5648 0a198.9632 198.9632 0 1 0-198.8608 198.9632 198.8608 198.8608 0 0 0 198.8608-198.9632z m0 0" />
</svg>