<svg class="icon" width="16px" height="16px" viewBox="0 0 1024 1024" version="1.1" xmlns="http://www.w3.org/2000/svg">
  <path fill="currentColor"
    d="M53.333333 149.333333A32 32 0 0 1 85.333333 117.333333h853.333334a32 32 0 0 1 0 64H85.333333a32 32 0 0 1-32-32zM53.333333 490.666667a32 32 0 0 1 32-32h234.666667a32 32 0 0 1 0 64H85.333333a32 32 0 0 1-32-32zM53.333333 832a32 32 0 0 1 32-32h234.666667a32 32 0 0 1 0 64H85.333333a32 32 0 0 1-32-32zM458.666667 544a213.333333 213.333333 0 1 1 426.666666 0 213.333333 213.333333 0 0 1-426.666666 0z m213.333333-149.333333a149.333333 149.333333 0 1 0 0 298.666666 149.333333 149.333333 0 0 0 0-298.666666z" />
  <path fill="currentColor"
    d="M766.805333 659.968a32 32 0 0 1 45.226667 0.170667l149.333333 150.4a32 32 0 1 1-45.397333 45.098666l-149.333333-150.442666a32 32 0 0 1 0.170666-45.226667z" />
</svg>