<svg width="24" height="24" viewBox="0 0 24 24" fill="none" xmlns="http://www.w3.org/2000/svg">
  <rect width="24" height="24" rx="4" fill="#F5F6F7" />
  <rect x="0.5" y="0.5" width="23" height="23" rx="3.5" stroke="black" stroke-opacity="0.12" />
  <path
    d="M6.16211 9.19727C6.09961 9.24805 6.03711 9.26758 5.97461 9.25586C5.91602 9.24414 5.86914 9.21289 5.83398 9.16211C5.80273 9.10742 5.80078 9.04102 5.82812 8.96289L6.01562 8.38281L5.5293 8.01953C5.4707 7.97656 5.4375 7.92383 5.42969 7.86133C5.42578 7.79883 5.44336 7.74609 5.48242 7.70312C5.52148 7.65625 5.57617 7.63281 5.64648 7.63281H6.25586L6.45508 7.00586C6.47461 6.93945 6.51172 6.89648 6.56641 6.87695C6.625 6.85352 6.68164 6.85352 6.73633 6.87695C6.79102 6.90039 6.82812 6.94336 6.84766 7.00586L7.04688 7.63281H7.65039C7.7207 7.63281 7.77539 7.65625 7.81445 7.70312C7.85352 7.74609 7.86914 7.79883 7.86133 7.86133C7.85742 7.92383 7.82617 7.97656 7.76758 8.01953L7.28711 8.38281L7.47461 8.96289C7.50195 9.04102 7.49805 9.10742 7.46289 9.16211C7.43164 9.21289 7.38477 9.24414 7.32227 9.25586C7.25977 9.26758 7.19531 9.24805 7.12891 9.19727L6.6543 8.83984L6.16211 9.19727ZM6.16211 12.7891C6.09961 12.8398 6.03711 12.8594 5.97461 12.8477C5.91602 12.832 5.86914 12.7988 5.83398 12.748C5.80273 12.6973 5.80078 12.6328 5.82812 12.5547L6.01562 11.9746L5.5293 11.6113C5.4707 11.5684 5.4375 11.5176 5.42969 11.459C5.42578 11.3965 5.44336 11.3438 5.48242 11.3008C5.52148 11.2539 5.57617 11.2305 5.64648 11.2305H6.25586L6.45508 10.5977C6.47461 10.5352 6.51172 10.4922 6.56641 10.4688C6.625 10.4453 6.68164 10.4453 6.73633 10.4688C6.79102 10.4883 6.82812 10.5312 6.84766 10.5977L7.04688 11.2305H7.65039C7.7207 11.2305 7.77539 11.2539 7.81445 11.3008C7.85352 11.3438 7.86914 11.3965 7.86133 11.459C7.85742 11.5176 7.82617 11.5684 7.76758 11.6113L7.28711 11.9688L7.47461 12.5547C7.50195 12.6328 7.49805 12.6973 7.46289 12.748C7.43164 12.7988 7.38477 12.832 7.32227 12.8477C7.25977 12.8594 7.19531 12.8398 7.12891 12.7891L6.6543 12.4316L6.16211 12.7891ZM6.16211 16.3926C6.09961 16.4434 6.03711 16.4629 5.97461 16.4512C5.91602 16.4395 5.86914 16.4062 5.83398 16.3516C5.80273 16.3008 5.80078 16.2383 5.82812 16.1641L6.01562 15.5781L5.5293 15.2148C5.4707 15.1719 5.4375 15.1211 5.42969 15.0625C5.42578 15 5.44336 14.9473 5.48242 14.9043C5.52148 14.8574 5.57617 14.834 5.64648 14.834H6.25586L6.45508 14.2012C6.47461 14.1387 6.51172 14.0957 6.56641 14.0723C6.625 14.0488 6.68164 14.0488 6.73633 14.0723C6.79102 14.0957 6.82812 14.1387 6.84766 14.2012L7.04688 14.834H7.65039C7.7207 14.834 7.77539 14.8574 7.81445 14.9043C7.85352 14.9473 7.86914 15 7.86133 15.0625C7.85742 15.1211 7.82617 15.1719 7.76758 15.2148L7.28711 15.5781L7.47461 16.1641C7.50195 16.2383 7.49805 16.3008 7.46289 16.3516C7.43164 16.4062 7.38477 16.4395 7.32227 16.4512C7.25977 16.4629 7.19531 16.4434 7.12891 16.3926L6.6543 16.0352L6.16211 16.3926ZM9.60156 8.73438C9.44531 8.73438 9.3125 8.67969 9.20312 8.57031C9.09766 8.46094 9.04492 8.33008 9.04492 8.17773C9.04492 8.02539 9.09766 7.89453 9.20312 7.78516C9.3125 7.67578 9.44531 7.62109 9.60156 7.62109H17.0137C17.166 7.62109 17.2969 7.67578 17.4062 7.78516C17.5156 7.89062 17.5703 8.02148 17.5703 8.17773C17.5703 8.33008 17.5156 8.46094 17.4062 8.57031C17.2969 8.67969 17.166 8.73438 17.0137 8.73438H9.60156ZM9.60156 12.332C9.44531 12.332 9.3125 12.2773 9.20312 12.168C9.09766 12.0586 9.04492 11.9277 9.04492 11.7754C9.04492 11.6191 9.09766 11.4883 9.20312 11.3828C9.3125 11.2734 9.44531 11.2188 9.60156 11.2188H17.0137C17.166 11.2188 17.2969 11.2734 17.4062 11.3828C17.5156 11.4883 17.5703 11.6191 17.5703 11.7754C17.5703 11.9277 17.5156 12.0586 17.4062 12.168C17.2969 12.2773 17.166 12.332 17.0137 12.332H9.60156ZM9.60156 15.9297C9.44531 15.9297 9.3125 15.875 9.20312 15.7656C9.09766 15.6562 9.04492 15.5254 9.04492 15.373C9.04492 15.2207 9.09766 15.0898 9.20312 14.9805C9.3125 14.8711 9.44531 14.8164 9.60156 14.8164H17.0137C17.166 14.8164 17.2969 14.8711 17.4062 14.9805C17.5156 15.0859 17.5703 15.2168 17.5703 15.373C17.5703 15.5293 17.5156 15.6621 17.4062 15.7715C17.2969 15.877 17.166 15.9297 17.0137 15.9297H9.60156Z"
    fill="#596066" />
</svg>