<svg width="24" height="24" viewBox="0 0 24 24" fill="none" xmlns="http://www.w3.org/2000/svg">
  <rect width="24" height="24" rx="4" fill="#F5F6F7" />
  <rect x="0.5" y="0.5" width="23" height="23" rx="3.5" stroke="black" stroke-opacity="0.12" />
  <path
    d="M13.4966 7.41016L16.1373 10.0508L9.46347 16.7246C9.2039 16.9842 8.78306 16.9842 8.5235 16.7246L6.82278 15.0239C6.56322 14.7644 6.56322 14.3435 6.82278 14.084L13.4966 7.41016Z"
    fill="#596066" />
  <path
    d="M6.25439 15.5967L7.92543 17.2677L6.507 18.6861L5.67155 18.6861L4.83597 18.6861L4.47044 18.3206C4.21088 18.061 4.21088 17.6402 4.47044 17.3806L6.25439 15.5967Z"
    fill="#596066" />
  <path
    d="M18.2077 6.29412C18.4372 6.52366 18.4674 6.88542 18.279 7.14979L16.6499 9.43623L14.0636 6.84993L16.3501 5.22085C16.6145 5.03249 16.9762 5.06264 17.2058 5.29218L18.2077 6.29412Z"
    fill="#596066" />
  <path d="M18.4302 18.6543H8.33154L9.66064 17.3252H18.4302V18.6543Z" fill="#596066" />
</svg>