<svg width="24" height="24" viewBox="0 0 24 24" fill="none" xmlns="http://www.w3.org/2000/svg">
  <rect width="24" height="24" rx="4" fill="#F5F6F7" />
  <rect x="0.5" y="0.5" width="23" height="23" rx="3.5" stroke="black" stroke-opacity="0.12" />
  <path
    d="M11 11.5C11.2761 11.5 11.5 11.7239 11.5 12C11.5 12.2761 11.2761 12.5 11 12.5H8C7.72386 12.5 7.5 12.2761 7.5 12C7.5 11.7239 7.72386 11.5 8 11.5H11Z"
    fill="#596066" />
  <path
    d="M16 9C16.2761 9 16.5 9.22386 16.5 9.5C16.5 9.77614 16.2761 10 16 10H8C7.72386 10 7.5 9.77614 7.5 9.5C7.5 9.22386 7.72386 9 8 9H16Z"
    fill="#596066" />
  <path
    d="M17.0596 6.01172C18.2515 6.1326 19.1815 7.13954 19.1816 8.36328V12H17.8818V8.36328C17.8816 7.77608 17.4056 7.2999 16.8184 7.2998H7.36328C6.77614 7.30001 6.3 7.77615 6.2998 8.36328V15.4541C6.29988 16.0413 6.77607 16.5183 7.36328 16.5186H13V17.8184H7.36328L7.12207 17.8057C5.93019 17.6847 5.00007 16.6779 5 15.4541V8.36328C5.00019 7.05819 6.05816 6.00021 7.36328 6H16.8184L17.0596 6.01172Z"
    fill="#596066" />
  <path
    d="M19.4596 17.5397L19.5431 17.6425C19.7095 17.8948 19.6816 18.2374 19.4596 18.4594C19.2376 18.6815 18.8949 18.7093 18.6427 18.543L18.5398 18.4594L15.5401 15.4598C15.2863 15.2059 15.2863 14.7938 15.5401 14.54C15.7939 14.2861 16.2061 14.2861 16.4599 14.54L19.4596 17.5397Z"
    fill="#596066" />
  <path
    d="M14.3496 18V14.5C14.3496 13.8649 14.8649 13.3496 15.5 13.3496H19L19.1309 13.3633C19.4271 13.4238 19.6504 13.6858 19.6504 14C19.6504 14.3142 19.4271 14.5762 19.1309 14.6367L19 14.6504H15.6504V18C15.6504 18.359 15.359 18.6504 15 18.6504C14.641 18.6504 14.3496 18.359 14.3496 18Z"
    fill="#596066" />
</svg>