<svg class="icon" width="16px" height="16px" viewBox="0 0 1024 1024" version="1.1" xmlns="http://www.w3.org/2000/svg">
  <path
    d="M512.08704 153.856l-93.9648 249.33888a25.6 25.6 0 0 1-14.9248 14.92736L153.856 512.08704l249.33888 93.9648a25.6 25.6 0 0 1 14.92736 14.92736l93.9648 249.33888 93.9648-249.33888a25.6 25.6 0 0 1 14.92736-14.9248l249.33888-93.96736-249.33888-93.9648a25.6 25.6 0 0 1-14.9248-14.9248L512.08448 153.856z m-137.78944 220.4416l113.83552-302.06464c8.32512-22.09536 39.58272-22.09536 47.9104 0l113.83296 302.06464 302.06464 113.83552c22.09792 8.32512 22.09792 39.58272 0 47.9104l-302.06464 113.83296-113.83296 302.06464c-8.32768 22.09792-39.58528 22.09792-47.9104 0L374.2976 649.87648 72.23296 536.04352c-22.09536-8.32768-22.09536-39.58528 0-47.9104L374.2976 374.2976z"
    fill="currentColor" />
</svg>