<svg width="24" height="24" viewBox="0 0 24 24" fill="none" xmlns="http://www.w3.org/2000/svg">
  <rect width="24" height="24" rx="4" fill="#F5F6F7" />
  <rect x="0.5" y="0.5" width="23" height="23" rx="3.5" stroke="black" stroke-opacity="0.12" />
  <path
    d="M9.69531 7.31641C9.51562 7.31641 9.375 7.26367 9.27344 7.1582C9.17188 7.05273 9.12109 6.9043 9.12109 6.71289V6.09766C9.12109 5.90625 9.17188 5.75781 9.27344 5.65234C9.375 5.54688 9.51562 5.49414 9.69531 5.49414H10.1875C10.207 5.1543 10.3418 4.86523 10.5918 4.62695C10.8418 4.38477 11.1426 4.26367 11.4941 4.26367C11.8457 4.26367 12.1465 4.38477 12.3965 4.62695C12.6465 4.86523 12.7812 5.1543 12.8008 5.49414H13.2988C13.4785 5.49414 13.6172 5.54688 13.7148 5.65234C13.8164 5.75781 13.8672 5.90625 13.8672 6.09766V6.71289C13.8672 6.9043 13.8164 7.05273 13.7148 7.1582C13.6172 7.26367 13.4785 7.31641 13.2988 7.31641H9.69531ZM11.4941 6.0625C11.6387 6.0625 11.7598 6.01172 11.8574 5.91016C11.959 5.80469 12.0098 5.68359 12.0098 5.54688C12.0098 5.40234 11.959 5.2793 11.8574 5.17773C11.7598 5.07617 11.6387 5.02539 11.4941 5.02539C11.3496 5.02539 11.2266 5.07617 11.125 5.17773C11.0273 5.2793 10.9785 5.40234 10.9785 5.54688C10.9785 5.68359 11.0273 5.80469 11.125 5.91016C11.2266 6.01172 11.3496 6.0625 11.4941 6.0625ZM8.38867 18.584C7.76367 18.584 7.28906 18.4199 6.96484 18.0918C6.64062 17.7637 6.47852 17.2852 6.47852 16.6562V7.79102C6.47852 7.16992 6.63477 6.69336 6.94727 6.36133C7.26367 6.02539 7.72461 5.85742 8.33008 5.85742H8.46484C8.45312 5.89258 8.44531 5.93164 8.44141 5.97461C8.4375 6.01367 8.43555 6.05469 8.43555 6.09766V6.64258C8.43555 6.7793 8.44922 6.89258 8.47656 6.98242H8.35938C8.10938 6.98242 7.91992 7.05664 7.79102 7.20508C7.66602 7.35352 7.60352 7.55273 7.60352 7.80273V16.6445C7.60352 16.9062 7.67383 17.1074 7.81445 17.248C7.95898 17.3887 8.16797 17.459 8.44141 17.459H14.5527C14.8262 17.459 15.0332 17.3887 15.1738 17.248C15.3145 17.1074 15.3848 16.9062 15.3848 16.6445V12.8477L16.5098 11.7168V16.6562C16.5098 17.2852 16.3477 17.7637 16.0234 18.0918C15.6992 18.4199 15.2246 18.584 14.5996 18.584H8.38867ZM15.3848 8.71094V7.80273C15.3848 7.55273 15.3203 7.35352 15.1914 7.20508C15.0664 7.05664 14.8809 6.98242 14.6348 6.98242H14.5117C14.543 6.89258 14.5586 6.7793 14.5586 6.64258V6.09766C14.5586 6.05469 14.5547 6.01367 14.5469 5.97461C14.543 5.93164 14.5352 5.89258 14.5234 5.85742H14.6582C15.2285 5.85742 15.6699 5.99805 15.9824 6.2793C16.2949 6.56055 16.4648 6.95508 16.4922 7.46289V7.62695C16.4531 7.6582 16.4141 7.69141 16.375 7.72656C16.3398 7.75781 16.3047 7.79102 16.2695 7.82617L15.3848 8.71094ZM8.59375 10.2109C8.59375 10.0938 8.63281 9.99414 8.71094 9.91211C8.79297 9.83008 8.89258 9.78906 9.00977 9.78906H13.9844C14.082 9.78906 14.1641 9.8125 14.2305 9.85938L13.4688 10.6211H9.00977C8.89258 10.6211 8.79297 10.5801 8.71094 10.498C8.63281 10.416 8.59375 10.3203 8.59375 10.2109ZM8.59375 12.2793C8.59375 12.166 8.63281 12.0703 8.71094 11.9922C8.79297 11.9141 8.89258 11.875 9.00977 11.875H12.2207L11.3945 12.6953H9.00977C8.89258 12.6953 8.79297 12.6543 8.71094 12.5723C8.63281 12.4902 8.59375 12.3926 8.59375 12.2793ZM9.00977 14.8809C8.89258 14.8809 8.79297 14.8398 8.71094 14.7578C8.63281 14.6758 8.59375 14.5801 8.59375 14.4707C8.59375 14.3535 8.63281 14.2559 8.71094 14.1777C8.79297 14.0996 8.89258 14.0605 9.00977 14.0605H9.74219C9.85938 14.0605 9.95703 14.0996 10.0352 14.1777C10.1172 14.2559 10.1582 14.3535 10.1582 14.4707C10.1582 14.5801 10.1172 14.6758 10.0352 14.7578C9.95703 14.8398 9.85938 14.8809 9.74219 14.8809H9.00977ZM17.6816 9.37891L16.7852 8.48242L17.207 8.06641C17.3164 7.95703 17.4434 7.89648 17.5879 7.88477C17.7363 7.87305 17.8594 7.91602 17.957 8.01367L18.1152 8.17188C18.2285 8.28516 18.2832 8.41406 18.2793 8.55859C18.2793 8.70312 18.2207 8.83594 18.1035 8.95703L17.6816 9.37891ZM11.1777 15.1855C11.1113 15.2129 11.0488 15.1973 10.9902 15.1387C10.9355 15.0801 10.9238 15.0176 10.9551 14.9512L11.5059 13.7617L16.334 8.93359L17.2422 9.83008L12.4023 14.6582L11.1777 15.1855Z"
    fill="#596066" />
</svg>