<svg width="24" height="24" viewBox="0 0 24 24" fill="none" xmlns="http://www.w3.org/2000/svg">
  <rect width="24" height="24" rx="4" fill="#F5F6F7" />
  <rect x="0.5" y="0.5" width="23" height="23" rx="3.5" stroke="black" stroke-opacity="0.12" />
  <path
    d="M13.2305 9.66211H12.2832V8.96387C12.2832 8.55697 12.1725 8.24772 11.9512 8.03613C11.7298 7.82454 11.4271 7.71875 11.043 7.71875H6.36035C5.97624 7.71875 5.6735 7.82454 5.45215 8.03613C5.23079 8.24772 5.12012 8.55697 5.12012 8.96387V11.7275C5.12012 12.1344 5.23079 12.4437 5.45215 12.6553C5.6735 12.8669 5.97624 12.9727 6.36035 12.9727H6.8877C7.00814 12.9727 7.10742 13.0085 7.18555 13.0801C7.26367 13.1517 7.30273 13.2607 7.30273 13.4072V14.6426L8.84082 13.2461C8.94824 13.1517 9.05078 13.0833 9.14844 13.041C9.24935 12.9954 9.37142 12.9727 9.51465 12.9727H11.0479V13.8662H9.49512L7.86914 15.2627C7.70964 15.3994 7.56803 15.5052 7.44434 15.5801C7.32064 15.6549 7.19368 15.6924 7.06348 15.6924C6.86816 15.6924 6.7168 15.6289 6.60938 15.502C6.50195 15.3717 6.44824 15.2008 6.44824 14.9893V13.8662H6.22852C5.8151 13.8662 5.45378 13.7865 5.14453 13.627C4.83854 13.4642 4.59928 13.2331 4.42676 12.9336C4.25749 12.6341 4.17285 12.2712 4.17285 11.8447V8.87598C4.17285 8.44629 4.25911 8.07845 4.43164 7.77246C4.60742 7.46322 4.85156 7.22721 5.16406 7.06445C5.47656 6.90169 5.84277 6.82031 6.2627 6.82031H11.1406C11.5736 6.82031 11.9463 6.90169 12.2588 7.06445C12.5713 7.22721 12.8105 7.46322 12.9766 7.77246C13.1458 8.07845 13.2305 8.44629 13.2305 8.87598V9.66211ZM6.95605 11.7227L8.05957 8.70996C8.16699 8.40397 8.36882 8.25098 8.66504 8.25098C8.97103 8.25098 9.17773 8.40397 9.28516 8.70996L10.3887 11.7227C10.4212 11.8138 10.4277 11.9049 10.4082 11.9961C10.3919 12.0872 10.3496 12.1621 10.2812 12.2207C10.2161 12.276 10.125 12.3037 10.0078 12.3037C9.80273 12.3037 9.66439 12.1849 9.59277 11.9473L9.34375 11.2344H8.00098L7.75195 11.9473C7.68359 12.1849 7.54525 12.3037 7.33691 12.3037C7.22298 12.3037 7.13184 12.276 7.06348 12.2207C6.99837 12.1621 6.95605 12.0872 6.93652 11.9961C6.91699 11.9049 6.9235 11.8138 6.95605 11.7227ZM8.20117 10.5752H9.13867L8.66504 9.12012H8.67969L8.20117 10.5752ZM16.9561 18.1289C16.8226 18.1289 16.694 18.0915 16.5703 18.0166C16.4499 17.945 16.3099 17.8408 16.1504 17.7041L14.5195 16.3076H12.8789C12.4427 16.3076 12.0684 16.2279 11.7559 16.0684C11.4434 15.9089 11.2025 15.6777 11.0332 15.375C10.8672 15.0723 10.7842 14.7093 10.7842 14.2861V11.3125C10.7842 10.8828 10.8672 10.515 11.0332 10.209C11.2025 9.90299 11.4434 9.66862 11.7559 9.50586C12.0684 9.33984 12.4427 9.25684 12.8789 9.25684H17.7324C18.1523 9.25684 18.5186 9.33984 18.8311 9.50586C19.1468 9.66862 19.391 9.90299 19.5635 10.209C19.736 10.515 19.8223 10.8828 19.8223 11.3125V14.2861C19.8223 14.7093 19.736 15.0723 19.5635 15.375C19.3942 15.6745 19.1549 15.904 18.8457 16.0635C18.5397 16.2262 18.18 16.3076 17.7666 16.3076H17.5664V17.4307C17.5664 17.6423 17.5127 17.8115 17.4053 17.9385C17.2979 18.0654 17.1481 18.1289 16.9561 18.1289ZM13.7236 11.6641C13.6162 11.6641 13.5267 11.6982 13.4551 11.7666C13.3867 11.8317 13.3525 11.9131 13.3525 12.0107C13.3525 12.1117 13.3867 12.1963 13.4551 12.2646C13.5267 12.333 13.6162 12.3672 13.7236 12.3672H14.085C14.2217 12.849 14.4577 13.2803 14.793 13.6611C14.6302 13.7653 14.4544 13.8564 14.2656 13.9346C14.0801 14.0127 13.8766 14.0794 13.6553 14.1348C13.5544 14.1543 13.4762 14.208 13.4209 14.2959C13.3656 14.3838 13.3493 14.4798 13.3721 14.584C13.3981 14.6882 13.4583 14.763 13.5527 14.8086C13.6471 14.8509 13.7497 14.8574 13.8604 14.8281C14.1273 14.7695 14.3844 14.6849 14.6318 14.5742C14.8792 14.4603 15.1152 14.3219 15.3398 14.1592C15.5514 14.3219 15.7777 14.4587 16.0186 14.5693C16.2627 14.68 16.5085 14.7646 16.7559 14.8232C16.8861 14.8525 16.9984 14.8477 17.0928 14.8086C17.1904 14.7663 17.2539 14.6914 17.2832 14.584C17.3125 14.4733 17.3011 14.3757 17.249 14.291C17.2002 14.2064 17.1204 14.1543 17.0098 14.1348C16.7917 14.0827 16.5882 14.0176 16.3994 13.9395C16.2139 13.8613 16.0365 13.7686 15.8672 13.6611C16.2057 13.2868 16.4417 12.8555 16.5752 12.3672H16.9414C17.0488 12.3672 17.1367 12.333 17.2051 12.2646C17.2767 12.1963 17.3125 12.1117 17.3125 12.0107C17.3125 11.9131 17.2767 11.8317 17.2051 11.7666C17.1367 11.6982 17.0488 11.6641 16.9414 11.6641H13.7236ZM15.3789 11.4932C15.4766 11.4443 15.5417 11.3727 15.5742 11.2783C15.61 11.1839 15.6051 11.0895 15.5596 10.9951L15.3203 10.5117C15.2715 10.4108 15.1999 10.3424 15.1055 10.3066C15.0143 10.2708 14.9215 10.279 14.8271 10.3311C14.7393 10.3734 14.679 10.4417 14.6465 10.5361C14.6139 10.6305 14.6204 10.7249 14.666 10.8193L14.8955 11.3076C14.9411 11.4053 15.0094 11.4704 15.1006 11.5029C15.195 11.5355 15.2878 11.5322 15.3789 11.4932ZM15.833 12.3672C15.7288 12.6732 15.5645 12.9548 15.3398 13.2119C15.112 12.958 14.9411 12.6764 14.8271 12.3672H15.833Z"
    fill="#676E74" />
</svg>