<svg width="16" height="16" viewBox="0 0 16 16" fill="none" xmlns="http://www.w3.org/2000/svg">
  <circle cx="8" cy="8" r="6.4" stroke="#FDA58F" stroke-width="1.2" />
  <mask id="path-2-inside-1_512_10857" fill="white">
    <path fill-rule="evenodd" clip-rule="evenodd"
      d="M7.99941 11.7998C7.50236 11.7998 7.09941 11.3969 7.09941 10.8998C7.09941 10.4027 7.50236 9.9998 7.99941 9.9998C8.49647 9.9998 8.89941 10.4027 8.89941 10.8998C8.89941 11.3969 8.49647 11.7998 7.99941 11.7998ZM7.99941 3.9998C8.41363 3.9998 8.74941 4.33559 8.74941 4.7498L8.74941 8.2498C8.74941 8.66402 8.41363 8.9998 7.99941 8.9998C7.5852 8.9998 7.24941 8.66402 7.24941 8.2498L7.24941 4.7498C7.24941 4.33559 7.5852 3.9998 7.99941 3.9998Z" />
  </mask>
  <path fill-rule="evenodd" clip-rule="evenodd"
    d="M7.99941 11.7998C7.50236 11.7998 7.09941 11.3969 7.09941 10.8998C7.09941 10.4027 7.50236 9.9998 7.99941 9.9998C8.49647 9.9998 8.89941 10.4027 8.89941 10.8998C8.89941 11.3969 8.49647 11.7998 7.99941 11.7998ZM7.99941 3.9998C8.41363 3.9998 8.74941 4.33559 8.74941 4.7498L8.74941 8.2498C8.74941 8.66402 8.41363 8.9998 7.99941 8.9998C7.5852 8.9998 7.24941 8.66402 7.24941 8.2498L7.24941 4.7498C7.24941 4.33559 7.5852 3.9998 7.99941 3.9998Z"
    fill="#FDA58F" />
  <path
    d="M7.09941 10.8998L5.59941 10.8998C5.59941 12.2253 6.67393 13.2998 7.99941 13.2998L7.99941 11.7998L7.99941 10.2998C8.33079 10.2998 8.59941 10.5684 8.59941 10.8998L7.09941 10.8998ZM7.99941 9.9998L7.99941 8.4998C6.67393 8.4998 5.59941 9.57432 5.59941 10.8998L7.09941 10.8998L8.59941 10.8998C8.59941 11.2312 8.33079 11.4998 7.99941 11.4998L7.99941 9.9998ZM8.89941 10.8998L10.3994 10.8998C10.3994 9.57432 9.3249 8.4998 7.99941 8.4998L7.99941 9.9998L7.99941 11.4998C7.66804 11.4998 7.39941 11.2312 7.39941 10.8998L8.89941 10.8998ZM7.99941 11.7998L7.99941 13.2998C9.3249 13.2998 10.3994 12.2253 10.3994 10.8998L8.89941 10.8998L7.39941 10.8998C7.39941 10.5684 7.66804 10.2998 7.99941 10.2998L7.99941 11.7998ZM8.74941 4.7498L10.2494 4.7498C10.2494 3.50716 9.24205 2.4998 7.99941 2.4998L7.99941 3.9998L7.99941 5.4998C7.5852 5.4998 7.24941 5.16402 7.24941 4.7498L8.74941 4.7498ZM8.74941 8.2498L10.2494 8.2498L10.2494 4.7498L8.74941 4.7498L7.24941 4.7498L7.24941 8.2498L8.74941 8.2498ZM7.99941 8.9998L7.99941 10.4998C9.24205 10.4998 10.2494 9.49245 10.2494 8.2498L8.74941 8.2498L7.24941 8.2498C7.24941 7.83559 7.5852 7.4998 7.99941 7.4998L7.99941 8.9998ZM7.24941 8.2498L5.74941 8.2498C5.74941 9.49245 6.75677 10.4998 7.99941 10.4998L7.99941 8.9998L7.99941 7.4998C8.41363 7.4998 8.74941 7.83559 8.74941 8.2498L7.24941 8.2498ZM7.24941 4.7498L5.74941 4.7498L5.74941 8.2498L7.24941 8.2498L8.74941 8.2498L8.74941 4.7498L7.24941 4.7498ZM7.99941 3.9998L7.99941 2.4998C6.75677 2.4998 5.74941 3.50716 5.74941 4.7498L7.24941 4.7498L8.74941 4.7498C8.74941 5.16402 8.41363 5.4998 7.99941 5.4998L7.99941 3.9998Z"
    fill="#FDA58F" mask="url(#path-2-inside-1_512_10857)" />
</svg>