<svg width="24" height="24" viewBox="0 0 24 24" fill="none" xmlns="http://www.w3.org/2000/svg">
  <rect width="24" height="24" rx="4" fill="#F5F6F7" />
  <rect x="0.5" y="0.5" width="23" height="23" rx="3.5" stroke="black" stroke-opacity="0.12" />
  <path
    d="M4.83984 17.1333C4.33496 17.1333 3.94466 16.999 3.66895 16.7305C3.39681 16.4619 3.26074 16.0752 3.26074 15.5703V10.9243C3.26074 10.4159 3.39681 10.0291 3.66895 9.76416C3.94466 9.49561 4.33496 9.36133 4.83984 9.36133H14.9321L13.9438 10.3442H4.99023C4.5498 10.3442 4.32959 10.5645 4.32959 11.0049V15.4897C4.32959 15.6974 4.38688 15.8586 4.50146 15.9731C4.61605 16.0877 4.77897 16.145 4.99023 16.145H15.8345C16.0457 16.145 16.2087 16.0877 16.3232 15.9731C16.4378 15.8586 16.4951 15.6974 16.4951 15.4897V11.8804L17.564 10.8115V15.5703C17.564 16.0752 17.4279 16.4619 17.1558 16.7305C16.8836 16.999 16.4933 17.1333 15.9849 17.1333H4.83984ZM13.0039 13.5186C12.943 13.5436 12.8857 13.5293 12.832 13.4756C12.7819 13.4219 12.7712 13.3646 12.7998 13.3037L13.3101 12.2026L17.9346 7.57275L18.7725 8.40527L14.1372 13.0298L13.0039 13.5186ZM19.1807 7.9917L18.3481 7.15381L18.7349 6.77246C18.8351 6.6722 18.9533 6.6167 19.0894 6.60596C19.2254 6.59521 19.34 6.63639 19.4331 6.72949L19.5835 6.87451C19.6873 6.97477 19.7375 7.09294 19.7339 7.229C19.7303 7.36507 19.6748 7.48682 19.5674 7.59424L19.1807 7.9917ZM6.34375 14.0449C6.12174 14.0449 5.93197 13.9661 5.77441 13.8086C5.62044 13.651 5.54346 13.4631 5.54346 13.2446C5.54346 13.0262 5.62044 12.8382 5.77441 12.6807C5.93197 12.5231 6.12174 12.4443 6.34375 12.4443C6.56217 12.4443 6.74837 12.5231 6.90234 12.6807C7.0599 12.8382 7.13867 13.0262 7.13867 13.2446C7.13867 13.4631 7.0599 13.651 6.90234 13.8086C6.74837 13.9661 6.56217 14.0449 6.34375 14.0449ZM8.70166 14.0449C8.48324 14.0449 8.29525 13.9661 8.1377 13.8086C7.98372 13.651 7.90674 13.4631 7.90674 13.2446C7.90674 13.0262 7.98372 12.8382 8.1377 12.6807C8.29525 12.5231 8.48324 12.4443 8.70166 12.4443C8.92367 12.4443 9.11165 12.5231 9.26562 12.6807C9.42318 12.8382 9.50195 13.0262 9.50195 13.2446C9.50195 13.4631 9.42318 13.651 9.26562 13.8086C9.11165 13.9661 8.92367 14.0449 8.70166 14.0449ZM11.0649 14.0449C10.8465 14.0449 10.6585 13.9661 10.501 13.8086C10.3434 13.651 10.2646 13.4631 10.2646 13.2446C10.2646 13.0262 10.3434 12.8382 10.501 12.6807C10.6585 12.5231 10.8465 12.4443 11.0649 12.4443C11.2834 12.4443 11.4714 12.5231 11.6289 12.6807C11.7865 12.8382 11.8652 13.0262 11.8652 13.2446C11.8652 13.4631 11.7865 13.651 11.6289 13.8086C11.4714 13.9661 11.2834 14.0449 11.0649 14.0449Z"
    fill="#676E74" />
</svg>