<svg width="29" height="28" viewBox="0 0 29 28" fill="none" xmlns="http://www.w3.org/2000/svg">
  <g clip-path="url(#clip0_388_6228)">
    <path
      d="M16.3204 13.895C16.3204 13.895 16.2562 11.2304 17.6037 9.64371C18.95 8.05821 20.6814 6.85188 21.771 6.09121C22.8619 5.33054 24.4007 4.37738 24.2082 3.01471C24.0157 1.64971 22.9389 0.745544 18.2582 0.745544C13.5775 0.745544 10.3599 1.17604 7.37671 2.72888C4.39471 4.28288 5.65937 6.29188 6.92871 6.63138C8.04871 6.93121 9.47554 7.05138 10.606 8.24488C12.657 10.4067 12.4412 13.7364 12.4412 13.7364L16.3204 13.895Z"
      fill="url(#paint0_radial_388_6228)" />
    <path
      d="M8.62494 14.973C8.62494 14.973 4.97094 19.9862 4.00727 21.224C3.0436 22.4607 1.05794 24.4907 1.18744 24.7438C1.31577 24.997 2.8231 25.6002 2.8231 25.6002C2.8231 25.6002 10.4531 26.6782 11.0609 26.6782C11.6699 26.6782 24.1731 23.1583 24.1731 23.1583C24.1731 23.1583 19.7818 13.8623 18.3689 14.4013C16.9573 14.9415 8.62494 14.973 8.62494 14.973Z"
      fill="#717578" />
    <path
      d="M14.5877 17.955C14.5877 17.955 13.4981 18.9058 12.9859 19.4145C12.4726 19.9243 11.0376 21.0653 11.2242 21.2543C11.3759 21.4095 13.5424 20.4353 13.7676 20.3233C13.9612 20.2288 16.3529 19.3492 16.5127 19.5732C16.6726 19.796 15.9761 20.3233 15.7439 20.6512C15.5281 20.9557 11.7096 24.7625 10.8077 24.997C10.1591 25.1673 6.22273 25.3785 6.09439 25.06C5.96489 24.745 7.50373 22.5867 7.12106 22.2682C6.73606 21.9508 5.16339 22.9717 4.23473 23.5118C3.30723 24.0508 1.86406 24.7415 1.63889 24.7742C1.41373 24.8068 1.18973 24.7415 1.18973 24.7415C1.18973 24.7415 1.12206 25.1382 3.11473 26.0412C4.68389 26.7528 5.96723 27.4062 10.2652 27.818C14.5621 28.2298 17.6386 27.8507 19.4329 27.5952C21.2296 27.3408 24.5301 26.3247 25.3969 25.9455C26.2614 25.5652 26.9311 25.172 26.8401 24.9002C26.8074 24.8045 21.8071 18.2385 21.8071 18.2385L19.1086 14.2765L14.5877 17.9538V17.955Z"
      fill="#474B4E" />
    <path
      d="M11.4367 11.4672C10.4392 11.6142 10.0833 12.7342 9.04499 14.0408C8.44649 14.7945 7.93432 15.3055 7.64966 15.6508C7.32999 16.0382 6.90649 16.8385 7.32999 17.0637C7.75232 17.2888 8.40566 16.6157 8.58416 16.2435C8.76149 15.8737 9.02399 15.4945 9.27132 15.7547C9.51749 16.0148 9.53382 16.4687 8.90149 16.9913C8.26799 17.5152 7.52716 18.1242 7.59832 18.6655C7.66832 19.208 8.03699 19.3632 8.46049 19.2407C8.88282 19.1193 9.90482 17.9503 10.2922 17.3752C10.6807 16.8012 11.2955 15.806 11.719 15.806C12.1425 15.806 12.1355 16.6775 11.2967 17.654C10.3283 18.7822 9.85582 19.173 8.70666 20.2008C7.51316 21.266 7.66832 21.6475 7.87949 21.8563C8.09182 22.0663 8.69032 22.1165 9.55249 21.3862C10.4158 20.6535 11.6327 19.278 12.1612 18.6655C12.6897 18.0565 13.1645 17.3938 13.7128 17.4288C14.2588 17.4638 14.1165 18.0028 14.1865 18.2665C14.2565 18.5267 14.2565 19.0143 14.9075 19.0143C15.5585 19.0143 15.9108 18.3517 16.1232 17.829C16.3332 17.3052 16.3157 16.6087 16.738 16.5387C17.1615 16.4687 17.2128 16.8875 17.5488 17.5502C17.8825 18.2128 19.1705 20.965 19.4878 21.4538C19.8052 21.9427 20.1575 22.8655 21.1958 22.5505C22.2342 22.2378 20.8972 20.3373 20.5798 19.866C20.2625 19.3958 19.3467 17.808 18.9932 16.7452C18.642 15.6835 18.642 15.3498 18.8718 15.176C19.0993 15.001 19.4878 15.4898 20 16.4313C20.5098 17.3728 20.952 18.2455 21.3557 18.5943C21.7593 18.9432 22.1117 18.9082 22.289 18.7495C22.464 18.5943 22.5352 18.0005 22.0767 17.5478C21.5343 16.9953 21.0427 16.3952 20.6078 15.7547C19.9986 14.8422 19.4196 13.9099 18.8718 12.9593C18.4495 12.2278 18.2068 11.725 17.6317 11.6363C16.8862 11.5232 16.3507 12.0738 15.9283 12.369C15.5048 12.6642 14.925 12.8228 14.3417 12.7878C13.7607 12.7528 12.986 12.1252 12.6687 11.8463C12.3537 11.5722 12.0363 11.3808 11.4378 11.4672H11.4367Z"
      fill="url(#paint1_radial_388_6228)" />
    <path
      d="M11.957 12.411C11.957 12.411 12.356 12.495 12.6477 12.7108C12.9394 12.9278 13.6557 13.5065 14.5879 13.4925C15.5212 13.4808 16.0404 13.0375 16.416 12.8205C16.7929 12.6047 17.1429 12.6408 17.1429 12.6408C17.1429 12.6408 16.5105 15.0803 14.6334 15.1527C12.1775 15.2483 11.957 12.411 11.957 12.411Z"
      fill="#EC5F32" />
    <path
      d="M23.6306 12.7411C23.2876 12.7901 23.4661 13.2766 23.5139 14.4246C23.5641 15.5738 23.5524 16.058 24.1042 16.0591C24.7961 16.0615 24.5791 14.6183 24.4472 14.1808C24.3189 13.7433 24.0436 12.6828 23.6306 12.7411Z"
      fill="url(#paint2_radial_388_6228)" />
    <path
      d="M23.5476 7.13997C23.3971 7.43747 23.8743 7.77231 24.3165 8.28914C24.614 8.63914 25.0515 9.50247 25.6581 9.56781C26.2648 9.63197 26.3348 8.91214 26.0338 8.49797C25.7398 8.09314 25.2323 7.68831 24.6595 7.39781C24.0878 7.10731 23.6631 6.91247 23.5476 7.13997Z"
      fill="url(#paint3_radial_388_6228)" />
    <path
      d="M15.8102 4.25715C15.9911 4.33881 16.1696 4.22448 16.2349 3.98182C16.2781 3.82198 17.0014 2.65881 18.0677 1.94365C18.9346 1.36031 19.3441 1.36032 19.7862 1.18298C20.0546 1.07332 20.2937 0.663815 20.1619 0.356982C20.0371 0.0653151 19.7687 -0.0466849 19.3277 0.0186484C19.0477 0.0594818 18.0281 0.317315 17.0201 1.39531C15.7776 2.72181 15.7111 3.64465 15.6784 3.80565C15.6457 3.96665 15.6364 4.17781 15.8102 4.25715Z"
      fill="url(#paint4_radial_388_6228)" />
    <path
      d="M13.42 4.40306C13.084 4.49172 12.7981 4.01456 12.195 3.39972C11.5883 2.78256 11.0493 2.70322 10.753 2.32872C10.4578 1.95539 10.5091 1.53539 10.7705 1.30906C11.0306 1.08272 11.4891 1.05006 11.8975 1.35689C12.3058 1.66372 12.8308 2.24822 13.2065 3.05672C13.4106 3.49422 13.7326 4.32139 13.42 4.40306Z"
      fill="url(#paint5_radial_388_6228)" />
    <path
      d="M5.47483 6.87168C5.23799 6.65118 4.29416 7.04201 3.56966 7.64401C3.22433 7.93101 2.87666 8.27051 2.73316 8.62635C2.61416 8.92851 2.61883 9.31118 2.89999 9.49785C3.15433 9.66468 3.46466 9.58651 3.68166 9.42085C3.97916 9.19101 4.18566 8.72785 4.35949 8.47235C4.66516 8.02551 5.17266 7.60085 5.33949 7.45851C5.49116 7.32551 5.65449 7.03851 5.47599 6.87285L5.47483 6.87168Z"
      fill="url(#paint6_radial_388_6228)" />
    <path
      d="M6.25886 12.985C5.98586 12.9022 5.57636 13.1973 5.23336 14.4947C4.93002 15.6427 4.83669 16.6775 5.60086 16.6962C6.40352 16.7172 6.06986 15.5598 6.16436 14.5145C6.25769 13.4715 6.53069 13.0678 6.25769 12.9862L6.25886 12.985Z"
      fill="url(#paint7_radial_388_6228)" />
    <path
      d="M6.18655 11.4789C6.63455 11.5675 6.86905 11.2304 6.96122 10.9212C7.03355 10.6739 7.34155 9.39054 8.94455 9.24704C10.4951 9.10704 11.6046 10.6505 11.7644 10.8209C11.9254 10.99 12.1377 11.0204 12.2567 10.9002C12.3629 10.7952 12.3419 10.6027 12.2357 10.3414C12.1261 10.0625 10.8451 7.88437 8.57005 8.1702C6.41522 8.4397 5.67088 10.0835 5.68955 10.7112C5.70588 11.151 5.83422 11.4089 6.18655 11.4789Z"
      fill="url(#paint8_radial_388_6228)" />
    <path
      d="M16.4018 11.1977C16.6934 11.2934 16.8299 10.9714 16.9349 10.8209C17.0411 10.6692 17.6023 9.6052 18.6009 9.09536C19.6019 8.5867 20.3544 8.5307 21.2959 8.9542C21.7976 9.17936 22.1499 9.78836 22.3634 10.1605C22.6504 10.6599 23.0494 10.7929 23.4298 10.584C23.8113 10.3764 23.8673 9.75336 23.3061 9.00903C22.8511 8.40703 21.8361 7.3792 20.0371 7.55886C17.1706 7.84236 16.3971 10.3274 16.3224 10.5654C16.2408 10.8395 16.2023 11.1324 16.4018 11.1977Z"
      fill="url(#paint9_radial_388_6228)" />
    <path
      d="M15.0205 11.7343C15.3191 11.7646 15.3961 11.634 15.479 11.123C15.6656 9.97147 15.9561 7.79797 17.4973 6.0398C18.7141 4.65147 20.0838 4.81947 20.6881 5.19164C21.2166 5.51714 21.3461 5.82864 21.5596 6.05497C21.7731 6.28014 22.2037 6.54964 22.5887 6.28014C22.9107 6.05614 22.9911 5.4868 22.4312 4.8638C21.8723 4.2408 21.3018 3.73214 19.8995 3.6178C18.496 3.50347 17.11 4.39597 16.3645 5.4728C15.6201 6.54964 15.0765 8.0768 14.9061 9.1128C14.7335 10.1465 14.7195 11.0646 14.7195 11.2793C14.7195 11.4893 14.7766 11.7086 15.0205 11.7343Z"
      fill="url(#paint10_radial_388_6228)" />
    <path
      d="M13.8246 11.7367C14.1373 11.69 14.1816 11.4532 14.1396 11.0857C14.0965 10.7182 13.8176 8.69752 13.2576 7.12602C12.7011 5.55452 11.8576 4.08919 10.2103 3.78469C8.5653 3.48019 7.25747 4.62469 7.07314 4.81252C6.7873 5.10769 6.48864 5.60119 6.84564 5.99785C7.20264 6.39569 7.7813 6.08652 8.1523 5.68869C8.5233 5.29202 9.14864 4.74952 10.166 5.06102C11.181 5.37252 11.6628 6.31402 12.1073 7.20769C12.5506 8.10019 12.903 9.38585 13.0885 10.066C13.2751 10.7439 13.3918 11.2817 13.4653 11.4812C13.5376 11.6679 13.6811 11.7565 13.8246 11.7367Z"
      fill="url(#paint11_radial_388_6228)" />
  </g>
  <defs>
    <radialGradient id="paint0_radial_388_6228" cx="0" cy="0" r="1" gradientUnits="userSpaceOnUse"
      gradientTransform="translate(639.14 1345.39) scale(1243.23 1243.26)">
      <stop offset="0.1743" stop-color="#E79F68" />
      <stop offset="0.2776" stop-color="#E6A272" />
      <stop offset="0.4528" stop-color="#E3AB8D" />
      <stop offset="0.5312" stop-color="#E2AF9B" />
      <stop offset="0.7833" stop-color="#E1D1CC" />
      <stop offset="0.8828" stop-color="#E0E0E0" />
    </radialGradient>
    <radialGradient id="paint1_radial_388_6228" cx="0" cy="0" r="1" gradientUnits="userSpaceOnUse"
      gradientTransform="translate(131.06 717.652) rotate(90) scale(1594.79 852.916)">
      <stop offset="0.3896" stop-color="#CB2D30" />
      <stop offset="0.4916" stop-color="#D23730" />
      <stop offset="0.6646" stop-color="#E45231" />
      <stop offset="0.7153" stop-color="#EA5B31" />
      <stop offset="0.7921" stop-color="#EA6032" />
      <stop offset="0.887" stop-color="#EC6F36" />
      <stop offset="0.9672" stop-color="#ED823A" />
    </radialGradient>
    <radialGradient id="paint2_radial_388_6228" cx="0" cy="0" r="1" gradientUnits="userSpaceOnUse"
      gradientTransform="translate(-8.53195 -20.4101) scale(287.664 287.77)">
      <stop offset="0.0448" stop-color="#CB2D30" />
      <stop offset="0.3439" stop-color="#D23730" />
      <stop offset="0.8512" stop-color="#E45231" />
      <stop offset="1" stop-color="#EA5B31" />
    </radialGradient>
    <radialGradient id="paint3_radial_388_6228" cx="0" cy="0" r="1" gradientUnits="userSpaceOnUse"
      gradientTransform="translate(-52.668 -28.9108) scale(369.586 369.544)">
      <stop offset="0.2939" stop-color="#CB2D30" />
      <stop offset="0.5149" stop-color="#D23730" />
      <stop offset="0.89" stop-color="#E45231" />
      <stop offset="1" stop-color="#EA5B31" />
    </radialGradient>
    <radialGradient id="paint4_radial_388_6228" cx="0" cy="0" r="1" gradientUnits="userSpaceOnUse"
      gradientTransform="translate(10.1013 564.787) scale(556.865 556.846)">
      <stop offset="0.0448" stop-color="#CB2D30" />
      <stop offset="0.3439" stop-color="#D23730" />
      <stop offset="0.8512" stop-color="#E45231" />
      <stop offset="1" stop-color="#EA5B31" />
    </radialGradient>
    <radialGradient id="paint5_radial_388_6228" cx="0" cy="0" r="1" gradientUnits="userSpaceOnUse"
      gradientTransform="translate(392.923 396.671) scale(447.75 447.82)">
      <stop offset="0.4232" stop-color="#CB2D30" />
      <stop offset="0.6038" stop-color="#D23730" />
      <stop offset="0.9102" stop-color="#E45231" />
      <stop offset="1" stop-color="#EA5B31" />
    </radialGradient>
    <radialGradient id="paint6_radial_388_6228" cx="0" cy="0" r="1" gradientUnits="userSpaceOnUse"
      gradientTransform="translate(362.534 -62.4744) scale(389.07 389.199)">
      <stop offset="0.3406" stop-color="#CB2D30" />
      <stop offset="0.547" stop-color="#D23730" />
      <stop offset="0.8973" stop-color="#E45231" />
      <stop offset="1" stop-color="#EA5B31" />
    </radialGradient>
    <radialGradient id="paint7_radial_388_6228" cx="0" cy="0" r="1" gradientUnits="userSpaceOnUse"
      gradientTransform="translate(135.164 -50.6757) scale(448.409 448.375)">
      <stop offset="0.4833" stop-color="#CB2D30" />
      <stop offset="0.6451" stop-color="#D23730" />
      <stop offset="0.9195" stop-color="#E45231" />
      <stop offset="1" stop-color="#EA5B31" />
    </radialGradient>
    <radialGradient id="paint8_radial_388_6228" cx="0" cy="0" r="1" gradientUnits="userSpaceOnUse"
      gradientTransform="translate(170.706 175.658) scale(263.355 263.378)">
      <stop offset="0.0448" stop-color="#CB2D30" />
      <stop offset="0.3439" stop-color="#D23730" />
      <stop offset="0.8512" stop-color="#E45231" />
      <stop offset="1" stop-color="#EA5B31" />
    </radialGradient>
    <radialGradient id="paint9_radial_388_6228" cx="0" cy="0" r="1" gradientUnits="userSpaceOnUse"
      gradientTransform="translate(192.243 191.417) scale(294.921 294.933)">
      <stop offset="0.0448" stop-color="#CB2D30" />
      <stop offset="0.3439" stop-color="#D23730" />
      <stop offset="0.8512" stop-color="#E45231" />
      <stop offset="1" stop-color="#EA5B31" />
    </radialGradient>
    <radialGradient id="paint10_radial_388_6228" cx="0" cy="0" r="1" gradientUnits="userSpaceOnUse"
      gradientTransform="translate(-361.174 366.796) scale(988.959 988.832)">
      <stop offset="0.3943" stop-color="#CB2D30" />
      <stop offset="0.5839" stop-color="#D23730" />
      <stop offset="0.9057" stop-color="#E45231" />
      <stop offset="1" stop-color="#EA5B31" />
    </radialGradient>
    <radialGradient id="paint11_radial_388_6228" cx="0" cy="0" r="1" gradientUnits="userSpaceOnUse"
      gradientTransform="translate(1032.27 593.982) scale(946.972 947.07)">
      <stop offset="0.4205" stop-color="#CB2D30" />
      <stop offset="0.6019" stop-color="#D23730" />
      <stop offset="0.9097" stop-color="#E45231" />
      <stop offset="1" stop-color="#EA5B31" />
    </radialGradient>
    <clipPath id="clip0_388_6228">
      <rect width="28" height="28" fill="white" transform="translate(0.0148926)" />
    </clipPath>
  </defs>
</svg>