<svg width="28" height="28" viewBox="0 0 28 28" fill="none" xmlns="http://www.w3.org/2000/svg">
  <path
    d="M14.7046 1.56349C15.1631 2.36849 15.6193 3.17582 16.0743 3.98432C16.0926 4.01665 16.1193 4.04352 16.1515 4.06217C16.1837 4.08083 16.2202 4.0906 16.2574 4.09049H22.7348C22.9377 4.09049 23.1104 4.21882 23.2551 4.47199L24.9514 7.47032C25.1731 7.86349 25.2314 8.02799 24.9794 8.44682C24.6761 8.94849 24.3809 9.45482 24.0928 9.96349L23.6646 10.7312C23.5409 10.9598 23.4044 11.0578 23.6179 11.3285L26.7119 16.7383C26.9126 17.0895 26.8414 17.3147 26.6618 17.6367C26.1519 18.5525 25.6328 19.4613 25.1042 20.3667C24.9188 20.684 24.6936 20.8042 24.3109 20.7983C23.4044 20.7797 22.5003 20.7867 21.5961 20.817C21.5767 20.818 21.5579 20.8239 21.5414 20.834C21.5248 20.8442 21.5112 20.8584 21.5016 20.8753C20.4584 22.7236 19.4064 24.567 18.3458 26.4053C18.1486 26.7472 17.9024 26.8288 17.4999 26.83C16.3368 26.8335 15.1643 26.8347 13.9801 26.8323C13.8698 26.832 13.7616 26.8026 13.6664 26.7471C13.5711 26.6916 13.4922 26.6119 13.4376 26.5162L11.8801 23.806C11.871 23.7883 11.8571 23.7735 11.84 23.7633C11.8228 23.7532 11.8032 23.7482 11.7833 23.7488H5.81225C5.47975 23.7838 5.16708 23.7477 4.87309 23.6415L3.00292 20.4098C2.94761 20.3141 2.91829 20.2056 2.91788 20.0951C2.91748 19.9846 2.94599 19.8759 3.00058 19.7798L4.40875 17.3065C4.42881 17.2715 4.43936 17.2319 4.43936 17.1916C4.43936 17.1512 4.42881 17.1116 4.40875 17.0767C3.67523 15.8067 2.94606 14.5343 2.22125 13.2593L1.29958 11.6318C1.11292 11.2702 1.09775 11.0532 1.41042 10.506C1.95292 9.55748 2.49192 8.61015 3.02858 7.66399C3.18258 7.39099 3.38325 7.27432 3.70992 7.27315C4.71675 7.26891 5.72359 7.26852 6.73042 7.27199C6.75585 7.27179 6.78078 7.26489 6.8027 7.25199C6.82461 7.23908 6.84274 7.22063 6.85525 7.19849L10.1289 1.48765C10.1785 1.40077 10.2502 1.3285 10.3366 1.27812C10.423 1.22773 10.5212 1.20102 10.6213 1.20065C11.2326 1.19949 11.8498 1.20065 12.4681 1.19365L13.6546 1.16682C14.0524 1.16332 14.4993 1.20415 14.7046 1.56349ZM10.7006 2.03365C10.6883 2.03364 10.6762 2.03688 10.6656 2.04302C10.6549 2.04916 10.6461 2.058 10.6399 2.06865L7.29625 7.91949C7.2802 7.94706 7.25722 7.96996 7.2296 7.98592C7.20197 8.00188 7.17066 8.01035 7.13875 8.01049H3.79508C3.72975 8.01049 3.71342 8.03965 3.74725 8.09682L10.5256 19.9455C10.5548 19.9945 10.5408 20.0178 10.4859 20.019L7.22508 20.0365C7.17741 20.0349 7.13026 20.0467 7.089 20.0707C7.04774 20.0946 7.01404 20.1297 6.99175 20.1718L5.45175 22.8668C5.40042 22.9578 5.42725 23.0045 5.53109 23.0045L12.1998 23.0138C12.2534 23.0138 12.2931 23.0372 12.3211 23.085L13.9579 25.948C14.0116 26.0425 14.0653 26.0437 14.1201 25.948L19.9604 15.728L20.8739 14.1157C20.8795 14.1057 20.8876 14.0974 20.8975 14.0916C20.9073 14.0859 20.9185 14.0828 20.9299 14.0828C20.9413 14.0828 20.9525 14.0859 20.9624 14.0916C20.9722 14.0974 20.9803 14.1057 20.9859 14.1157L22.6473 17.0673C22.6597 17.0894 22.6779 17.1078 22.6998 17.1205C22.7218 17.1332 22.7467 17.1398 22.7721 17.1397L25.9956 17.1163C26.0038 17.1164 26.012 17.1143 26.0192 17.1102C26.0263 17.1061 26.0323 17.1001 26.0364 17.093C26.0404 17.0859 26.0425 17.0778 26.0425 17.0697C26.0425 17.0615 26.0404 17.0534 26.0364 17.0463L22.6531 11.1127C22.6409 11.0928 22.6345 11.07 22.6345 11.0467C22.6345 11.0235 22.6409 11.0006 22.6531 10.9808L22.9949 10.3893L24.3016 8.08282C24.3296 8.03499 24.3156 8.01049 24.2608 8.01049H10.7333C10.6644 8.01049 10.6481 7.98015 10.6831 7.92065L12.3561 4.99815C12.3686 4.97824 12.3753 4.95518 12.3753 4.93165C12.3753 4.90812 12.3686 4.88507 12.3561 4.86515L10.7624 2.06982C10.7563 2.05878 10.7474 2.04959 10.7365 2.04323C10.7256 2.03686 10.7132 2.03355 10.7006 2.03365ZM18.0389 11.3903C18.0926 11.3903 18.1066 11.4137 18.0786 11.4603L17.1079 13.1695L14.0594 18.5187C14.0537 18.5291 14.0452 18.5377 14.035 18.5437C14.0247 18.5496 14.013 18.5527 14.0011 18.5525C13.9893 18.5524 13.9776 18.5493 13.9674 18.5434C13.9572 18.5374 13.9487 18.5289 13.9428 18.5187L9.91425 11.4813C9.89092 11.4417 9.90258 11.4207 9.94692 11.4183L10.1989 11.4043L18.0413 11.3903H18.0389Z"
    fill="url(#paint0_linear_426_3538)" />
  <defs>
    <linearGradient id="paint0_linear_426_3538" x1="1.16602" y1="1.16663" x2="2567.87" y2="1.16663"
      gradientUnits="userSpaceOnUse">
      <stop stop-color="#00055F" stop-opacity="0.84" />
      <stop offset="1" stop-color="#6F69F7" stop-opacity="0.84" />
    </linearGradient>
  </defs>
</svg>