<svg width="28" height="28" viewBox="0 0 28 28" fill="none" xmlns="http://www.w3.org/2000/svg">
  <g clip-path="url(#clip0_426_3541)">
    <path
      d="M27.7059 5.22908C27.4096 5.08441 27.2813 5.36092 27.1086 5.50208C27.0491 5.54758 26.9989 5.60708 26.9488 5.66075C26.5148 6.12392 26.0084 6.42725 25.3469 6.39108C24.3798 6.33741 23.5538 6.64075 22.8234 7.38042C22.6683 6.46808 22.1526 5.92441 21.3686 5.57441C20.9579 5.39241 20.5426 5.21158 20.2544 4.81608C20.0538 4.53491 19.9989 4.22108 19.8986 3.91308C19.8344 3.72642 19.7703 3.53625 19.5568 3.50475C19.3234 3.46858 19.2324 3.66341 19.1414 3.82675C18.7763 4.49408 18.6351 5.22908 18.6491 5.97341C18.6806 7.64875 19.3876 8.98341 20.7934 9.93191C20.9533 10.0404 20.9941 10.1501 20.9439 10.3087C20.8483 10.6354 20.7339 10.9527 20.6336 11.2806C20.5694 11.4894 20.4738 11.5337 20.2498 11.4439C19.4929 11.1186 18.8054 10.6513 18.2244 10.0672C17.2246 9.10125 16.3216 8.03491 15.1946 7.19958C14.9335 7.00663 14.6654 6.82334 14.3908 6.65008C13.2416 5.53358 14.5424 4.61658 14.8434 4.50808C15.1584 4.39375 14.9519 4.00408 13.9346 4.00875C12.9173 4.01342 11.9863 4.35291 10.7998 4.80675C10.6235 4.87431 10.4421 4.92776 10.2573 4.96658C9.14851 4.75767 8.01453 4.71755 6.89377 4.84758C4.69461 5.09258 2.93877 6.13325 1.64727 7.90775C0.0956079 10.0404 -0.269559 12.4647 0.177275 14.9917C0.647441 17.6564 2.00777 19.8626 4.09728 21.5869C6.26494 23.3754 8.76044 24.2516 11.6083 24.0836C13.3373 23.9844 15.2634 23.7522 17.4346 21.9136C17.9829 22.1866 18.5569 22.2951 19.5113 22.3767C20.2463 22.4456 20.9533 22.3417 21.5004 22.2274C22.3579 22.0454 22.2984 21.2509 21.9893 21.1062C19.4751 19.9349 20.0269 20.4121 19.5241 20.0259C20.8028 18.5139 22.7278 16.9436 23.4814 11.8557C23.5398 11.4509 23.4896 11.1966 23.4814 10.8699C23.4768 10.6716 23.5223 10.5934 23.7498 10.5712C24.381 10.5058 24.9933 10.3175 25.5523 10.0171C27.1809 9.12691 27.8389 7.66625 27.9941 5.91391C28.0174 5.64558 27.9894 5.37025 27.7059 5.22908ZM13.5111 21.0001C11.0739 19.0844 9.89211 18.4532 9.40444 18.4801C8.94711 18.5081 9.02994 19.0296 9.13027 19.3702C9.23528 19.7062 9.37177 19.9372 9.56311 20.2324C9.69611 20.4272 9.78711 20.7177 9.43127 20.9359C8.64611 21.4212 7.28227 20.7726 7.21811 20.7411C5.63027 19.8054 4.30144 18.5711 3.36694 16.8829C2.46394 15.2577 1.93894 13.5147 1.85261 11.6539C1.82927 11.2036 1.96111 11.0449 2.40911 10.9632C2.99724 10.8507 3.59984 10.8353 4.19294 10.9177C6.68027 11.2817 8.79661 12.3936 10.5723 14.1541C11.5849 15.1574 12.3514 16.3556 13.1413 17.5269C13.9813 18.7706 14.8843 19.9559 16.0346 20.9266C16.4406 21.2672 16.7638 21.5262 17.0741 21.7164C16.1384 21.8214 14.5774 21.8447 13.5111 21.0001ZM14.6778 13.4867C14.6776 13.4288 14.6915 13.3717 14.7183 13.3203C14.7451 13.2689 14.784 13.2248 14.8317 13.1919C14.8794 13.1589 14.9344 13.138 14.9919 13.1311C15.0494 13.1241 15.1078 13.1313 15.1619 13.1519C15.231 13.1767 15.2905 13.2224 15.3324 13.2826C15.3742 13.3428 15.3962 13.4146 15.3953 13.4879C15.3954 13.5353 15.3862 13.5822 15.368 13.626C15.3498 13.6697 15.3231 13.7094 15.2895 13.7428C15.2558 13.7761 15.2159 13.8024 15.1719 13.8201C15.128 13.8379 15.081 13.8467 15.0336 13.8461C14.9866 13.8462 14.94 13.837 14.8966 13.819C14.8532 13.8009 14.8138 13.7744 14.7808 13.7409C14.7478 13.7074 14.7218 13.6677 14.7043 13.6241C14.6868 13.5804 14.677 13.5338 14.6778 13.4867ZM18.3061 15.3487C18.0728 15.4432 17.8406 15.5249 17.6178 15.5354C17.2825 15.5471 16.9536 15.4424 16.6868 15.2391C16.3671 14.9707 16.1384 14.8214 16.0428 14.3547C16.0098 14.1267 16.0161 13.8947 16.0614 13.6687C16.1431 13.2872 16.0521 13.0422 15.7826 12.8206C15.5644 12.6386 15.2856 12.5884 14.9799 12.5884C14.8753 12.5823 14.7736 12.5511 14.6836 12.4974C14.5553 12.4344 14.4503 12.2757 14.5506 12.0797C14.5833 12.0167 14.7373 11.8627 14.7746 11.8347C15.1899 11.5991 15.6694 11.6761 16.1116 11.8534C16.5223 12.0214 16.8326 12.3294 17.2794 12.7657C17.7356 13.2919 17.8184 13.4377 18.0786 13.8321C18.2839 14.1412 18.4706 14.4586 18.5978 14.8214C18.6759 15.0489 18.5756 15.2344 18.3061 15.3487Z"
      fill="#4D6BFE" />
  </g>
  <defs>
    <clipPath id="clip0_426_3541">
      <rect width="28" height="28" fill="white" />
    </clipPath>
  </defs>
</svg>