<svg width="28" height="28" viewBox="0 0 28 28" fill="none" xmlns="http://www.w3.org/2000/svg">
  <g clip-path="url(#clip0_426_3547)">
    <path
      d="M8.04659 4.66663H8.01859L7.98242 7.71746H8.00809C10.0089 7.71746 11.5618 9.30063 14.9381 15.0045L15.1423 15.351L15.1563 15.3743L17.0463 12.53L17.0323 12.5078C16.6192 11.8316 16.1922 11.1641 15.7513 10.5058C15.3172 9.85611 14.8599 9.2222 14.3804 8.60529C12.1486 5.75396 10.2819 4.66663 8.04659 4.66663Z"
      fill="url(#paint0_linear_426_3547)" />
    <path
      d="M8.01847 4.66663C5.77497 4.67829 3.78814 6.13429 2.35664 8.36496C2.35273 8.37156 2.34884 8.37817 2.34497 8.38479L4.97464 9.82096L4.98747 9.80113C5.82514 8.53763 6.8658 7.73146 7.98347 7.71863H8.00797L8.0453 4.66663H8.01847Z"
      fill="url(#paint1_linear_426_3547)" />
    <path
      d="M2.35551 8.36499L2.34268 8.38482C1.40001 9.85482 0.697676 11.6608 0.319676 13.608L0.313843 13.6337L3.27018 14.3337L3.27484 14.308C3.58984 12.5965 4.19184 11.0087 4.97351 9.82216L4.98634 9.80232L2.35551 8.36499Z"
      fill="url(#paint2_linear_426_3547)" />
    <path
      d="M3.27483 14.3079L0.319667 13.6079L0.313833 13.6336C0.107333 14.7046 0.00233333 15.7931 0 16.8839V16.9107L3.031 17.1826V17.1557C3.01997 16.2011 3.10203 15.2478 3.276 14.3091L3.27483 14.3079Z"
      fill="url(#paint3_linear_426_3547)" />
    <path
      d="M3.12319 18.1264C3.06883 17.813 3.03803 17.496 3.03102 17.1779V17.1523L2.15525e-05 16.8793V16.9073C-0.00337997 17.5536 0.0536459 18.1989 0.170355 18.8346L3.12785 18.1521C3.12628 18.1436 3.12472 18.135 3.12319 18.1264Z"
      fill="url(#paint4_linear_426_3547)" />
    <path
      d="M3.81498 19.7049C3.48365 19.3433 3.25032 18.8229 3.12782 18.1556L3.12315 18.1311L0.165649 18.8136L0.170316 18.8381C0.394316 20.0164 0.832983 20.9964 1.46065 21.7396L1.47698 21.7594L3.83132 19.7236C3.82545 19.7174 3.82078 19.7112 3.81498 19.7049Z"
      fill="url(#paint5_linear_426_3547)" />
    <path
      d="M12.5766 11.2629C10.7939 14.0046 9.71357 15.7254 9.71357 15.7254C7.33941 19.4588 6.51807 20.2953 5.1974 20.2953C4.93768 20.302 4.67957 20.2526 4.44074 20.1503C4.20192 20.048 3.98803 19.8953 3.81374 19.7026L1.46057 21.7373L1.4769 21.7571C2.3449 22.7709 3.56757 23.3333 5.0819 23.3333C7.37207 23.3333 9.01824 22.2506 11.9466 17.1149L14.0069 13.4633C13.5498 12.717 13.0736 11.9832 12.5766 11.2629Z"
      fill="#0082FB" />
    <path
      d="M15.7524 6.93696L15.7337 6.95562C15.267 7.45729 14.8167 8.01496 14.3804 8.60762C14.8214 9.17112 15.2764 9.80229 15.7512 10.5093C16.3112 9.64246 16.8339 8.94012 17.346 8.40112L17.3647 8.38246L15.7524 6.93696Z"
      fill="url(#paint6_linear_426_3547)" />
    <path
      d="M24.4043 6.66513C23.1618 5.40513 21.6801 4.66663 20.0958 4.66663C18.4251 4.66663 17.0193 5.58479 15.7523 6.93463L15.7336 6.95329L17.346 8.39996L17.3646 8.38013C18.1988 7.50863 19.0073 7.07346 19.9033 7.07346C20.867 7.07346 21.77 7.52846 22.5516 8.32763L22.5691 8.34629L24.423 6.68379L24.4043 6.66513Z"
      fill="#0082FB" />
    <path
      d="M27.9976 16.4792C27.9276 12.4343 26.516 8.81883 24.423 6.68383L24.4043 6.66516L22.5516 8.32649L22.5691 8.34516C24.1441 9.96916 25.2256 12.9885 25.3236 16.478V16.5048H27.9976V16.4792Z"
      fill="url(#paint7_linear_426_3547)" />
    <path
      d="M27.9977 16.5083V16.4814H25.3237V16.5071C25.3284 16.6704 25.3307 16.8361 25.3307 17.0018C25.3307 17.9526 25.1895 18.7214 24.9014 19.2768L24.8885 19.3024L26.8812 21.3814L26.8964 21.3581C27.6197 20.2381 28 18.6829 28 16.7964C28 16.6996 28 16.6039 27.9977 16.5083Z"
      fill="url(#paint8_linear_426_3547)" />
    <path
      d="M24.9014 19.2733L24.8886 19.2966C24.6389 19.7656 24.2831 20.0783 23.8187 20.2148L24.7264 23.0871C24.9013 23.028 25.0721 22.9571 25.2374 22.8748C25.8834 22.5482 26.4328 22.0583 26.8311 21.4538L26.8824 21.378L26.8964 21.3546L24.9014 19.2733Z"
      fill="url(#paint9_linear_426_3547)" />
    <path
      d="M23.2401 20.2918C22.9344 20.2918 22.6661 20.2463 22.4024 20.1284L21.4714 23.0708C21.9953 23.2493 22.5529 23.3298 23.1748 23.3298C23.7488 23.3298 24.2749 23.2446 24.7521 23.0789L23.8421 20.2066C23.6473 20.2649 23.4454 20.2941 23.2401 20.2918Z"
      fill="url(#paint10_linear_426_3547)" />
    <path
      d="M21.3768 19.2896L21.3605 19.2698L19.2185 21.5028L19.2372 21.5226C19.9803 22.3183 20.6908 22.8118 21.497 23.0824L22.4268 20.1424C22.0873 19.9966 21.7583 19.7306 21.3768 19.2896Z"
      fill="url(#paint11_linear_426_3547)" />
    <path
      d="M21.3605 19.2675C20.7189 18.5185 19.9232 17.2702 18.6737 15.2542L17.045 12.5288L17.0322 12.5055L15.1422 15.3498L15.1562 15.3732L16.31 17.3192C17.4289 19.1975 18.34 20.5555 19.2185 21.5017L19.2372 21.5203L21.3769 19.2873C21.3714 19.2807 21.366 19.2741 21.3605 19.2675Z"
      fill="url(#paint12_linear_426_3547)" />
  </g>
  <defs>
    <linearGradient id="paint0_linear_426_3547" x1="695.9" y1="959.78" x2="133.842" y2="220.912"
      gradientUnits="userSpaceOnUse">
      <stop offset="0.0006" stop-color="#0867DF" />
      <stop offset="0.4539" stop-color="#0668E1" />
      <stop offset="0.8591" stop-color="#0064E0" />
    </linearGradient>
    <linearGradient id="paint1_linear_426_3547" x1="125.871" y1="395.747" x2="526.911" y2="90.5141"
      gradientUnits="userSpaceOnUse">
      <stop offset="0.1323" stop-color="#0064DF" />
      <stop offset="0.9988" stop-color="#0064E0" />
    </linearGradient>
    <linearGradient id="paint2_linear_426_3547" x1="179.098" y1="540.334" x2="342.595" y2="127.517"
      gradientUnits="userSpaceOnUse">
      <stop offset="0.0147" stop-color="#0072EC" />
      <stop offset="0.6881" stop-color="#0064DF" />
    </linearGradient>
    <linearGradient id="paint3_linear_426_3547" x1="154.077" y1="336.007" x2="174.022" y2="70.1295"
      gradientUnits="userSpaceOnUse">
      <stop offset="0.0731" stop-color="#007CF6" />
      <stop offset="0.9943" stop-color="#0072EC" />
    </linearGradient>
    <linearGradient id="paint4_linear_426_3547" x1="163.14" y1="130.877" x2="157.408" y2="88.0898"
      gradientUnits="userSpaceOnUse">
      <stop offset="0.0731" stop-color="#007FF9" />
      <stop offset="1" stop-color="#007CF6" />
    </linearGradient>
    <linearGradient id="paint5_linear_426_3547" x1="138.321" y1="63.4925" x2="225.817" y2="249.674"
      gradientUnits="userSpaceOnUse">
      <stop offset="0.0731" stop-color="#007FF9" />
      <stop offset="1" stop-color="#0082FB" />
    </linearGradient>
    <linearGradient id="paint6_linear_426_3547" x1="118.259" y1="253.003" x2="223.775" y2="106.64"
      gradientUnits="userSpaceOnUse">
      <stop offset="0.2799" stop-color="#007FF8" />
      <stop offset="0.9141" stop-color="#0082FB" />
    </linearGradient>
    <linearGradient id="paint7_linear_426_3547" x1="260.879" y1="68.0155" x2="495.252" y2="932.924"
      gradientUnits="userSpaceOnUse">
      <stop stop-color="#0082FB" />
      <stop offset="0.9995" stop-color="#0081FA" />
    </linearGradient>
    <linearGradient id="paint8_linear_426_3547" x1="211.75" y1="39.3203" x2="74.2477" y2="318.101"
      gradientUnits="userSpaceOnUse">
      <stop offset="0.0619" stop-color="#0081FA" />
      <stop offset="1" stop-color="#0080F9" />
    </linearGradient>
    <linearGradient id="paint9_linear_426_3547" x1="117.017" y1="245.51" x2="227.963" y2="169.709"
      gradientUnits="userSpaceOnUse">
      <stop stop-color="#027AF3" />
      <stop offset="1" stop-color="#0080F9" />
    </linearGradient>
    <linearGradient id="paint10_linear_426_3547" x1="88.5053" y1="180.198" x2="290.854" y2="180.198"
      gradientUnits="userSpaceOnUse">
      <stop stop-color="#0377EF" />
      <stop offset="0.9994" stop-color="#0279F1" />
    </linearGradient>
    <linearGradient id="paint11_linear_426_3547" x1="148.524" y1="153.849" x2="262.451" y2="221.105"
      gradientUnits="userSpaceOnUse">
      <stop offset="0.0019" stop-color="#0471E9" />
      <stop offset="1" stop-color="#0377EF" />
    </linearGradient>
    <linearGradient id="paint12_linear_426_3547" x1="216.235" y1="190.269" x2="588.372" y2="659.589"
      gradientUnits="userSpaceOnUse">
      <stop offset="0.2765" stop-color="#0867DF" />
      <stop offset="1" stop-color="#0471E9" />
    </linearGradient>
    <clipPath id="clip0_426_3547">
      <rect width="28" height="28" fill="white" />
    </clipPath>
  </defs>
</svg>