<svg width="29" height="28" viewBox="0 0 29 28" fill="none" xmlns="http://www.w3.org/2000/svg">
  <path fill-rule="evenodd" clip-rule="evenodd"
    d="M9.4974 16.4488C10.1881 16.4488 11.5624 16.4103 13.4617 15.6286C15.6749 14.7175 20.0791 13.062 23.2559 11.3633C25.4784 10.1756 26.4526 8.60296 26.4526 6.48663C26.4526 5.7879 26.3149 5.09601 26.0475 4.45048C25.7801 3.80495 25.3881 3.21843 24.894 2.72441C24.3998 2.23038 23.8132 1.83854 23.1676 1.57125C22.522 1.30397 21.8301 1.16647 21.1314 1.16663H8.8219C6.7954 1.16694 4.85201 1.97217 3.41918 3.40523C1.98634 4.83829 1.1814 6.7818 1.1814 8.80829C1.1814 13.0281 4.3839 16.4488 9.4974 16.4488Z"
    fill="#39594D" />
  <path fill-rule="evenodd" clip-rule="evenodd"
    d="M11.5789 21.7117C11.5788 20.7001 11.8785 19.7111 12.4402 18.8697C13.0019 18.0283 13.8004 17.3722 14.7347 16.9844L18.6115 15.3744C22.5327 13.748 26.8482 16.6297 26.8482 20.8752C26.8482 21.6573 26.6941 22.4317 26.3948 23.1542C26.0955 23.8768 25.6568 24.5333 25.1037 25.0862C24.5506 25.6392 23.8941 26.0778 23.1715 26.3769C22.4489 26.6761 21.6744 26.83 20.8924 26.8299L16.6959 26.8287C16.0238 26.8287 15.3583 26.6963 14.7374 26.4391C14.1165 26.1819 13.5524 25.8048 13.0772 25.3296C12.602 24.8543 12.2251 24.29 11.968 23.6691C11.7109 23.0481 11.5787 22.3826 11.5789 21.7105V21.7117Z"
    fill="#D18EE2" />
  <path
    d="M5.58673 17.4556C5.00817 17.4555 4.43525 17.5693 3.9007 17.7907C3.36615 18.012 2.88045 18.3365 2.47135 18.7456C2.06224 19.1547 1.73775 19.6404 1.51642 20.1749C1.29509 20.7095 1.18124 21.2824 1.1814 21.861V22.4315C1.20021 23.5873 1.67255 24.6894 2.49656 25.5001C3.32056 26.3108 4.4302 26.7651 5.58615 26.7651C6.7421 26.7651 7.85173 26.3108 8.67574 25.5001C9.49974 24.6894 9.97209 23.5873 9.9909 22.4315V21.8598C9.9909 21.2814 9.87698 20.7087 9.65565 20.1744C9.43432 19.6401 9.10991 19.1545 8.70095 18.7456C8.29198 18.3366 7.80647 18.0122 7.27213 17.7909C6.73779 17.5695 6.16509 17.4556 5.58673 17.4556Z"
    fill="#FF7759" />
</svg>