<svg width="28" height="28" viewBox="0 0 28 28" fill="none" xmlns="http://www.w3.org/2000/svg">
  <g clip-path="url(#clip0_426_3544)">
    <path fill-rule="evenodd" clip-rule="evenodd"
      d="M14.3967 6.94517C14.2701 6.51493 14.1738 6.07636 14.1085 5.63267V4.34C16.5214 4.36389 18.8374 5.29327 20.5975 6.944L14.3967 6.94517ZM13.5917 6.94517C13.7235 6.51 13.8238 6.06433 13.8915 5.60933V4.34C11.4786 4.36389 9.1626 5.29327 7.4025 6.944H13.5905L13.5917 6.94517ZM7.25317 7.16333H13.5217C13.4305 7.4387 13.3266 7.70967 13.2102 7.97533C12.7286 9.12713 12.0317 10.1765 11.1568 11.067L7.25317 7.16333ZM6.94517 6.94517H3.47317V7.16333H6.874C5.13249 8.97304 4.14873 11.3801 4.12417 13.8915H0V14.1085H4.12417C4.14873 16.6199 5.13249 19.027 6.874 20.8367H3.47317V21.0537H6.94517V24.5268H7.16333V21.126C8.97304 22.8675 11.3801 23.8513 13.8915 23.8758V28H14.1085V23.8758C16.6199 23.8513 19.027 22.8675 20.8367 21.126V24.5268H21.0537V21.0537H24.5268V20.8367H21.126C22.8675 19.027 23.8513 16.6199 23.8758 14.1085H28V13.8915H23.8758C23.8513 11.3801 22.8675 8.97304 21.126 7.16333H24.5268V6.94517H21.0537V3.47317H20.8367V6.874C19.027 5.13249 16.6199 4.14873 14.1085 4.12417V0H13.8915V4.12417C11.3801 4.14873 8.97304 5.13249 7.16333 6.874V3.47317H6.94517V6.94517ZM14.1085 23.6588C16.5216 23.6346 18.8376 22.7048 20.5975 21.0537H14.3967C14.2707 21.4818 14.175 21.9205 14.1085 22.3673V23.6588ZM13.8915 22.3907C13.824 21.9382 13.7234 21.4914 13.5905 21.0537H7.4025C9.16243 22.7048 11.4784 23.6346 13.8915 23.6588V22.3907ZM4.34117 13.8915H5.63267C6.07636 13.8262 6.51493 13.7299 6.94517 13.6033V7.4025C5.29443 9.1626 4.36506 11.4786 4.34117 13.8915ZM5.60933 14.1085H4.34C4.36389 16.5214 5.29327 18.8374 6.944 20.5975V14.4095C6.50668 14.2766 6.06137 14.176 5.60933 14.1085ZM23.6577 13.8915C23.6338 11.4786 22.7044 9.1626 21.0537 7.4025V13.6033C21.4818 13.7293 21.9205 13.825 22.3673 13.8915H23.6577ZM22.3907 14.1085C21.9357 14.1762 21.49 14.2765 21.0537 14.4095V20.5975C22.7048 18.8376 23.6346 16.5216 23.6588 14.1085H22.3907ZM20.8367 20.7468V14.4783C20.5613 14.5694 20.2903 14.6734 20.0247 14.7898C18.8729 15.2713 17.8235 15.9682 16.933 16.8432L20.8367 20.7468ZM20.8367 13.5368V7.1785L20.8227 7.16333H14.4632C14.5518 7.4375 14.6522 7.70933 14.7665 7.97533C15.2709 9.14456 15.9908 10.2084 16.8887 11.1113C17.7915 12.0096 18.8553 12.73 20.0247 13.2347C20.2907 13.3478 20.5613 13.4482 20.8367 13.5368ZM7.16333 20.8227V14.4783C7.4375 14.5693 7.70933 14.6732 7.97533 14.7898C9.14672 15.2798 10.2118 15.9926 11.1113 16.8887C12.0074 17.7882 12.7202 18.8533 13.2102 20.0247C13.3268 20.2907 13.4318 20.5613 13.5217 20.8367H7.17733L7.16333 20.8227ZM7.16333 13.5368V7.38033L11.0017 11.2187C10.1222 12.067 9.09705 12.75 7.97533 13.2347C7.7094 13.3477 7.43846 13.4485 7.16333 13.5368ZM14.4632 20.8367H20.6197L16.7813 16.9983C15.933 17.8778 15.25 18.903 14.7653 20.0247C14.6523 20.2906 14.5515 20.5615 14.4632 20.8367ZM11.725 11.725C10.7566 12.6892 9.61723 13.4646 8.365 14.0117C9.61934 14.5445 10.7599 15.3128 11.725 16.275C12.6872 17.2401 13.4555 18.3807 13.9883 19.635C14.5354 18.3828 15.3108 17.2434 16.275 16.275C17.2401 15.3128 18.3807 14.5445 19.635 14.0117C18.3828 13.4646 17.2434 12.6892 16.275 11.725C15.3108 10.7567 14.5354 9.61724 13.9883 8.365C13.4555 9.61934 12.6872 10.7599 11.725 11.725Z"
      fill="url(#paint0_linear_426_3544)" />
  </g>
  <defs>
    <linearGradient id="paint0_linear_426_3544" x1="683.732" y1="2116.27" x2="2105.43" y2="705.432"
      gradientUnits="userSpaceOnUse">
      <stop stop-color="#446EFF" />
      <stop offset="0.36661" stop-color="#2E96FF" />
      <stop offset="0.83221" stop-color="#B1C5FF" />
    </linearGradient>
    <clipPath id="clip0_426_3544">
      <rect width="28" height="28" fill="white" />
    </clipPath>
  </defs>
</svg>