<svg width="28" height="28" viewBox="0 0 28 28" fill="none" xmlns="http://www.w3.org/2000/svg">
  <path d="M3.99902 3.96667H7.99952V7.96601H3.99902V3.96667ZM19.9987 3.96667H24.0004V7.96601H19.9987V3.96667Z"
    fill="#FFD700" />
  <path d="M3.99902 7.96606H11.9989V11.9666H4.00019L3.99902 7.96606ZM15.9994 7.96606H23.9992V11.9666H15.9994V7.96606Z"
    fill="#FFAF00" />
  <path d="M3.99902 11.9678H24.0004V15.9671H3.99902V11.9678Z" fill="#FF8205" />
  <path
    d="M3.99902 15.967H7.99952V19.9664H3.99902V15.967ZM12 15.967H16.0005V19.9664H12V15.967ZM19.9987 15.967H24.0004V19.9664H19.9987V15.967Z"
    fill="#FA500F" />
  <path d="M0 19.9664H12.0003V23.9669H0V19.9664ZM15.9997 19.9664H28V23.9669H15.9997V19.9664Z" fill="#E10500" />
</svg>