<svg width="16" height="17" viewBox="0 0 16 17" fill="none" xmlns="http://www.w3.org/2000/svg">
  <path
    d="M8 5.15039C8.14428 5.15039 8.27031 5.20293 8.37305 5.30566C8.4755 5.40824 8.52821 5.53377 8.52832 5.67773V7.62207H10.4756C10.6178 7.62212 10.7424 7.67517 10.8447 7.77734C10.9475 7.88008 11 8.00611 11 8.15039C11 8.29645 10.9477 8.42332 10.8447 8.52637L10.8438 8.52734C10.7413 8.62703 10.6171 8.67866 10.4756 8.67871H8.52832V10.626C8.52827 10.7682 8.47522 10.8928 8.37305 10.9951C8.27031 11.0979 8.14428 11.1504 8 11.1504C7.85384 11.1504 7.72703 11.0979 7.62598 10.9941C7.52645 10.8917 7.47466 10.7674 7.47461 10.626V8.67871H5.52734C5.38406 8.6786 5.259 8.6273 5.15625 8.52734L5.15527 8.52637C5.05228 8.42332 5 8.29645 5 8.15039C5 8.00611 5.05254 7.88008 5.15527 7.77734C5.25785 7.67489 5.38338 7.62218 5.52734 7.62207H7.47461V5.67773C7.47472 5.53457 7.52618 5.40934 7.62598 5.30664C7.72703 5.20285 7.85384 5.15039 8 5.15039ZM8 11.0674C8.02556 11.0674 8.05019 11.0644 8.07422 11.0605C8.05018 11.0644 8.02555 11.0674 8 11.0674ZM8.10547 11.0537C8.12288 11.0495 8.13968 11.0444 8.15625 11.0381C8.13967 11.0444 8.1229 11.0496 8.10547 11.0537ZM8.17773 11.0293C8.19354 11.0222 8.20862 11.014 8.22363 11.0049C8.2086 11.014 8.19357 11.0223 8.17773 11.0293ZM7.76465 11C7.7816 11.0109 7.79922 11.0201 7.81738 11.0283C7.79923 11.0201 7.78159 11.011 7.76465 11ZM7.63379 10.8711C7.64902 10.8935 7.6655 10.9159 7.68555 10.9365C7.70445 10.9559 7.72522 10.9722 7.74609 10.9873C7.72542 10.9723 7.70529 10.9558 7.68652 10.9365C7.6664 10.9159 7.64915 10.8936 7.63379 10.8711ZM8.31348 10.9365C8.30382 10.9462 8.2923 10.9533 8.28223 10.9619L8.31445 10.9365C8.33374 10.9172 8.34931 10.8959 8.36426 10.875C8.34918 10.896 8.33285 10.9171 8.31348 10.9365ZM7.59473 10.8008C7.60345 10.821 7.61396 10.8404 7.62598 10.8594C7.61389 10.8404 7.60352 10.821 7.59473 10.8008ZM8.37891 10.8535C8.38866 10.838 8.39677 10.822 8.4043 10.8057C8.39671 10.822 8.38872 10.838 8.37891 10.8535ZM7.57129 10.7295C7.57587 10.7492 7.58159 10.7684 7.58887 10.7871C7.58152 10.7684 7.5759 10.7492 7.57129 10.7295ZM10.5625 8.58691C10.5345 8.59226 10.5056 8.59473 10.4756 8.59473L10.5625 8.58789C10.5902 8.58259 10.6169 8.57412 10.6426 8.56348L10.5625 8.58691ZM5.3623 8.56445C5.38717 8.57428 5.41267 8.58285 5.43945 8.58789L5.52734 8.59473C5.4682 8.59467 5.41332 8.58456 5.3623 8.56445ZM5.29004 8.52637C5.30996 8.53913 5.33018 8.55041 5.35156 8.55957C5.33018 8.55043 5.30996 8.53911 5.29004 8.52637ZM5.16309 8.40723C5.17805 8.4282 5.1947 8.4486 5.21387 8.46777C5.23419 8.48755 5.25613 8.50434 5.27832 8.51953C5.25609 8.50433 5.23422 8.48759 5.21387 8.46777C5.19469 8.4486 5.17805 8.42818 5.16309 8.40723ZM10.7861 8.46777L10.8301 8.41699C10.8324 8.41396 10.8337 8.4103 10.8359 8.40723C10.8211 8.42801 10.8052 8.44874 10.7861 8.46777ZM5.12109 8.33398C5.12882 8.35123 5.13833 8.36754 5.14844 8.38379C5.13832 8.36755 5.12883 8.35123 5.12109 8.33398ZM10.8506 8.38379C10.8607 8.36752 10.8702 8.35126 10.8779 8.33398C10.8702 8.35126 10.8607 8.36752 10.8506 8.38379ZM5.1084 8.30273C5.10981 8.30673 5.11175 8.31051 5.11328 8.31445C5.10398 8.29052 5.09573 8.26602 5.09082 8.24023L5.1084 8.30273ZM10.917 8.15039L10.9121 8.08398C10.9117 8.08101 10.9106 8.07815 10.9102 8.0752C10.9141 8.09953 10.917 8.1245 10.917 8.15039ZM5.11133 7.99316C5.10502 8.00968 5.09989 8.02659 5.0957 8.04395C5.09986 8.02658 5.10505 8.00969 5.11133 7.99316ZM10.9033 8.04395C10.8991 8.02656 10.894 8.00971 10.8877 7.99316C10.894 8.00973 10.8991 8.02654 10.9033 8.04395ZM5.14453 7.92578C5.13546 7.94074 5.12718 7.95593 5.12012 7.97168C5.12716 7.95591 5.13547 7.94076 5.14453 7.92578ZM10.8789 7.97168C10.8718 7.95591 10.8636 7.94076 10.8545 7.92578C10.8636 7.94078 10.8718 7.95588 10.8789 7.97168ZM5.27832 7.78223C5.25596 7.79779 5.23431 7.81552 5.21387 7.83594L5.1875 7.86719C5.19606 7.85714 5.20425 7.84654 5.21387 7.83691C5.23437 7.81641 5.25592 7.79792 5.27832 7.78223ZM10.7861 7.83691C10.7956 7.84639 10.8031 7.85731 10.8115 7.86719L10.7861 7.83594C10.7667 7.81651 10.7457 7.80019 10.7246 7.78516C10.7457 7.80031 10.7666 7.8174 10.7861 7.83691ZM5.34766 7.74316C5.32808 7.75191 5.30936 7.76255 5.29102 7.77441C5.30933 7.76249 5.32811 7.75197 5.34766 7.74316ZM10.7031 7.77148C10.6875 7.76165 10.6718 7.75268 10.6553 7.74512C10.6717 7.75274 10.6875 7.76159 10.7031 7.77148ZM5.37793 7.73047C5.37337 7.73208 5.36875 7.73358 5.36426 7.73535C5.38837 7.72576 5.41354 7.71888 5.43945 7.71387L5.37793 7.73047ZM8.44434 5.67773L8.43945 5.61133C8.43904 5.60835 8.43797 5.60549 8.4375 5.60254C8.44148 5.62689 8.44431 5.65182 8.44434 5.67773ZM7.58789 5.51562C7.60911 5.46054 7.64206 5.40992 7.68652 5.36426C7.72887 5.32082 7.7761 5.2884 7.82812 5.2666L7.75293 5.30664C7.72921 5.32301 7.70679 5.34244 7.68555 5.36426L7.63086 5.43262C7.61336 5.45889 7.59895 5.48675 7.58789 5.51562ZM8.42969 5.56934C8.42581 5.55335 8.4217 5.53774 8.41602 5.52246C8.42176 5.53772 8.42575 5.55336 8.42969 5.56934ZM8.31348 5.36426C8.35524 5.40602 8.38641 5.4523 8.4082 5.50195C8.39784 5.47814 8.38612 5.4546 8.37109 5.43262L8.31445 5.36426C8.29596 5.34577 8.27594 5.33001 8.25586 5.31543C8.27574 5.32991 8.29512 5.34592 8.31348 5.36426ZM8.22852 5.29785C8.21285 5.28816 8.19721 5.27895 8.18066 5.27148C8.1972 5.27897 8.21286 5.28813 8.22852 5.29785ZM7.58789 5.51562C7.58124 5.533 7.57661 5.55102 7.57227 5.56934C7.57664 5.55103 7.5812 5.53299 7.58789 5.51562Z"
    fill="currentColor" />
  <path
    d="M7 2.65039H9C11.4853 2.65039 13.5 4.66511 13.5 7.15039V9.15039C13.5 11.6357 11.4853 13.6504 9 13.6504H3C2.72386 13.6504 2.5 13.4265 2.5 13.1504V7.15039C2.5 4.66511 4.51472 2.65039 7 2.65039Z"
    stroke="currentColor" />
</svg>