<svg width="18" height="13" viewBox="0 0 18 13" fill="none" xmlns="http://www.w3.org/2000/svg">
  <path
    d="M13.9043 12.3418L3.06445 1.50781C2.97461 1.42187 2.92969 1.3125 2.92969 1.17969C2.92969 1.04297 2.97461 0.933594 3.06445 0.851562C3.1543 0.757812 3.26562 0.710938 3.39844 0.710938C3.53125 0.710938 3.64258 0.757812 3.73242 0.851562L14.5605 11.6797C14.6543 11.7734 14.7012 11.8828 14.7012 12.0078C14.7012 12.1367 14.6543 12.248 14.5605 12.3418C14.4785 12.4316 14.3711 12.4766 14.2383 12.4766C14.1094 12.4766 13.998 12.4316 13.9043 12.3418ZM3.98438 8.90234C3.30469 8.90234 2.70117 8.75391 2.17383 8.45703C1.65039 8.16016 1.24023 7.75 0.943359 7.22656C0.646484 6.70312 0.498047 6.09766 0.498047 5.41016C0.498047 4.88281 0.589844 4.40234 0.773438 3.96875C0.957031 3.53516 1.21289 3.16406 1.54102 2.85547C1.87305 2.54687 2.26172 2.31836 2.70703 2.16992L3.60938 3.07227C3.22266 3.13086 2.88281 3.26758 2.58984 3.48242C2.30078 3.69336 2.07227 3.96484 1.9043 4.29688C1.74023 4.62891 1.6582 5 1.6582 5.41016C1.6582 5.88281 1.75977 6.29883 1.96289 6.6582C2.16602 7.01758 2.44727 7.29883 2.80664 7.50195C3.16602 7.70117 3.58008 7.80078 4.04883 7.80078H4.38867C4.36133 7.97266 4.35156 8.1543 4.35938 8.3457C4.36719 8.5332 4.38281 8.71875 4.40625 8.90234H3.98438ZM7.45898 8.90234C7.34961 8.76953 7.28125 8.60156 7.25391 8.39844C7.23047 8.19531 7.24219 8.02539 7.28906 7.88867H8.4375L9.45117 8.90234H7.45898ZM8.70117 11.6738C8.02148 11.6738 7.41992 11.5254 6.89648 11.2285C6.37305 10.9316 5.96094 10.5215 5.66016 9.99805C5.36328 9.47461 5.21484 8.86914 5.21484 8.18164C5.21484 7.66992 5.30273 7.20117 5.47852 6.77539C5.6543 6.3457 5.89844 5.98047 6.21094 5.67969L7.04883 6.50586C6.83789 6.70508 6.67383 6.94922 6.55664 7.23828C6.43945 7.52344 6.38086 7.83789 6.38086 8.18164C6.38086 8.65039 6.48242 9.06445 6.68555 9.42383C6.88867 9.7832 7.16992 10.0645 7.5293 10.2676C7.88867 10.4707 8.30078 10.5723 8.76562 10.5723H11.1211L12.2227 11.6738H8.70117ZM11.8066 7.90625L10.9805 7.08008C11.1797 6.87305 11.3359 6.62891 11.4492 6.34766C11.5625 6.0625 11.6191 5.75 11.6191 5.41016C11.6191 4.94531 11.5156 4.5332 11.3086 4.17383C11.1016 3.81445 10.8184 3.5332 10.459 3.33008C10.1035 3.12695 9.69336 3.02539 9.22852 3.02539H6.91992L5.82422 1.92383H9.29297C9.97266 1.92383 10.5742 2.07227 11.0977 2.36914C11.6211 2.66211 12.0312 3.07227 12.3281 3.59961C12.6289 4.12305 12.7793 4.72656 12.7793 5.41016C12.7793 5.92578 12.6934 6.39453 12.5215 6.81641C12.3496 7.23828 12.1113 7.60156 11.8066 7.90625ZM8.5957 4.69531H10.5352C10.6094 4.78906 10.6641 4.90234 10.6992 5.03516C10.7344 5.16797 10.748 5.30078 10.7402 5.43359C10.7363 5.5625 10.7148 5.67188 10.6758 5.76172H9.66211L8.5957 4.69531ZM15.3223 11.4277L14.4316 10.5254C14.8066 10.459 15.1367 10.3203 15.4219 10.1094C15.7109 9.89453 15.9355 9.62305 16.0957 9.29492C16.2559 8.96289 16.3359 8.5918 16.3359 8.18164C16.3359 7.71289 16.2324 7.29883 16.0254 6.93945C15.8223 6.58008 15.541 6.30078 15.1816 6.10156C14.8223 5.89844 14.4102 5.79688 13.9453 5.79688H13.6055C13.6328 5.625 13.6426 5.44336 13.6348 5.25195C13.627 5.06055 13.6094 4.875 13.582 4.69531H14.0098C14.6934 4.69531 15.2969 4.84375 15.8203 5.14062C16.3438 5.43359 16.7539 5.84375 17.0508 6.37109C17.3477 6.89453 17.4961 7.49805 17.4961 8.18164C17.4961 8.60352 17.4395 8.99023 17.3262 9.3418C17.2168 9.68945 17.0625 10 16.8633 10.2734C16.668 10.5469 16.4395 10.7812 16.1777 10.9766C15.916 11.168 15.6309 11.3184 15.3223 11.4277Z"
    fill="currentColor" />
</svg>