<svg width="13" height="13" viewBox="0 0 13 13" fill="none" xmlns="http://www.w3.org/2000/svg">
  <path
    d="M1.64258 6.76953C1.64258 7.02344 1.66016 7.27148 1.69531 7.51367C1.73438 7.75586 1.78906 7.99219 1.85938 8.22266L0.757812 8.68555C0.65625 8.38086 0.578125 8.06836 0.523438 7.74805C0.46875 7.42773 0.441406 7.10156 0.441406 6.76953C0.441406 6.4375 0.46875 6.11133 0.523438 5.79102C0.578125 5.4668 0.654297 5.1543 0.751953 4.85352L1.85938 5.31641C1.78906 5.54688 1.73438 5.7832 1.69531 6.02539C1.66016 6.26758 1.64258 6.51562 1.64258 6.76953ZM4.23828 2.45703C3.80078 2.6875 3.40625 2.98047 3.05469 3.33594C2.70312 3.6875 2.41406 4.08398 2.1875 4.52539L1.08594 4.06836C1.37891 3.48633 1.75586 2.96484 2.2168 2.50391C2.68164 2.03906 3.20508 1.6582 3.78711 1.36133L4.23828 2.45703ZM6.48828 1.91211C6.23828 1.91211 5.99023 1.93164 5.74414 1.9707C5.49805 2.00586 5.26172 2.06055 5.03516 2.13477L4.57227 1.0332C4.87305 0.927734 5.18359 0.849609 5.50391 0.798828C5.82812 0.744141 6.15625 0.716797 6.48828 0.716797C6.82422 0.716797 7.15234 0.744141 7.47266 0.798828C7.79297 0.849609 8.10352 0.927734 8.4043 1.0332L7.95312 2.13477C7.72266 2.06055 7.48438 2.00586 7.23828 1.9707C6.99219 1.93164 6.74219 1.91211 6.48828 1.91211ZM10.8066 4.51953C10.5762 4.07422 10.2832 3.67578 9.92773 3.32422C9.57617 2.97266 9.17969 2.68359 8.73828 2.45703L9.19531 1.36133C9.77344 1.6543 10.2949 2.0332 10.7598 2.49805C11.2246 2.96289 11.6055 3.48633 11.9023 4.06836L10.8066 4.51953ZM11.3516 6.76953C11.3516 6.51562 11.332 6.26758 11.293 6.02539C11.2578 5.7793 11.2031 5.54102 11.1289 5.31055L12.2305 4.84766C12.3359 5.15234 12.416 5.4668 12.4707 5.79102C12.5254 6.11133 12.5527 6.4375 12.5527 6.76953C12.5527 7.10156 12.5254 7.42969 12.4707 7.75391C12.416 8.07422 12.3359 8.38672 12.2305 8.69141L11.1348 8.22266C11.2051 7.99609 11.2578 7.76172 11.293 7.51953C11.332 7.27344 11.3516 7.02344 11.3516 6.76953ZM8.73828 11.0762C9.17969 10.8535 9.57812 10.5664 9.93359 10.2148C10.2891 9.85938 10.582 9.46094 10.8125 9.01953L11.8965 9.4707C11.6035 10.0527 11.2246 10.5762 10.7598 11.041C10.2988 11.5059 9.77734 11.8848 9.19531 12.1777L8.73828 11.0762ZM6.49414 11.627C6.74805 11.627 6.99609 11.6074 7.23828 11.5684C7.48047 11.5332 7.7168 11.4805 7.94727 11.4102L8.4043 12.5117C8.10352 12.6133 7.79297 12.6895 7.47266 12.7402C7.15234 12.7949 6.82617 12.8223 6.49414 12.8223C6.16211 12.8223 5.83398 12.7949 5.50977 12.7402C5.18945 12.6855 4.87891 12.6074 4.57812 12.5059L5.03516 11.4043C5.26172 11.4785 5.49805 11.5332 5.74414 11.5684C5.99023 11.6074 6.24023 11.627 6.49414 11.627ZM2.1875 9.01953C2.41406 9.46094 2.70312 9.85742 3.05469 10.209C3.40625 10.5605 3.80078 10.8496 4.23828 11.0762L3.78711 12.1719C3.20898 11.8789 2.6875 11.5 2.22266 11.0352C1.76172 10.5742 1.38477 10.0527 1.0918 9.4707L2.1875 9.01953ZM3.78711 6.77539C3.78711 6.61133 3.83789 6.47852 3.93945 6.37695C4.04102 6.27148 4.17578 6.21875 4.34375 6.21875H5.94922V4.61328C5.94922 4.45312 6 4.32227 6.10156 4.2207C6.20312 4.11523 6.33203 4.0625 6.48828 4.0625C6.65234 4.0625 6.78516 4.11328 6.88672 4.21484C6.99219 4.31641 7.04492 4.44922 7.04492 4.61328V6.21875H8.65039C8.81445 6.21875 8.94727 6.27148 9.04883 6.37695C9.15039 6.47852 9.20117 6.61133 9.20117 6.77539C9.20117 6.93164 9.15039 7.06055 9.04883 7.16211C8.94727 7.26367 8.81445 7.31445 8.65039 7.31445H7.04492V8.92578C7.04492 9.08594 6.99219 9.21875 6.88672 9.32422C6.78516 9.42578 6.65234 9.47656 6.48828 9.47656C6.33203 9.47656 6.20312 9.42578 6.10156 9.32422C6 9.21875 5.94922 9.08594 5.94922 8.92578V7.31445H4.34375C4.17969 7.31445 4.04492 7.26367 3.93945 7.16211C3.83789 7.06055 3.78711 6.93164 3.78711 6.77539Z"
    fill="currentColor" />
</svg>