<svg width="24" height="24" viewBox="0 0 24 24" fill="none" xmlns="http://www.w3.org/2000/svg">
  <rect width="24" height="24" rx="4" fill="#F5F6F7" />
  <rect x="0.5" y="0.5" width="23" height="23" rx="3.5" stroke="black" stroke-opacity="0.12" />
  <path
    d="M6.19336 11.1445C6.19336 10.543 6.30615 9.979 6.53174 9.45264C6.7609 8.92269 7.07601 8.45719 7.47705 8.05615C7.87809 7.65153 8.3418 7.33643 8.86816 7.11084C9.39811 6.88525 9.96387 6.77246 10.5654 6.77246C11.1706 6.77246 11.7363 6.88525 12.2627 7.11084C12.7926 7.33643 13.2581 7.65153 13.6592 8.05615C14.0602 8.45719 14.3735 8.92269 14.5991 9.45264C14.8283 9.979 14.9429 10.543 14.9429 11.1445C14.9429 11.6172 14.8695 12.0666 14.7227 12.4927C14.5794 12.9188 14.3807 13.3073 14.1265 13.6582L16.5757 16.1182C16.6509 16.1898 16.7064 16.2739 16.7422 16.3706C16.7816 16.4673 16.8013 16.5693 16.8013 16.6768C16.8013 16.8271 16.7673 16.9632 16.6992 17.085C16.6312 17.2067 16.5381 17.3016 16.4199 17.3696C16.3018 17.4412 16.1657 17.4771 16.0117 17.4771C15.9043 17.4771 15.8005 17.4574 15.7002 17.418C15.6035 17.3822 15.5158 17.3249 15.437 17.2461L12.9717 14.7808C12.6279 15.0099 12.252 15.1908 11.8438 15.3232C11.4391 15.4521 11.013 15.5166 10.5654 15.5166C9.96387 15.5166 9.39811 15.4038 8.86816 15.1782C8.3418 14.9526 7.87809 14.6393 7.47705 14.2383C7.07601 13.8372 6.7609 13.3735 6.53174 12.8472C6.30615 12.3172 6.19336 11.7497 6.19336 11.1445ZM7.31592 11.1445C7.31592 11.5957 7.39827 12.0182 7.56299 12.4121C7.73128 12.8024 7.96403 13.1462 8.26123 13.4434C8.56201 13.7406 8.90934 13.9751 9.30322 14.147C9.6971 14.3153 10.1178 14.3994 10.5654 14.3994C11.0166 14.3994 11.4373 14.3153 11.8276 14.147C12.2215 13.9751 12.5671 13.7406 12.8643 13.4434C13.1615 13.1462 13.3942 12.8024 13.5625 12.4121C13.7344 12.0182 13.8203 11.5957 13.8203 11.1445C13.8203 10.6969 13.7344 10.2762 13.5625 9.88232C13.3942 9.48844 13.1615 9.1429 12.8643 8.8457C12.5671 8.54492 12.2215 8.31217 11.8276 8.14746C11.4373 7.97917 11.0166 7.89502 10.5654 7.89502C10.1178 7.89502 9.6971 7.97917 9.30322 8.14746C8.90934 8.31217 8.56201 8.54492 8.26123 8.8457C7.96403 9.1429 7.73128 9.48844 7.56299 9.88232C7.39827 10.2762 7.31592 10.6969 7.31592 11.1445ZM8.72852 10.9297V9.67285C8.72852 9.55827 8.75716 9.46875 8.81445 9.4043C8.87174 9.33984 8.94873 9.30762 9.04541 9.30762H10.3721C10.5225 9.30762 10.6138 9.36849 10.646 9.49023C10.6782 9.61198 10.6514 9.71761 10.5654 9.80713L10.1465 10.2153L11.4839 11.5635L11.8921 11.1606C11.978 11.0783 12.0819 11.0532 12.2036 11.0854C12.3254 11.1141 12.3862 11.2036 12.3862 11.354V12.6108C12.3862 12.7254 12.3576 12.8132 12.3003 12.874C12.243 12.9349 12.166 12.9653 12.0693 12.9653H10.7427C10.5923 12.9653 10.4992 12.9062 10.4634 12.7881C10.4312 12.6663 10.4598 12.5625 10.5493 12.4766L10.9736 12.063L9.62549 10.7202L9.22266 11.1177C9.13672 11.2036 9.03288 11.2305 8.91113 11.1982C8.78939 11.166 8.72852 11.0765 8.72852 10.9297Z"
    fill="#676E74" />
</svg>