<svg width="24" height="24" viewBox="0 0 24 24" fill="none" xmlns="http://www.w3.org/2000/svg">
  <rect width="24" height="24" rx="4" fill="#F5F6F7" />
  <rect x="0.5" y="0.5" width="23" height="23" rx="3.5" stroke="black" stroke-opacity="0.12" />
  <path
    d="M5.19727 16.2461V11.2598C5.19727 10.8496 5.31836 10.5293 5.56055 10.2988C5.80664 10.0684 6.14453 9.95312 6.57422 9.95312H7.86914V7.33398C7.86914 6.70508 8.03125 6.23047 8.35547 5.91016C8.68359 5.58984 9.16406 5.42969 9.79688 5.42969H16.875C17.5078 5.42969 17.9863 5.58984 18.3105 5.91016C18.6348 6.23047 18.7969 6.70508 18.7969 7.33398V16.2109C18.7969 16.8359 18.6348 17.3086 18.3105 17.6289C17.9863 17.9531 17.5078 18.1152 16.875 18.1152H7.11328C6.48828 18.1152 6.01172 17.9551 5.68359 17.6348C5.35938 17.3145 5.19727 16.8516 5.19727 16.2461ZM6.35156 16.1875C6.35156 16.4102 6.42383 16.5938 6.56836 16.7383C6.71289 16.8867 6.89453 16.9609 7.11328 16.9609C7.32812 16.9609 7.50781 16.8887 7.65234 16.7441C7.79688 16.5996 7.86914 16.4141 7.86914 16.1875V11.1016H6.7207C6.60352 11.1016 6.51172 11.1348 6.44531 11.2012C6.38281 11.2676 6.35156 11.3574 6.35156 11.4707V16.1875ZM8.85352 16.9609H16.7988C17.0762 16.9609 17.2871 16.8887 17.4316 16.7441C17.5762 16.6035 17.6484 16.3926 17.6484 16.1113V7.43359C17.6484 7.15234 17.5762 6.93945 17.4316 6.79492C17.2871 6.65039 17.0762 6.57812 16.7988 6.57812H9.86719C9.59375 6.57812 9.38477 6.65039 9.24023 6.79492C9.0957 6.93945 9.02344 7.15234 9.02344 7.43359V16.1992C9.02344 16.4844 8.9668 16.7383 8.85352 16.9609ZM10.5117 9.08008C10.3984 9.08008 10.3027 9.04102 10.2246 8.96289C10.1504 8.88477 10.1133 8.79102 10.1133 8.68164C10.1133 8.57617 10.1504 8.48633 10.2246 8.41211C10.3027 8.33789 10.3984 8.30078 10.5117 8.30078H16.166C16.2754 8.30078 16.3672 8.33789 16.4414 8.41211C16.5195 8.48633 16.5586 8.57617 16.5586 8.68164C16.5586 8.79102 16.5195 8.88477 16.4414 8.96289C16.3672 9.04102 16.2754 9.08008 16.166 9.08008H10.5117ZM10.5117 11.1016C10.3984 11.1016 10.3027 11.0664 10.2246 10.9961C10.1504 10.9219 10.1133 10.8281 10.1133 10.7148C10.1133 10.6055 10.1504 10.5137 10.2246 10.4395C10.3027 10.3613 10.3984 10.3223 10.5117 10.3223H16.166C16.2754 10.3223 16.3672 10.3613 16.4414 10.4395C16.5195 10.5137 16.5586 10.6055 16.5586 10.7148C16.5586 10.8281 16.5195 10.9219 16.4414 10.9961C16.3672 11.0664 16.2754 11.1016 16.166 11.1016H10.5117ZM10.8457 15.1797C10.6152 15.1797 10.4336 15.1152 10.3008 14.9863C10.1719 14.8535 10.1074 14.6738 10.1074 14.4473V13.0879C10.1074 12.8574 10.1719 12.6777 10.3008 12.5488C10.4336 12.4199 10.6152 12.3555 10.8457 12.3555H12.3047C12.5312 12.3555 12.709 12.4199 12.8379 12.5488C12.9707 12.6777 13.0371 12.8574 13.0371 13.0879V14.4473C13.0371 14.6738 12.9707 14.8535 12.8379 14.9863C12.709 15.1152 12.5312 15.1797 12.3047 15.1797H10.8457ZM14.0742 13.1348C13.9609 13.1348 13.8672 13.0977 13.793 13.0234C13.7188 12.9492 13.6816 12.8594 13.6816 12.7539C13.6816 12.6367 13.7188 12.541 13.793 12.4668C13.8672 12.3926 13.9609 12.3555 14.0742 12.3555H16.1602C16.2734 12.3555 16.3672 12.3926 16.4414 12.4668C16.5156 12.541 16.5527 12.6367 16.5527 12.7539C16.5527 12.8594 16.5156 12.9492 16.4414 13.0234C16.3672 13.0977 16.2734 13.1348 16.1602 13.1348H14.0742ZM14.0742 15.1797C13.9609 15.1797 13.8672 15.1426 13.793 15.0684C13.7188 14.9941 13.6816 14.9043 13.6816 14.7988C13.6816 14.6855 13.7188 14.5918 13.793 14.5176C13.8672 14.4395 13.9609 14.4004 14.0742 14.4004H16.1602C16.2734 14.4004 16.3672 14.4395 16.4414 14.5176C16.5156 14.5918 16.5527 14.6855 16.5527 14.7988C16.5527 14.9043 16.5156 14.9941 16.4414 15.0684C16.3672 15.1426 16.2734 15.1797 16.1602 15.1797H14.0742Z"
    fill="#596066" />
</svg>