<svg width="17" height="16" viewBox="0 0 17 16" fill="none" xmlns="http://www.w3.org/2000/svg">
  <path
    d="M12.5311 15.3996C12.4365 15.3996 12.3576 15.3708 12.2945 15.3132C12.2333 15.2557 12.2027 15.1824 12.2027 15.0934V14.0936H12.122C11.7639 14.0936 11.4467 14.1268 11.1702 14.1931C10.8938 14.2594 10.6498 14.3737 10.4383 14.5359C10.2268 14.6964 10.0404 14.9198 9.87894 15.2059C9.8307 15.2897 9.77597 15.3429 9.71475 15.3656C9.65538 15.3883 9.59601 15.3996 9.53664 15.3996C9.46243 15.3996 9.39564 15.3691 9.33627 15.308C9.27876 15.2487 9.25 15.1623 9.25 15.0489C9.25 14.5656 9.30566 14.1311 9.41698 13.7455C9.53015 13.3582 9.70269 13.0275 9.9346 12.7536C10.1684 12.4797 10.4661 12.2703 10.8279 12.1255C11.1916 11.9806 11.6229 11.9082 12.122 11.9082H12.2027V10.9189C12.2027 10.8317 12.2333 10.7566 12.2945 10.6938C12.3576 10.631 12.4383 10.5996 12.5366 10.5996C12.6034 10.5996 12.6637 10.6144 12.7175 10.6441C12.7732 10.672 12.8381 10.7191 12.9123 10.7854L15.1081 12.7169C15.1619 12.7641 15.199 12.812 15.2194 12.8609C15.2398 12.9098 15.25 12.956 15.25 12.9996C15.25 13.0415 15.2398 13.0869 15.2194 13.1357C15.199 13.1846 15.1619 13.2325 15.1081 13.2797L12.9123 15.2295C12.8455 15.2888 12.7815 15.3316 12.7203 15.3577C12.6609 15.3857 12.5979 15.3996 12.5311 15.3996Z"
    fill="currentColor" />
  <path
    d="M5.87242 1.02773C6.02889 0.982745 6.19034 0.993382 6.34152 1.05317C6.46854 1.10348 6.58358 1.18623 6.68767 1.29571C6.86111 1.47683 7.00756 1.73623 7.11928 2.04333C7.2316 2.35227 7.30439 2.69477 7.33203 3.03803C7.70229 2.82725 8.11325 2.69833 8.53704 2.66104L8.56756 2.65922C9.07925 2.61782 9.58517 2.70999 10.0263 2.93901C10.0856 2.97034 10.1437 3.00439 10.2007 3.03985C10.2301 2.70313 10.302 2.36876 10.4126 2.06695C10.5243 1.75914 10.6712 1.50014 10.8442 1.31842C10.9408 1.21334 11.0588 1.13051 11.1903 1.07588C11.3415 1.01668 11.5021 1.00636 11.6586 1.05135C11.8944 1.11881 12.0964 1.26907 12.2558 1.48738C12.4017 1.68686 12.5116 1.94292 12.5863 2.24953C12.7215 2.80235 12.7455 3.52994 12.6543 4.40699L12.6848 4.43061L12.7005 4.44151C13.1457 4.78237 13.4554 5.26838 13.6195 5.83228C13.8754 6.71241 13.7467 7.69997 13.3056 8.25227L13.2952 8.26498L13.296 8.2668C13.5413 8.71785 13.6906 9.19447 13.7224 9.68754L13.7233 9.7048C13.736 9.91712 13.7244 10.1298 13.6928 10.3425L13.5315 10.1944C13.4394 10.1092 13.3152 10.0081 13.1661 9.92464L13.167 9.92282C13.1621 9.92003 13.1562 9.91919 13.1513 9.91646C13.1441 9.91252 13.1377 9.90667 13.1304 9.90283L13.1286 9.90556C13.0727 9.87569 13.0156 9.85162 12.9586 9.83016C12.9579 9.80382 12.9593 9.77742 12.9577 9.75113C12.9307 9.29002 12.7663 8.83639 12.4869 8.40488C12.4327 8.32111 12.4131 8.21941 12.4328 8.12146C12.4526 8.0234 12.5099 7.93663 12.5924 7.88073L12.5976 7.87709C12.7406 7.78298 12.8729 7.54248 12.9394 7.21396C13.0127 6.82562 12.9936 6.42521 12.8836 6.04575C12.763 5.6314 12.542 5.28541 12.2332 5.04923C11.8833 4.7807 11.4198 4.6514 10.8337 4.6886C10.757 4.69362 10.6803 4.67506 10.614 4.63591C10.5477 4.59676 10.4944 4.53857 10.4614 4.46876C10.2767 4.07522 10.0073 3.79309 9.67142 3.6185C9.3491 3.45668 8.98814 3.38886 8.62946 3.42228C7.89711 3.48088 7.2506 3.89676 7.05824 4.42062C7.03101 4.49421 6.9819 4.55741 6.91786 4.6023C6.8538 4.64718 6.77794 4.67208 6.69988 4.67225C6.07223 4.67343 5.58597 4.82134 5.23068 5.0883C4.92376 5.31914 4.71432 5.64207 4.60376 6.02849C4.50383 6.39205 4.49001 6.77416 4.56365 7.14401C4.62952 7.47423 4.75871 7.74785 4.90632 7.89526L4.91068 7.8998C5.03528 8.02223 5.062 8.21312 4.9752 8.364C4.76348 8.7321 4.60528 9.28106 4.57934 9.80836C4.54993 10.4109 4.6887 10.9347 5.00223 11.31L5.01182 11.3209C5.05912 11.3763 5.08911 11.4446 5.09901 11.5171C5.10892 11.5895 5.09827 11.6634 5.06762 11.7296C4.7288 12.4613 4.62481 13.0629 4.73716 13.5364C4.7572 13.6347 4.73841 13.7371 4.68485 13.8217C4.63107 13.9064 4.54583 13.9668 4.44855 13.9897C4.35137 14.0126 4.24899 13.997 4.16343 13.9452C4.07781 13.8934 4.0154 13.8099 3.98992 13.7127C3.84698 13.1101 3.94482 12.4193 4.26894 11.6415L4.27678 11.6215L4.27242 11.6143C4.11314 11.3775 3.99374 11.1155 3.92016 10.8394L3.91755 10.8276C3.82833 10.4831 3.79262 10.1265 3.81292 9.77112C3.83883 9.23266 3.97688 8.68128 4.17913 8.23864L4.1861 8.2232L4.18523 8.22138C4.01298 7.97405 3.88525 7.65774 3.81466 7.30753L3.81117 7.29299C3.71394 6.80423 3.73289 6.29875 3.8661 5.81865C4.02023 5.27729 4.32318 4.81216 4.76942 4.47603C4.80472 4.44939 4.84223 4.42277 4.87929 4.39791C4.78578 3.51441 4.8089 2.78227 4.94468 2.22592C5.01939 1.9193 5.13013 1.66325 5.27602 1.46377C5.43475 1.24611 5.63673 1.09583 5.87242 1.02773ZM8.76287 6.43364C9.3134 6.43368 9.82159 6.61883 10.2016 6.93962C10.5721 7.25154 10.7927 7.67058 10.7927 8.08784C10.7927 8.61342 10.5541 9.02348 10.1266 9.28512C9.76186 9.50709 9.2723 9.61487 8.7123 9.61487C8.11898 9.6148 7.61238 9.46081 7.24658 9.17975C6.88364 8.90154 6.67983 8.51107 6.67983 8.08784C6.67987 7.66944 6.9137 7.24908 7.30064 6.93599C7.69358 6.61812 8.21287 6.43364 8.76287 6.43364ZM8.76287 6.96415C8.35477 6.96056 7.95715 7.09569 7.63546 7.3484C7.36428 7.56742 7.21083 7.8431 7.21083 8.08875C7.21089 8.34203 7.33483 8.57957 7.57007 8.76006C7.83763 8.96526 8.2309 9.0843 8.7123 9.08436C9.1823 9.08436 9.57929 8.99698 9.84929 8.83183C10.1215 8.66609 10.2608 8.42577 10.2608 8.08784C10.2608 7.83749 10.1159 7.56138 9.85889 7.34477C9.57422 7.1051 9.18866 6.96419 8.76287 6.96415ZM9.01398 7.60639C9.0677 7.61202 9.11711 7.63829 9.15175 7.67997L9.15437 7.6827C9.2249 7.77208 9.21003 7.90146 9.12123 7.97248L8.94946 8.10874V8.37308C8.94905 8.43166 8.92625 8.48804 8.88494 8.52933C8.84354 8.57065 8.78717 8.59391 8.72886 8.59383C8.67055 8.59398 8.61423 8.5706 8.57279 8.52933C8.53142 8.48803 8.50781 8.43171 8.50739 8.37308V8.10056L8.34783 7.97157C8.32682 7.95462 8.30931 7.93357 8.29639 7.9098C8.28345 7.88601 8.27569 7.85955 8.27284 7.83258C8.27003 7.80572 8.27219 7.77854 8.27982 7.75264C8.2875 7.72665 8.30029 7.7019 8.31731 7.68088C8.35203 7.63846 8.4025 7.61203 8.45682 7.60639C8.51101 7.60083 8.56516 7.61663 8.60767 7.6509L8.73409 7.75264L8.86401 7.64999C8.90646 7.61628 8.9602 7.60078 9.01398 7.60639ZM6.18718 6.54447C6.46828 6.54447 6.69713 6.77493 6.69726 7.05953C6.69742 7.19598 6.64386 7.32714 6.54816 7.4238C6.45252 7.52038 6.32268 7.57509 6.18718 7.5755C6.05177 7.57504 5.9218 7.52031 5.82621 7.4238C5.73063 7.32729 5.67712 7.19669 5.6771 7.06044C5.67679 6.92406 5.72983 6.79293 5.82533 6.69617C5.92091 6.59944 6.05163 6.54499 6.18718 6.54447ZM11.3089 6.54447C11.591 6.54463 11.8188 6.77503 11.819 7.05953C11.8191 7.196 11.7656 7.32713 11.6699 7.4238C11.5742 7.5204 11.4444 7.57511 11.3089 7.5755C11.1735 7.57503 11.0435 7.52033 10.9479 7.4238C10.8524 7.32729 10.7988 7.19669 10.7988 7.06044C10.7985 6.92407 10.8516 6.79293 10.9471 6.69617C11.0427 6.59939 11.1733 6.54494 11.3089 6.54447ZM6.06599 1.7699C5.99786 1.79972 5.93987 1.84947 5.89858 1.91161L5.89596 1.91433C5.81478 2.02621 5.744 2.19154 5.69106 2.4076C5.59114 2.81711 5.56375 3.37265 5.61781 4.05362C5.87066 3.97789 6.1466 3.93091 6.44353 3.91373L6.44964 3.91282L6.46097 3.89284C6.48801 3.84434 6.51701 3.79726 6.54816 3.75113C6.62042 3.29485 6.56076 2.74994 6.39906 2.30495C6.32029 2.08962 6.22484 1.92001 6.13312 1.82349C6.11418 1.80343 6.09236 1.78524 6.06947 1.7699L6.06773 1.76899L6.06599 1.7699ZM11.4632 1.79352C11.4404 1.80885 11.4194 1.82708 11.4005 1.84711C11.3087 1.94363 11.2118 2.11324 11.1336 2.32857C10.9631 2.79853 10.9062 3.37992 10.9985 3.85105L11.0325 3.90828L11.0377 3.91646H11.0552C11.3471 3.91654 11.6375 3.95867 11.9175 4.04182C11.9681 3.37685 11.9401 2.83303 11.8425 2.43122C11.7896 2.21532 11.7184 2.05073 11.6368 1.93886L11.6341 1.93523C11.5929 1.87285 11.5349 1.8235 11.4667 1.79352L11.4641 1.79261L11.4632 1.79352Z"
    fill="currentColor" />
</svg>