<svg width="11" height="10" viewBox="0 0 11 10" fill="none" xmlns="http://www.w3.org/2000/svg">
  <path
    d="M5.75684 9.47754C5.59082 9.47754 5.45247 9.42383 5.3418 9.31641C5.23438 9.20898 5.18066 9.07227 5.18066 8.90625V7.04102H5.03906C4.41081 7.04102 3.85417 7.10286 3.36914 7.22656C2.88411 7.35026 2.45605 7.56348 2.08496 7.86621C1.71387 8.16569 1.38672 8.58236 1.10352 9.11621C1.01888 9.27246 0.922852 9.37175 0.81543 9.41406C0.711263 9.45638 0.607096 9.47754 0.50293 9.47754C0.372721 9.47754 0.255534 9.42057 0.151367 9.30664C0.0504557 9.19596 0 9.03483 0 8.82324C0 7.92155 0.0976562 7.111 0.292969 6.3916C0.491536 5.66895 0.794271 5.05208 1.20117 4.54102C1.61133 4.02995 2.13379 3.63932 2.76855 3.36914C3.40658 3.09896 4.16341 2.96387 5.03906 2.96387H5.18066V1.11816C5.18066 0.955404 5.23438 0.81543 5.3418 0.698242C5.45247 0.581055 5.59408 0.522461 5.7666 0.522461C5.88379 0.522461 5.98958 0.55013 6.08398 0.605469C6.18164 0.657552 6.29557 0.745443 6.42578 0.869141L10.2783 4.47266C10.3727 4.56055 10.4378 4.65006 10.4736 4.74121C10.5094 4.83236 10.5273 4.91862 10.5273 5C10.5273 5.07812 10.5094 5.16276 10.4736 5.25391C10.4378 5.34505 10.3727 5.43457 10.2783 5.52246L6.42578 9.16016C6.30859 9.27083 6.19629 9.35059 6.08887 9.39941C5.9847 9.4515 5.87402 9.47754 5.75684 9.47754ZM6.03516 8.42773C6.06445 8.42773 6.09212 8.41309 6.11816 8.38379L9.59961 5.09277C9.61914 5.07324 9.63216 5.05697 9.63867 5.04395C9.64518 5.02767 9.64844 5.01302 9.64844 5C9.64844 4.9707 9.63216 4.93978 9.59961 4.90723L6.12305 1.57227C6.11003 1.5625 6.09538 1.55436 6.0791 1.54785C6.06608 1.53809 6.05306 1.5332 6.04004 1.5332C5.99121 1.5332 5.9668 1.55599 5.9668 1.60156V3.54004C5.9668 3.64746 5.91309 3.70117 5.80566 3.70117H5.15137C4.48079 3.70117 3.89974 3.78743 3.4082 3.95996C2.91667 4.12923 2.50163 4.36523 2.16309 4.66797C1.82454 4.96745 1.54948 5.31413 1.33789 5.70801C1.12956 6.10189 0.974935 6.52344 0.874023 6.97266C0.773112 7.41862 0.712891 7.87109 0.693359 8.33008C0.693359 8.36589 0.704753 8.38379 0.727539 8.38379C0.74056 8.38379 0.750326 8.38053 0.756836 8.37402C0.763346 8.36426 0.769857 8.35124 0.776367 8.33496C1.06283 7.72298 1.57389 7.23145 2.30957 6.86035C3.04525 6.48926 3.99251 6.30371 5.15137 6.30371H5.80566C5.91309 6.30371 5.9668 6.35742 5.9668 6.46484V8.35449C5.9668 8.40332 5.98958 8.42773 6.03516 8.42773Z"
    fill="currentColor" />
</svg>