<svg width="14" height="14" viewBox="0 0 14 14" fill="none" xmlns="http://www.w3.org/2000/svg">
  <path
    d="M8.04016 13.3148C7.75305 13.3148 7.54171 13.2131 7.40613 13.0098C7.27055 12.8104 7.1569 12.5572 7.06519 12.2501L6.14404 9.21155C6.08423 9.0002 6.0623 8.82275 6.07825 8.6792C6.09819 8.53564 6.17196 8.39608 6.29956 8.2605L12.4485 1.58521C12.4884 1.54533 12.5083 1.50346 12.5083 1.45959C12.5083 1.41174 12.4924 1.37187 12.4604 1.33997C12.4246 1.30806 12.3827 1.29211 12.3348 1.29211C12.291 1.29211 12.2491 1.31006 12.2092 1.34595L5.55188 7.5188C5.40434 7.65438 5.26078 7.73014 5.12122 7.74609C4.98165 7.75806 4.80819 7.73214 4.60083 7.66833L1.49646 6.71729C1.20536 6.62956 0.964111 6.5199 0.772705 6.38831C0.581299 6.25273 0.485596 6.04338 0.485596 5.76025C0.485596 5.52897 0.57133 5.33158 0.742798 5.16809C0.918254 5.0046 1.13558 4.87301 1.39478 4.77332L11.7487 0.807617C11.8842 0.759766 12.0118 0.721883 12.1315 0.69397C12.2511 0.662069 12.3608 0.646118 12.4604 0.646118C12.6718 0.646118 12.8393 0.70992 12.9629 0.837524C13.0865 0.961141 13.1483 1.12862 13.1483 1.33997C13.1483 1.44364 13.1344 1.5533 13.1064 1.66895C13.0785 1.78459 13.0387 1.9102 12.9868 2.04578L9.04504 12.3638C8.93339 12.6509 8.79582 12.8802 8.63232 13.0516C8.46883 13.2271 8.27144 13.3148 8.04016 13.3148Z"
    fill="currentColor" />
</svg>