<svg width="12" height="12" viewBox="0 0 12 12" fill="none" xmlns="http://www.w3.org/2000/svg">
  <path
    d="M2.91064 9.91748C2.56494 9.91748 2.29541 9.81934 2.10205 9.62305C1.90869 9.42969 1.81201 9.15723 1.81201 8.80566V2.16553C1.81201 1.81689 1.90869 1.5459 2.10205 1.35254C2.29541 1.15625 2.56494 1.05811 2.91064 1.05811H4.51025C4.85596 1.05811 5.12402 1.15625 5.31445 1.35254C5.50781 1.5459 5.60449 1.81689 5.60449 2.16553V8.80566C5.60449 9.15723 5.50781 9.42969 5.31445 9.62305C5.12402 9.81934 4.85596 9.91748 4.51025 9.91748H2.91064ZM3.05127 8.99463H4.36523C4.46777 8.99463 4.54541 8.96826 4.59814 8.91553C4.65381 8.85986 4.68164 8.78369 4.68164 8.68701V2.28857C4.68164 2.18896 4.65381 2.11279 4.59814 2.06006C4.54541 2.00439 4.46777 1.97656 4.36523 1.97656H3.05127C2.95166 1.97656 2.87402 2.00439 2.81836 2.06006C2.7627 2.11279 2.73486 2.18896 2.73486 2.28857V8.68701C2.73486 8.78369 2.7627 8.85986 2.81836 8.91553C2.87402 8.96826 2.95166 8.99463 3.05127 8.99463ZM7.49854 9.91748C7.15283 9.91748 6.8833 9.81934 6.68994 9.62305C6.49658 9.42969 6.3999 9.15723 6.3999 8.80566V5.18896C6.3999 4.84033 6.49658 4.56787 6.68994 4.37158C6.8833 4.17529 7.15283 4.07715 7.49854 4.07715H9.10254C9.44531 4.07715 9.71338 4.17529 9.90674 4.37158C10.1001 4.56787 10.1968 4.84033 10.1968 5.18896V8.80566C10.1968 9.15723 10.1001 9.42969 9.90674 9.62305C9.71338 9.81934 9.44531 9.91748 9.10254 9.91748H7.49854ZM7.63916 8.99463H8.95312C9.05566 8.99463 9.13477 8.96826 9.19043 8.91553C9.24609 8.85986 9.27393 8.78369 9.27393 8.68701V5.31201C9.27393 5.2124 9.24609 5.13623 9.19043 5.0835C9.13477 5.02783 9.05566 5 8.95312 5H7.63916C7.53955 5 7.46191 5.02783 7.40625 5.0835C7.35059 5.13623 7.32275 5.2124 7.32275 5.31201V8.68701C7.32275 8.78369 7.35059 8.85986 7.40625 8.91553C7.46191 8.96826 7.53955 8.99463 7.63916 8.99463ZM1.10449 11.605C0.981445 11.605 0.875977 11.5596 0.788086 11.4688C0.703125 11.3779 0.660645 11.271 0.660645 11.1479C0.660645 11.0249 0.703125 10.918 0.788086 10.8271C0.875977 10.7393 0.981445 10.6953 1.10449 10.6953H10.8955C11.0156 10.6953 11.1182 10.7393 11.2031 10.8271C11.291 10.918 11.335 11.0249 11.335 11.1479C11.335 11.271 11.291 11.3779 11.2031 11.4688C11.1182 11.5596 11.0156 11.605 10.8955 11.605H1.10449Z"
    fill="currentColor" />
</svg>