<svg width="16" height="16" viewBox="0 0 16 16" fill="none" xmlns="http://www.w3.org/2000/svg">
  <path
    d="M5.89648 14.373C5.63867 14.373 5.43555 14.2891 5.28711 14.1211C5.14258 13.9531 5.07031 13.7285 5.07031 13.4473V12.0586H4.73047C4.17578 12.0586 3.69336 11.9473 3.2832 11.7246C2.87305 11.502 2.55469 11.1816 2.32812 10.7637C2.10547 10.3457 1.99414 9.84375 1.99414 9.25781V4.66992C1.99414 4.08398 2.10352 3.58203 2.32227 3.16406C2.54492 2.74609 2.86523 2.42578 3.2832 2.20312C3.70117 1.97656 4.20508 1.86328 4.79492 1.86328H12.4766C13.0703 1.86328 13.5742 1.97656 13.9883 2.20312C14.4062 2.42578 14.7246 2.74609 14.9434 3.16406C15.166 3.58203 15.2773 4.08398 15.2773 4.66992V9.25781C15.2773 9.84375 15.166 10.3457 14.9434 10.7637C14.7246 11.1816 14.4062 11.502 13.9883 11.7246C13.5742 11.9473 13.0703 12.0586 12.4766 12.0586H8.96094L6.96875 13.8164C6.75 14.0078 6.56055 14.1484 6.40039 14.2383C6.24414 14.3281 6.07617 14.373 5.89648 14.373ZM6.21289 12.9141L8.06445 11.0918C8.19336 10.959 8.31445 10.8711 8.42773 10.8281C8.54102 10.7812 8.69141 10.7578 8.87891 10.7578H12.418C12.9414 10.7578 13.332 10.627 13.5898 10.3652C13.8477 10.1035 13.9766 9.71484 13.9766 9.19922V4.72266C13.9766 4.21094 13.8477 3.82422 13.5898 3.5625C13.332 3.30078 12.9414 3.16992 12.418 3.16992H4.85352C4.32617 3.16992 3.93359 3.30078 3.67578 3.5625C3.42188 3.82422 3.29492 4.21094 3.29492 4.72266V9.19922C3.29492 9.71484 3.42188 10.1035 3.67578 10.3652C3.93359 10.627 4.32617 10.7578 4.85352 10.7578H5.70898C5.88086 10.7578 6.00781 10.7969 6.08984 10.875C6.17188 10.9492 6.21289 11.0781 6.21289 11.2617V12.9141ZM5.67969 5.47266C5.57422 5.47266 5.48438 5.43555 5.41016 5.36133C5.33984 5.2832 5.30469 5.19336 5.30469 5.0918C5.30469 4.98633 5.33984 4.89648 5.41016 4.82227C5.48438 4.74805 5.57422 4.71094 5.67969 4.71094H11.5391C11.6445 4.71094 11.7344 4.74805 11.8086 4.82227C11.8828 4.89648 11.9199 4.98633 11.9199 5.0918C11.9199 5.19336 11.8828 5.2832 11.8086 5.36133C11.7344 5.43555 11.6445 5.47266 11.5391 5.47266H5.67969ZM5.67969 7.30664C5.57422 7.30664 5.48438 7.26953 5.41016 7.19531C5.33984 7.12109 5.30469 7.03125 5.30469 6.92578C5.30469 6.82422 5.33984 6.73438 5.41016 6.65625C5.48438 6.57812 5.57422 6.53906 5.67969 6.53906H11.5391C11.6445 6.53906 11.7344 6.57812 11.8086 6.65625C11.8828 6.73047 11.9199 6.82031 11.9199 6.92578C11.9199 7.03125 11.8828 7.12109 11.8086 7.19531C11.7344 7.26953 11.6445 7.30664 11.5391 7.30664H5.67969ZM5.67969 9.14648C5.57422 9.14648 5.48438 9.10938 5.41016 9.03516C5.33984 8.95703 5.30469 8.86719 5.30469 8.76562C5.30469 8.66016 5.33984 8.57031 5.41016 8.49609C5.48438 8.41797 5.57422 8.37891 5.67969 8.37891H9.5C9.60547 8.37891 9.69531 8.41602 9.76953 8.49023C9.84375 8.56445 9.88086 8.65625 9.88086 8.76562C9.88086 8.86719 9.84375 8.95703 9.76953 9.03516C9.69531 9.10938 9.60547 9.14648 9.5 9.14648H5.67969Z"
    fill="currentColor" />
</svg>