<svg width="16" height="16" viewBox="0 0 16 16" fill="none" xmlns="http://www.w3.org/2000/svg">
  <path
    d="M7.4082 14.127C7.16602 14.127 6.95508 14.0586 6.77539 13.9219C6.5957 13.7852 6.48047 13.5996 6.42969 13.3652L6.18945 12.3281L6.03125 12.2754L5.13477 12.8262C4.93164 12.9551 4.7168 13.0039 4.49023 12.9727C4.26758 12.9453 4.07031 12.8457 3.89844 12.6738L3.07812 11.8594C2.90234 11.6836 2.80078 11.4844 2.77344 11.2617C2.74609 11.0391 2.79688 10.8262 2.92578 10.623L3.48828 9.72656L3.43555 9.58008L2.39844 9.33984C2.16797 9.28516 1.98242 9.16797 1.8418 8.98828C1.70508 8.80859 1.63672 8.59961 1.63672 8.36133V7.20703C1.63672 6.96875 1.70508 6.76172 1.8418 6.58594C1.97852 6.40625 2.16406 6.28711 2.39844 6.22852L3.42383 5.98242L3.48242 5.82422L2.91992 4.92773C2.79492 4.72852 2.74414 4.51758 2.76758 4.29492C2.79492 4.07227 2.89648 3.87305 3.07227 3.69727L3.89258 2.87695C4.06445 2.70898 4.26172 2.60937 4.48438 2.57812C4.70703 2.54688 4.91992 2.59375 5.12305 2.71875L6.02539 3.27539L6.18945 3.21094L6.42969 2.17383C6.48047 1.94336 6.5957 1.75977 6.77539 1.62305C6.95508 1.48242 7.16602 1.41211 7.4082 1.41211H8.59766C8.83984 1.41211 9.04883 1.48242 9.22461 1.62305C9.40039 1.75977 9.51562 1.94336 9.57031 2.17383L9.81055 3.21094L9.97461 3.27539L10.877 2.71875C11.0801 2.59375 11.293 2.54688 11.5156 2.57812C11.7383 2.60937 11.9355 2.70898 12.1074 2.87695L12.9277 3.69727C13.1035 3.87305 13.2031 4.07227 13.2266 4.29492C13.2539 4.51758 13.2051 4.72852 13.0801 4.92773L12.5176 5.82422L12.582 5.98242L13.6016 6.22852C13.832 6.2832 14.0156 6.40039 14.1523 6.58008C14.293 6.75977 14.3633 6.96875 14.3633 7.20703V8.36133C14.3633 8.59961 14.293 8.80859 14.1523 8.98828C14.0156 9.16797 13.832 9.28516 13.6016 9.33984L12.5703 9.58008L12.5117 9.72656L13.0742 10.623C13.1992 10.8262 13.248 11.0391 13.2207 11.2617C13.1973 11.4844 13.0977 11.6836 12.9219 11.8594L12.1016 12.6738C11.9297 12.8457 11.7305 12.9453 11.5039 12.9727C11.2812 13.0039 11.0684 12.9551 10.8652 12.8262L9.96289 12.2754L9.81055 12.3281L9.57031 13.3652C9.51562 13.5996 9.40039 13.7852 9.22461 13.9219C9.04883 14.0586 8.83984 14.127 8.59766 14.127H7.4082ZM7.55469 13.0664H8.45117C8.54492 13.0664 8.59766 13.0215 8.60938 12.9316L8.96094 11.4902C9.15625 11.4473 9.33789 11.3906 9.50586 11.3203C9.67383 11.2461 9.83008 11.1641 9.97461 11.0742L11.2344 11.8477C11.3164 11.9023 11.3887 11.8945 11.4512 11.8242L12.0723 11.1973C12.1348 11.1426 12.1406 11.0723 12.0898 10.9863L11.3164 9.73242C11.3984 9.5918 11.4746 9.43555 11.5449 9.26367C11.6191 9.0918 11.6777 8.91406 11.7207 8.73047L13.168 8.38477C13.2578 8.36914 13.3027 8.31445 13.3027 8.2207V7.3418C13.3027 7.25195 13.2578 7.19727 13.168 7.17773L11.7266 6.83203C11.6797 6.63672 11.6172 6.45117 11.5391 6.27539C11.4648 6.09961 11.3926 5.94922 11.3223 5.82422L12.0957 4.56445C12.1504 4.48242 12.1445 4.4082 12.0781 4.3418L11.457 3.73242C11.3906 3.66992 11.3164 3.66016 11.2344 3.70312L9.97461 4.4707C9.83008 4.38867 9.67188 4.3125 9.5 4.24219C9.33203 4.16797 9.15234 4.10742 8.96094 4.06055L8.60938 2.60742C8.59766 2.51758 8.54492 2.47266 8.45117 2.47266H7.55469C7.45703 2.47266 7.40039 2.51758 7.38477 2.60742L7.04492 4.04883C6.85742 4.0957 6.67188 4.1582 6.48828 4.23633C6.30859 4.31055 6.15234 4.38672 6.01953 4.46484L4.75977 3.70312C4.68164 3.66016 4.60938 3.66797 4.54297 3.72656L3.91602 4.3418C3.85352 4.4082 3.84766 4.48242 3.89844 4.56445L4.67188 5.82422C4.60547 5.94922 4.5332 6.09961 4.45508 6.27539C4.37695 6.45117 4.31641 6.63672 4.27344 6.83203L2.83203 7.17773C2.74219 7.19727 2.69727 7.25195 2.69727 7.3418V8.2207C2.69727 8.31445 2.74219 8.36914 2.83203 8.38477L4.27344 8.72461C4.32031 8.91211 4.38086 9.0918 4.45508 9.26367C4.5293 9.43164 4.60547 9.58789 4.68359 9.73242L3.9043 10.9922C3.85742 11.0742 3.86328 11.1445 3.92188 11.2031L4.54883 11.8242C4.61133 11.8945 4.68164 11.9043 4.75977 11.8535L6.02539 11.0742C6.16992 11.1641 6.32812 11.2461 6.5 11.3203C6.67578 11.3906 6.85547 11.4473 7.03906 11.4902L7.38477 12.9316C7.40039 13.0215 7.45703 13.0664 7.55469 13.0664ZM8 9.99023C7.58984 9.99023 7.21484 9.89062 6.875 9.69141C6.53906 9.49219 6.27148 9.22461 6.07227 8.88867C5.87695 8.54883 5.7793 8.17578 5.7793 7.76953C5.7793 7.35938 5.87695 6.98633 6.07227 6.65039C6.27148 6.31445 6.53906 6.04688 6.875 5.84766C7.21484 5.64844 7.58984 5.54883 8 5.54883C8.41016 5.54883 8.7832 5.64844 9.11914 5.84766C9.45508 6.04688 9.72266 6.31445 9.92188 6.65039C10.1211 6.98633 10.2207 7.35938 10.2207 7.76953C10.2207 8.17578 10.1211 8.54883 9.92188 8.88867C9.72266 9.22461 9.45508 9.49219 9.11914 9.69141C8.7832 9.89062 8.41016 9.99023 8 9.99023ZM8 8.98242C8.22266 8.98242 8.42578 8.92773 8.60938 8.81836C8.79297 8.70898 8.93945 8.5625 9.04883 8.37891C9.1582 8.19531 9.21289 7.99219 9.21289 7.76953C9.21289 7.54297 9.1582 7.33984 9.04883 7.16016C8.93945 6.97656 8.79297 6.83008 8.60938 6.7207C8.42578 6.61133 8.22266 6.55664 8 6.55664C7.77344 6.55664 7.56836 6.61133 7.38477 6.7207C7.20508 6.83008 7.06055 6.97656 6.95117 7.16016C6.8418 7.33984 6.78711 7.54297 6.78711 7.76953C6.78711 7.99219 6.8418 8.19531 6.95117 8.37891C7.06055 8.5625 7.20508 8.70898 7.38477 8.81836C7.56836 8.92773 7.77344 8.98242 8 8.98242Z"
    fill="currentColor" />
</svg>