<svg width="12" height="12" viewBox="0 0 12 12" fill="none" xmlns="http://www.w3.org/2000/svg">
  <path
    d="M1.30664 11.1128C1.0459 10.8521 0.871582 10.5605 0.783691 10.2383C0.69873 9.91895 0.706055 9.59961 0.805664 9.28027C0.905273 8.95801 1.10449 8.6665 1.40332 8.40576C1.63477 8.20068 1.90723 7.98828 2.2207 7.76855C2.53711 7.54883 2.87109 7.32031 3.22266 7.08301C3.57422 6.8457 3.92139 6.59521 4.26416 6.33154C4.60986 6.06787 4.92773 5.79102 5.21777 5.50098C5.37012 5.34863 5.47412 5.18311 5.52979 5.00439C5.58545 4.82275 5.61621 4.62939 5.62207 4.42432C5.63086 4.21924 5.63672 4.00391 5.63965 3.77832C5.64551 3.55273 5.67041 3.32129 5.71436 3.08398C5.7583 2.84668 5.84326 2.60645 5.96924 2.36328C6.09814 2.11719 6.2915 1.87109 6.54932 1.625C6.81299 1.37598 7.11328 1.18994 7.4502 1.06689C7.78711 0.943848 8.13574 0.885254 8.49609 0.891113C8.85645 0.896973 9.20508 0.96875 9.54199 1.10645C9.88184 1.24414 10.1851 1.44922 10.4517 1.72168C10.5659 1.83887 10.6597 1.96191 10.7329 2.09082C10.8091 2.21973 10.8618 2.33398 10.8911 2.43359L9.10254 2.92139C8.98242 2.95361 8.90186 3.0166 8.86084 3.11035C8.81982 3.2041 8.81689 3.3125 8.85205 3.43555L8.97949 3.88818C9.01758 4.01416 9.07617 4.10938 9.15527 4.17383C9.23438 4.23535 9.33252 4.25 9.44971 4.21777L11.2339 3.72998C11.2954 3.99072 11.2925 4.25879 11.2251 4.53418C11.1577 4.80664 11.0391 5.06592 10.8691 5.31201C10.7021 5.55518 10.4971 5.76318 10.2539 5.93604C10.0342 6.11475 9.82178 6.24805 9.6167 6.33594C9.41455 6.4209 9.21826 6.47949 9.02783 6.51172C8.8374 6.54395 8.65283 6.56592 8.47412 6.57764C8.29834 6.58643 8.12695 6.60254 7.95996 6.62598C7.79297 6.64941 7.63037 6.69482 7.47217 6.76221C7.31396 6.82959 7.16016 6.93799 7.01074 7.0874C6.69434 7.40381 6.39697 7.74219 6.11865 8.10254C5.84326 8.46289 5.58398 8.82178 5.34082 9.1792C5.09766 9.53662 4.86621 9.87354 4.64648 10.1899C4.42676 10.5063 4.21582 10.7803 4.01367 11.0117C3.75293 11.3105 3.46143 11.5098 3.13916 11.6094C2.81689 11.709 2.49609 11.7163 2.17676 11.6313C1.85742 11.5464 1.56738 11.3735 1.30664 11.1128ZM1.85596 10.5679C2.00537 10.7202 2.17529 10.8213 2.36572 10.8711C2.55908 10.9209 2.75244 10.9136 2.9458 10.8491C3.13916 10.7876 3.31641 10.6646 3.47754 10.48C3.67969 10.2515 3.89355 9.97314 4.11914 9.64502C4.34473 9.31689 4.58203 8.96973 4.83105 8.60352C5.08301 8.23438 5.34375 7.87109 5.61328 7.51367C5.88574 7.15625 6.16846 6.83105 6.46143 6.53809C6.6958 6.30664 6.93311 6.14551 7.17334 6.05469C7.41357 5.96387 7.65381 5.90674 7.89404 5.8833C8.13721 5.85986 8.37744 5.84082 8.61475 5.82617C8.85205 5.80859 9.08496 5.76172 9.31348 5.68555C9.54199 5.60645 9.76465 5.46289 9.98145 5.25488C10.1162 5.12012 10.2275 4.97363 10.3154 4.81543C10.4062 4.65723 10.4736 4.49316 10.5176 4.32324L10.9658 4.55176L9.57715 4.92969C9.25488 5.01465 8.98096 4.99121 8.75537 4.85938C8.52979 4.72754 8.36133 4.46826 8.25 4.08154L8.12695 3.65088C8.02441 3.29346 8.04346 2.98877 8.18408 2.73682C8.32471 2.48193 8.56641 2.30908 8.90918 2.21826L10.2451 1.87109L9.99902 2.30176C9.80273 2.09961 9.57861 1.94727 9.32666 1.84473C9.07471 1.73926 8.81396 1.68213 8.54443 1.67334C8.2749 1.66455 8.01416 1.70264 7.76221 1.7876C7.51025 1.87256 7.29053 2.00146 7.10303 2.17432C6.87158 2.38818 6.70312 2.60498 6.59766 2.82471C6.49512 3.04443 6.4292 3.26416 6.3999 3.48389C6.37354 3.70361 6.36035 3.9248 6.36035 4.14746C6.36328 4.36719 6.35449 4.58545 6.33398 4.80225C6.31641 5.01611 6.2666 5.22852 6.18457 5.43945C6.10254 5.64746 5.96338 5.84961 5.76709 6.0459C5.50049 6.31543 5.19434 6.5791 4.84863 6.83691C4.50586 7.09473 4.1543 7.34668 3.79395 7.59277C3.43652 7.83887 3.09521 8.07617 2.77002 8.30469C2.44482 8.53027 2.16797 8.74268 1.93945 8.94189C1.76074 9.1001 1.63916 9.27588 1.57471 9.46924C1.51318 9.65967 1.50586 9.8501 1.55273 10.0405C1.60254 10.2339 1.70361 10.4097 1.85596 10.5679ZM7.11182 5.36035C7.0708 5.37207 7.02979 5.36768 6.98877 5.34717C6.95068 5.32666 6.92871 5.29297 6.92285 5.24609C6.90234 5.14648 6.93896 5.08496 7.03271 5.06152L7.95996 4.81543C8.00391 4.80078 8.04346 4.80518 8.07861 4.82861C8.11377 4.84912 8.13721 4.87842 8.14893 4.9165C8.15771 4.96045 8.15186 5.00146 8.13135 5.03955C8.11084 5.07764 8.08008 5.10107 8.03906 5.10986L7.11182 5.36035ZM6.99756 4.89014C6.89795 4.91943 6.8335 4.88135 6.8042 4.77588C6.79248 4.73779 6.79688 4.70117 6.81738 4.66602C6.83789 4.62793 6.87012 4.60303 6.91406 4.59131L7.83691 4.34082C7.87793 4.33203 7.91602 4.33789 7.95117 4.3584C7.98926 4.37891 8.01416 4.40967 8.02588 4.45068C8.0376 4.49756 8.03174 4.54004 8.0083 4.57812C7.98779 4.61328 7.95703 4.63672 7.91602 4.64844L6.99756 4.89014ZM6.8833 4.41992C6.83643 4.43164 6.79541 4.42725 6.76025 4.40674C6.7251 4.38623 6.70166 4.35254 6.68994 4.30566C6.67822 4.26758 6.68262 4.22949 6.70312 4.19141C6.72363 4.15332 6.75439 4.12842 6.79541 4.1167L7.72705 3.87061C7.76514 3.85889 7.80176 3.86475 7.83691 3.88818C7.875 3.90869 7.8999 3.93945 7.91162 3.98047C7.92627 4.02441 7.92188 4.06543 7.89844 4.10352C7.87793 4.1416 7.84717 4.1665 7.80615 4.17822L6.8833 4.41992ZM8.83887 6.23047L8.25 4.08154L8.75977 3.9585L9.34863 6.10303L8.83887 6.23047ZM2.64697 10.2866C2.50635 10.2866 2.38623 10.2368 2.28662 10.1372C2.18701 10.0376 2.13721 9.91748 2.13721 9.77686C2.13721 9.63916 2.18701 9.52051 2.28662 9.4209C2.38623 9.31836 2.50635 9.26709 2.64697 9.26709C2.7876 9.26709 2.90625 9.31836 3.00293 9.4209C3.10254 9.52051 3.15234 9.63916 3.15234 9.77686C3.15234 9.91748 3.10254 10.0376 3.00293 10.1372C2.90625 10.2368 2.7876 10.2866 2.64697 10.2866Z"
    fill="currentColor" />
</svg>