<svg width="12" height="12" viewBox="0 0 12 12" fill="none" xmlns="http://www.w3.org/2000/svg">
  <path
    d="M3.83789 6.9248C3.72949 6.9248 3.63721 6.88818 3.56104 6.81494C3.48779 6.7417 3.45117 6.65088 3.45117 6.54248C3.45117 6.43701 3.48779 6.34766 3.56104 6.27441C3.63721 6.20117 3.72949 6.16455 3.83789 6.16455H5.61768V3.72998C5.61768 3.62158 5.6543 3.53076 5.72754 3.45752C5.80078 3.38428 5.89014 3.34766 5.99561 3.34766C6.104 3.34766 6.19482 3.38428 6.26807 3.45752C6.34131 3.53076 6.37793 3.62158 6.37793 3.72998V6.54248C6.37793 6.65088 6.34131 6.7417 6.26807 6.81494C6.19482 6.88818 6.104 6.9248 5.99561 6.9248H3.83789ZM6 10.9106C5.36719 10.9106 4.77393 10.7905 4.22021 10.5503C3.6665 10.313 3.17871 9.98486 2.75684 9.56592C2.33789 9.14697 2.00977 8.66064 1.77246 8.10693C1.53516 7.55322 1.4165 6.95996 1.4165 6.32715C1.4165 5.69434 1.53516 5.10107 1.77246 4.54736C2.00977 3.99365 2.33789 3.50732 2.75684 3.08838C3.17871 2.6665 3.6665 2.33691 4.22021 2.09961C4.77393 1.8623 5.36719 1.74365 6 1.74365C6.63281 1.74365 7.22607 1.8623 7.77979 2.09961C8.3335 2.33691 8.81982 2.6665 9.23877 3.08838C9.65771 3.50732 9.98584 3.99365 10.2231 4.54736C10.4634 5.10107 10.5835 5.69434 10.5835 6.32715C10.5835 6.95996 10.4634 7.55322 10.2231 8.10693C9.98584 8.66064 9.65771 9.14697 9.23877 9.56592C8.81982 9.98486 8.3335 10.313 7.77979 10.5503C7.22607 10.7905 6.63281 10.9106 6 10.9106ZM6 9.9043C6.49512 9.9043 6.95801 9.81201 7.38867 9.62744C7.82227 9.44287 8.20166 9.18652 8.52686 8.8584C8.85498 8.52734 9.11133 8.14648 9.2959 7.71582C9.4834 7.28223 9.57715 6.81934 9.57715 6.32715C9.57715 5.83203 9.4834 5.36914 9.2959 4.93848C9.11133 4.50488 8.85498 4.12402 8.52686 3.7959C8.20166 3.46777 7.82227 3.21143 7.38867 3.02686C6.95801 2.84229 6.49512 2.75 6 2.75C5.50488 2.75 5.04053 2.84229 4.60693 3.02686C4.17627 3.21143 3.79688 3.46777 3.46875 3.7959C3.14062 4.12402 2.88428 4.50488 2.69971 4.93848C2.51514 5.36914 2.42285 5.83203 2.42285 6.32715C2.42285 6.81934 2.51514 7.28223 2.69971 7.71582C2.88428 8.14648 3.14062 8.52734 3.46875 8.8584C3.79688 9.18652 4.17627 9.44287 4.60693 9.62744C5.04053 9.81201 5.50488 9.9043 6 9.9043Z"
    fill="currentColor" />
</svg>