<svg width="13" height="11" viewBox="0 0 13 11" fill="none" xmlns="http://www.w3.org/2000/svg">
  <path
    d="M3.35547 10.7676L4.66211 9.4668H12.1914C12.3711 9.4668 12.5234 9.53125 12.6484 9.66016C12.7773 9.78906 12.8418 9.94141 12.8418 10.1172C12.8418 10.2969 12.7773 10.4492 12.6484 10.5742C12.5234 10.7031 12.3711 10.7676 12.1914 10.7676H3.35547ZM2.64648 10.2168L1.18164 10.7734C1.08789 10.8125 1.00195 10.791 0.923828 10.709C0.845703 10.6309 0.826172 10.543 0.865234 10.4453L1.44531 9.01562L8.17773 2.2832L9.37891 3.49023L2.64648 10.2168ZM9.9707 2.9043L8.76367 1.69727L9.42578 1.04102C9.58984 0.880859 9.75977 0.794922 9.93555 0.783203C10.1152 0.771484 10.2793 0.841797 10.4277 0.994141L10.6797 1.24609C10.832 1.39844 10.9043 1.5625 10.8965 1.73828C10.8887 1.91016 10.8027 2.08008 10.6387 2.24805L9.9707 2.9043Z"
    fill="currentColor" />
</svg>