<svg width="16" height="16" viewBox="0 0 16 16" fill="none" xmlns="http://www.w3.org/2000/svg">
  <path
    d="M7.66016 13.2891C7.24219 13.2891 6.84961 13.1504 6.48242 12.873C6.11914 12.5957 5.79883 12.209 5.52148 11.7129C5.24805 11.2129 5.03125 10.6289 4.87109 9.96094C4.71484 9.28906 4.63672 8.5625 4.63672 7.78125C4.63672 7 4.71484 6.27344 4.87109 5.60156C5.03125 4.92969 5.24805 4.34375 5.52148 3.84375C5.79492 3.33984 6.11523 2.94922 6.48242 2.67188C6.84961 2.39453 7.24219 2.25586 7.66016 2.25586C8.07812 2.25586 8.46875 2.39453 8.83203 2.67188C9.19922 2.94922 9.52148 3.33984 9.79883 3.84375C10.0762 4.34375 10.293 4.92969 10.4492 5.60156C10.6055 6.27344 10.6836 7 10.6836 7.78125C10.6836 8.5625 10.6035 9.28906 10.4434 9.96094C10.2871 10.6289 10.0703 11.2129 9.79297 11.7129C9.51562 12.209 9.19531 12.5957 8.83203 12.873C8.46875 13.1504 8.07812 13.2891 7.66016 13.2891ZM7.66016 3.05859C7.38281 3.05859 7.11523 3.18555 6.85742 3.43945C6.59961 3.69336 6.36914 4.04102 6.16602 4.48242C5.96289 4.92383 5.80273 5.42773 5.68555 5.99414C5.56836 6.56055 5.50977 7.15625 5.50977 7.78125C5.50977 8.40234 5.56836 8.99414 5.68555 9.55664C5.80273 10.1191 5.96289 10.6211 6.16602 11.0625C6.36914 11.5 6.59961 11.8457 6.85742 12.0996C7.11523 12.3574 7.38281 12.4863 7.66016 12.4863C7.9375 12.4863 8.20508 12.3574 8.46289 12.0996C8.7207 11.8457 8.95117 11.5 9.1543 11.0625C9.35742 10.6211 9.51758 10.1191 9.63477 9.55664C9.75195 8.99414 9.81055 8.40234 9.81055 7.78125C9.81055 7.15625 9.75195 6.56055 9.63477 5.99414C9.51758 5.42773 9.35742 4.92383 9.1543 4.48242C8.95117 4.04102 8.7207 3.69336 8.46289 3.43945C8.20508 3.18555 7.9375 3.05859 7.66016 3.05859ZM7.23242 2.33789H8.08789V13.1836H7.23242V2.33789ZM7.66016 9.71484C8.27734 9.71484 8.86328 9.76562 9.41797 9.86719C9.97266 9.96484 10.4688 10.1055 10.9062 10.2891C11.3438 10.4727 11.6953 10.6875 11.9609 10.9336L11.3047 11.4785C11.0586 11.2871 10.752 11.125 10.3848 10.9922C10.0176 10.8555 9.60352 10.752 9.14258 10.6816C8.68164 10.6113 8.1875 10.5762 7.66016 10.5762C7.13281 10.5762 6.63867 10.6113 6.17773 10.6816C5.7168 10.752 5.30273 10.8555 4.93555 10.9922C4.56836 11.125 4.25977 11.2871 4.00977 11.4785L3.35352 10.9336C3.62305 10.6875 3.97656 10.4727 4.41406 10.2891C4.85156 10.1055 5.34766 9.96484 5.90234 9.86719C6.45703 9.76562 7.04297 9.71484 7.66016 9.71484ZM13.0039 7.33594V8.19727H2.31641V7.33594H13.0039ZM7.66016 5.85352C7.04297 5.85352 6.45703 5.80469 5.90234 5.70703C5.34766 5.60547 4.85156 5.46289 4.41406 5.2793C3.97656 5.0957 3.62305 4.88086 3.35352 4.63477L4.00977 4.08984C4.25977 4.28125 4.56836 4.44531 4.93555 4.58203C5.30273 4.71484 5.7168 4.81641 6.17773 4.88672C6.63867 4.95703 7.13281 4.99219 7.66016 4.99219C8.1875 4.99219 8.68164 4.95703 9.14258 4.88672C9.60352 4.81641 10.0176 4.71484 10.3848 4.58203C10.752 4.44531 11.0586 4.28125 11.3047 4.08984L11.9609 4.63477C11.6953 4.88086 11.3438 5.0957 10.9062 5.2793C10.4688 5.46289 9.97266 5.60547 9.41797 5.70703C8.86328 5.80469 8.27734 5.85352 7.66016 5.85352ZM7.66016 13.8809C6.81641 13.8809 6.02539 13.7207 5.28711 13.4004C4.54883 13.084 3.89844 12.6465 3.33594 12.0879C2.77734 11.5293 2.33984 10.8809 2.02344 10.1426C1.70703 9.4043 1.54883 8.61328 1.54883 7.76953C1.54883 6.92578 1.70703 6.13477 2.02344 5.39648C2.33984 4.6582 2.77734 4.00977 3.33594 3.45117C3.89844 2.88867 4.54883 2.44922 5.28711 2.13281C6.02539 1.81641 6.81641 1.6582 7.66016 1.6582C8.50391 1.6582 9.29492 1.81641 10.0332 2.13281C10.7715 2.44922 11.4199 2.88867 11.9785 3.45117C12.5371 4.00977 12.9746 4.6582 13.291 5.39648C13.6113 6.13477 13.7715 6.92578 13.7715 7.76953C13.7715 8.61328 13.6113 9.4043 13.291 10.1426C12.9746 10.8809 12.5371 11.5293 11.9785 12.0879C11.4199 12.6465 10.7715 13.084 10.0332 13.4004C9.29492 13.7207 8.50391 13.8809 7.66016 13.8809ZM7.66016 12.832C8.35938 12.832 9.01367 12.7012 9.62305 12.4395C10.2363 12.1777 10.7754 11.8145 11.2402 11.3496C11.7051 10.8848 12.0684 10.3477 12.3301 9.73828C12.5918 9.125 12.7227 8.46875 12.7227 7.76953C12.7227 7.07031 12.5918 6.41406 12.3301 5.80078C12.0684 5.1875 11.7051 4.65039 11.2402 4.18945C10.7754 3.72461 10.2363 3.36133 9.62305 3.09961C9.01367 2.83789 8.35938 2.70703 7.66016 2.70703C6.96094 2.70703 6.30469 2.83789 5.69141 3.09961C5.08203 3.36133 4.54492 3.72461 4.08008 4.18945C3.61523 4.65039 3.25195 5.1875 2.99023 5.80078C2.72852 6.41406 2.59766 7.07031 2.59766 7.76953C2.59766 8.46875 2.72852 9.125 2.99023 9.73828C3.25195 10.3477 3.61523 10.8848 4.08008 11.3496C4.54492 11.8145 5.08203 12.1777 5.69141 12.4395C6.30469 12.7012 6.96094 12.832 7.66016 12.832Z"
    fill="currentColor" />
</svg>