<svg width="16" height="17" viewBox="0 0 16 17" fill="none" xmlns="http://www.w3.org/2000/svg">
  <path
    d="M7.4082 14.2773C7.16602 14.2773 6.95508 14.209 6.77539 14.0723C6.5957 13.9355 6.48047 13.75 6.42969 13.5156L6.18945 12.4785L6.03125 12.4258L5.13477 12.9766C4.93164 13.1055 4.7168 13.1543 4.49023 13.123C4.26758 13.0957 4.07031 12.9961 3.89844 12.8242L3.07812 12.0098C2.90234 11.834 2.80078 11.6348 2.77344 11.4121C2.74609 11.1895 2.79688 10.9766 2.92578 10.7734L3.48828 9.87695L3.43555 9.73047L2.39844 9.49023C2.16797 9.43555 1.98242 9.31836 1.8418 9.13867C1.70508 8.95898 1.63672 8.75 1.63672 8.51172V7.35742C1.63672 7.11914 1.70508 6.91211 1.8418 6.73633C1.97852 6.55664 2.16406 6.4375 2.39844 6.37891L3.42383 6.13281L3.48242 5.97461L2.91992 5.07812C2.79492 4.87891 2.74414 4.66797 2.76758 4.44531C2.79492 4.22266 2.89648 4.02344 3.07227 3.84766L3.89258 3.02734C4.06445 2.85937 4.26172 2.75977 4.48438 2.72852C4.70703 2.69727 4.91992 2.74414 5.12305 2.86914L6.02539 3.42578L6.18945 3.36133L6.42969 2.32422C6.48047 2.09375 6.5957 1.91016 6.77539 1.77344C6.95508 1.63281 7.16602 1.5625 7.4082 1.5625H8.59766C8.83984 1.5625 9.04883 1.63281 9.22461 1.77344C9.40039 1.91016 9.51562 2.09375 9.57031 2.32422L9.81055 3.36133L9.97461 3.42578L10.877 2.86914C11.0801 2.74414 11.293 2.69727 11.5156 2.72852C11.7383 2.75977 11.9355 2.85937 12.1074 3.02734L12.9277 3.84766C13.1035 4.02344 13.2031 4.22266 13.2266 4.44531C13.2539 4.66797 13.2051 4.87891 13.0801 5.07812L12.5176 5.97461L12.582 6.13281L13.6016 6.37891C13.832 6.43359 14.0156 6.55078 14.1523 6.73047C14.293 6.91016 14.3633 7.11914 14.3633 7.35742V8.51172C14.3633 8.75 14.293 8.95898 14.1523 9.13867C14.0156 9.31836 13.832 9.43555 13.6016 9.49023L12.5703 9.73047L12.5117 9.87695L13.0742 10.7734C13.1992 10.9766 13.248 11.1895 13.2207 11.4121C13.1973 11.6348 13.0977 11.834 12.9219 12.0098L12.1016 12.8242C11.9297 12.9961 11.7305 13.0957 11.5039 13.123C11.2812 13.1543 11.0684 13.1055 10.8652 12.9766L9.96289 12.4258L9.81055 12.4785L9.57031 13.5156C9.51562 13.75 9.40039 13.9355 9.22461 14.0723C9.04883 14.209 8.83984 14.2773 8.59766 14.2773H7.4082ZM7.55469 13.2168H8.45117C8.54492 13.2168 8.59766 13.1719 8.60938 13.082L8.96094 11.6406C9.15625 11.5977 9.33789 11.541 9.50586 11.4707C9.67383 11.3965 9.83008 11.3145 9.97461 11.2246L11.2344 11.998C11.3164 12.0527 11.3887 12.0449 11.4512 11.9746L12.0723 11.3477C12.1348 11.293 12.1406 11.2227 12.0898 11.1367L11.3164 9.88281C11.3984 9.74219 11.4746 9.58594 11.5449 9.41406C11.6191 9.24219 11.6777 9.06445 11.7207 8.88086L13.168 8.53516C13.2578 8.51953 13.3027 8.46484 13.3027 8.37109V7.49219C13.3027 7.40234 13.2578 7.34766 13.168 7.32812L11.7266 6.98242C11.6797 6.78711 11.6172 6.60156 11.5391 6.42578C11.4648 6.25 11.3926 6.09961 11.3223 5.97461L12.0957 4.71484C12.1504 4.63281 12.1445 4.55859 12.0781 4.49219L11.457 3.88281C11.3906 3.82031 11.3164 3.81055 11.2344 3.85352L9.97461 4.62109C9.83008 4.53906 9.67188 4.46289 9.5 4.39258C9.33203 4.31836 9.15234 4.25781 8.96094 4.21094L8.60938 2.75781C8.59766 2.66797 8.54492 2.62305 8.45117 2.62305H7.55469C7.45703 2.62305 7.40039 2.66797 7.38477 2.75781L7.04492 4.19922C6.85742 4.24609 6.67188 4.30859 6.48828 4.38672C6.30859 4.46094 6.15234 4.53711 6.01953 4.61523L4.75977 3.85352C4.68164 3.81055 4.60938 3.81836 4.54297 3.87695L3.91602 4.49219C3.85352 4.55859 3.84766 4.63281 3.89844 4.71484L4.67188 5.97461C4.60547 6.09961 4.5332 6.25 4.45508 6.42578C4.37695 6.60156 4.31641 6.78711 4.27344 6.98242L2.83203 7.32812C2.74219 7.34766 2.69727 7.40234 2.69727 7.49219V8.37109C2.69727 8.46484 2.74219 8.51953 2.83203 8.53516L4.27344 8.875C4.32031 9.0625 4.38086 9.24219 4.45508 9.41406C4.5293 9.58203 4.60547 9.73828 4.68359 9.88281L3.9043 11.1426C3.85742 11.2246 3.86328 11.2949 3.92188 11.3535L4.54883 11.9746C4.61133 12.0449 4.68164 12.0547 4.75977 12.0039L6.02539 11.2246C6.16992 11.3145 6.32812 11.3965 6.5 11.4707C6.67578 11.541 6.85547 11.5977 7.03906 11.6406L7.38477 13.082C7.40039 13.1719 7.45703 13.2168 7.55469 13.2168ZM8 10.1406C7.58984 10.1406 7.21484 10.041 6.875 9.8418C6.53906 9.64258 6.27148 9.375 6.07227 9.03906C5.87695 8.69922 5.7793 8.32617 5.7793 7.91992C5.7793 7.50977 5.87695 7.13672 6.07227 6.80078C6.27148 6.46484 6.53906 6.19727 6.875 5.99805C7.21484 5.79883 7.58984 5.69922 8 5.69922C8.41016 5.69922 8.7832 5.79883 9.11914 5.99805C9.45508 6.19727 9.72266 6.46484 9.92188 6.80078C10.1211 7.13672 10.2207 7.50977 10.2207 7.91992C10.2207 8.32617 10.1211 8.69922 9.92188 9.03906C9.72266 9.375 9.45508 9.64258 9.11914 9.8418C8.7832 10.041 8.41016 10.1406 8 10.1406ZM8 9.13281C8.22266 9.13281 8.42578 9.07812 8.60938 8.96875C8.79297 8.85938 8.93945 8.71289 9.04883 8.5293C9.1582 8.3457 9.21289 8.14258 9.21289 7.91992C9.21289 7.69336 9.1582 7.49023 9.04883 7.31055C8.93945 7.12695 8.79297 6.98047 8.60938 6.87109C8.42578 6.76172 8.22266 6.70703 8 6.70703C7.77344 6.70703 7.56836 6.76172 7.38477 6.87109C7.20508 6.98047 7.06055 7.12695 6.95117 7.31055C6.8418 7.49023 6.78711 7.69336 6.78711 7.91992C6.78711 8.14258 6.8418 8.3457 6.95117 8.5293C7.06055 8.71289 7.20508 8.85938 7.38477 8.96875C7.56836 9.07812 7.77344 9.13281 8 9.13281Z"
    fill="currentColor" />
</svg>