<svg width="162" height="27" viewBox="0 0 162 27" fill="none" xmlns="http://www.w3.org/2000/svg">
  <path
    d="M12.8028 24.9873C16.5735 24.9873 20.248 25.4097 23.783 26.2104C24.7441 26.4281 25.6793 25.7114 25.6793 24.726V1.4981C25.6793 0.670724 25.0085 0 24.1812 0H1.4981C0.670723 0 0 0.670724 0 1.4981V24.7093C0 25.6937 0.933291 26.4101 1.89367 26.1942C5.4067 25.4042 9.05718 24.9873 12.8028 24.9873Z"
    fill="black" />
  <path
    d="M4.71582 5.60757H10.1121L17.4075 14.0427L17.0763 6.9594L14.4152 6.01325V5.31641H20.8067V6.01325L18.7226 6.9594L19.2105 19.4601H17.402L8.89728 9.28442L9.40281 17.6693L11.5845 18.6748V19.3524H5.5882V18.5895L7.46857 17.6693L7.26413 7.25056L4.71582 6.36096V5.60757Z"
    fill="white" />
  <path
    d="M48.6954 15.2158V11.6057C48.6954 10.448 48.6801 9.43756 48.6497 8.57438C48.6192 7.70105 48.5786 7.20853 48.5278 7.09682L46.837 6.70078L46.8979 5.45171H52.1532L52.2293 6.70078L50.6604 7.09682C50.6197 7.20853 50.5842 7.69597 50.5537 8.55915C50.5233 9.42233 50.508 10.4378 50.508 11.6057V16.1602C50.508 16.9421 50.503 17.6276 50.4928 18.2166C50.4928 18.7954 50.4928 19.3641 50.4928 19.9226H48.9848L39.0836 8.62008L40.4545 8.60485V13.3422C40.4545 14.6522 40.4647 15.7489 40.485 16.6324C40.5155 17.5057 40.5612 18.0186 40.6221 18.1709L42.3434 18.5669L42.2672 19.8008H36.9206L36.8444 18.5669L38.3981 18.1709C38.4388 18.0186 38.4743 17.4804 38.5048 16.5562C38.5454 15.6321 38.5657 14.5608 38.5657 13.3422V10.1738C38.5657 9.59496 38.5403 8.98058 38.4895 8.33066C38.4489 7.67058 38.4185 7.25931 38.3981 7.09682L36.8444 6.70078L36.9206 5.45171H40.8354L49.7312 15.2158H48.6954ZM57.6028 19.9836C56.8411 19.9836 56.1861 19.8262 55.6378 19.5114C55.0995 19.1864 54.6832 18.7954 54.3887 18.3385C54.1043 17.8713 53.9622 17.4347 53.9622 17.0285C53.9622 15.8403 54.7136 15.0279 56.2166 14.5912L60.0552 13.4793V12.6415C60.0552 12.1236 59.8166 11.6615 59.3393 11.2553C58.8721 10.839 58.3441 10.6308 57.7551 10.6308C57.491 10.6308 57.3032 10.6968 57.1915 10.8288C57.0899 10.9507 57.029 11.1741 57.0087 11.499L56.8868 13.0375C56.0643 13.2102 55.3839 13.1848 54.8457 12.9614C54.3176 12.7379 54.0536 12.3673 54.0536 11.8494C54.0536 11.5244 54.216 11.1995 54.541 10.8745C54.8761 10.5394 55.2925 10.2297 55.7901 9.94531C56.2877 9.65082 56.7903 9.4071 57.2981 9.21415C57.816 9.0212 58.2578 8.89934 58.6233 8.84857C60.0958 8.84857 61.2586 9.17861 62.1116 9.83869C62.9748 10.4988 63.4114 11.3924 63.4216 12.5196L63.3454 15.8555C63.3454 16.7086 63.4064 17.2722 63.5282 17.5464L65.1429 17.8358V18.9173L63.513 19.6028C62.9037 19.8566 62.3858 19.9836 61.9593 19.9836C61.3195 19.9836 60.8676 19.6586 60.6036 19.0087L60.1618 17.8815L60.6797 17.9729C59.6439 19.3133 58.6183 19.9836 57.6028 19.9836ZM58.8975 17.7444C59.3342 17.7444 59.7302 17.5717 60.0857 17.2265V14.8654L58.5167 15.1396C57.7551 15.2412 57.3743 15.6169 57.3743 16.2668C57.3743 16.6426 57.5266 16.9828 57.8312 17.2874C58.1359 17.5921 58.4913 17.7444 58.8975 17.7444ZM74.3397 17.7139C74.0858 18.4349 73.6339 19.0036 72.984 19.42C72.3341 19.8363 71.608 20.0445 70.8057 20.0445C69.6481 20.0445 68.7036 19.7145 67.9725 19.0544C67.2515 18.3943 66.891 17.3991 66.891 16.0688L66.9671 10.6308H65.2611V9.86915L69.5567 6.48752H70.3031L70.2421 9.99101L70.1964 15.7794C70.1964 16.4496 70.3589 16.9269 70.6839 17.2112C71.019 17.4956 71.481 17.6378 72.07 17.6378C72.6692 17.6378 73.2125 17.4245 73.6999 16.998L74.3397 17.7139ZM69.0844 10.6308V9.06182H73.6847V10.6308H69.0844ZM74.4427 19.8008L74.3817 18.6279L75.9964 18.2471C76.0065 18.1455 76.0218 17.8612 76.0421 17.394C76.0725 16.9167 76.0979 16.3887 76.1182 15.8098L76.1335 13.9972C76.1335 13.4996 76.1182 13.0629 76.0878 12.6872C76.0573 12.3114 76.0065 11.9103 75.9354 11.4838L74.3056 11.1487V10.0215L78.8601 8.89427L79.5456 9.32078C79.5049 9.84884 79.4694 10.3769 79.4389 10.905C79.4085 11.433 79.3932 12.0271 79.3932 12.6872V15.8098C79.3932 16.3379 79.4034 16.8457 79.4237 17.3331C79.4542 17.8205 79.4897 18.1252 79.5303 18.2471L81.145 18.6279L81.0841 19.8008H74.4427ZM77.8243 6.9902C77.1439 6.9902 76.6108 6.7871 76.2249 6.38089C75.839 5.96454 75.646 5.48725 75.646 4.94903C75.646 4.40066 75.839 3.92337 76.2249 3.51717C76.6108 3.11097 77.1439 2.90787 77.8243 2.90787C78.5047 2.90787 79.0277 3.11097 79.3932 3.51717C79.7588 3.92337 79.9416 4.40066 79.9416 4.94903C79.9416 5.48725 79.7588 5.96454 79.3932 6.38089C79.0277 6.7871 78.5047 6.9902 77.8243 6.9902ZM86.7926 19.8922L82.2838 10.6003L81.1413 10.1738L81.2175 9.03136H87.5695L87.6304 10.1738L86.1224 10.6003L88.8338 16.4496L88.1483 16.4344L90.6464 10.6003L89.1384 10.1738L89.1993 9.03136H93.6777L93.7539 10.1738L92.5962 10.6003L87.8893 19.8922H86.7926ZM99.7366 19.9836C98.6602 19.9836 97.7056 19.75 96.8729 19.2829C96.0503 18.8056 95.4055 18.1607 94.9384 17.3483C94.4712 16.5258 94.2377 15.6017 94.2377 14.576C94.2377 13.4488 94.5017 12.4587 95.0298 11.6057C95.5578 10.7425 96.2433 10.0672 97.0862 9.57973C97.9392 9.09229 98.8481 8.84857 99.8128 8.84857C101.245 8.84857 102.362 9.29031 103.164 10.1738C103.966 11.0573 104.367 12.215 104.367 13.6468V14.2561H97.1623V12.9461H101.9L101.488 13.5707V12.7024C101.488 11.9408 101.321 11.3416 100.986 10.905C100.661 10.4683 100.204 10.25 99.6148 10.25C99.0258 10.25 98.5282 10.5038 98.122 11.0116C97.7158 11.5092 97.5127 12.281 97.5127 13.3269V13.8296C97.5127 14.9568 97.8173 15.8657 98.4266 16.5562C99.0461 17.2468 99.8686 17.5921 100.894 17.5921C101.453 17.5921 101.956 17.4905 102.402 17.2874C102.859 17.0843 103.301 16.739 103.728 16.2516L104.489 16.9828C104.032 17.9678 103.387 18.7142 102.555 19.2219C101.722 19.7297 100.783 19.9836 99.7366 19.9836ZM106.131 5.45171H111.355L116.474 16.2059H115.727L120.297 5.45171H125.552L125.628 6.70078L124.075 7.08159C124.064 7.33547 124.064 7.72136 124.075 8.23927C124.085 8.74702 124.1 9.37663 124.12 10.1281L124.257 14.3932C124.298 15.4087 124.339 16.2617 124.379 16.9523C124.43 17.6428 124.471 18.049 124.501 18.1709L126.07 18.5669L126.009 19.8008H119.231L119.154 18.5669L120.739 18.1709C120.789 17.8358 120.8 16.5766 120.769 14.3932L120.693 6.16764H121.866L116.032 19.8617H114.432L107.882 6.15241H109.482L109.497 14.5912C109.497 15.8302 109.502 16.7136 109.512 17.2417C109.522 17.7698 109.543 18.0795 109.573 18.1709L111.279 18.5669L111.203 19.8008H105.811L105.735 18.5669L107.441 18.1709C107.461 18.0287 107.476 17.6124 107.486 16.9218C107.507 16.2211 107.522 15.4849 107.532 14.7131L107.608 10.1738C107.629 9.3614 107.634 8.70132 107.623 8.19357C107.613 7.67566 107.608 7.31008 107.608 7.09682L106.07 6.70078L106.131 5.45171ZM127.072 19.8008L127.011 18.6279L128.625 18.2471C128.636 18.1455 128.651 17.8612 128.671 17.394C128.702 16.9167 128.727 16.3887 128.747 15.8098L128.763 13.9972C128.763 13.4996 128.747 13.0629 128.717 12.6872C128.686 12.3114 128.636 11.9103 128.565 11.4838L126.935 11.1487V10.0215L131.489 8.89427L132.175 9.32078C132.134 9.84884 132.099 10.3769 132.068 10.905C132.038 11.433 132.022 12.0271 132.022 12.6872V15.8098C132.022 16.3379 132.032 16.8457 132.053 17.3331C132.083 17.8205 132.119 18.1252 132.159 18.2471L133.774 18.6279L133.713 19.8008H127.072ZM130.453 6.9902C129.773 6.9902 129.24 6.7871 128.854 6.38089C128.468 5.96454 128.275 5.48725 128.275 4.94903C128.275 4.40066 128.468 3.92337 128.854 3.51717C129.24 3.11097 129.773 2.90787 130.453 2.90787C131.134 2.90787 131.657 3.11097 132.022 3.51717C132.388 3.92337 132.571 4.40066 132.571 4.94903C132.571 5.48725 132.388 5.96454 132.022 6.38089C131.657 6.7871 131.134 6.9902 130.453 6.9902ZM134.349 19.8008L134.273 18.6736L135.781 18.2471C135.801 18.1354 135.822 17.8459 135.842 17.3788C135.873 16.9015 135.893 16.3785 135.903 15.8098L135.933 13.9515C135.933 13.4437 135.918 13.0121 135.888 12.6567C135.857 12.3013 135.807 11.9103 135.735 11.4838L134.166 11.1487V10.0215L138.538 8.89427L139.224 9.32078L139.087 10.7831L139.163 10.8136C140.168 9.50357 141.371 8.84857 142.773 8.84857C143.829 8.84857 144.707 9.23446 145.408 10.0062C146.109 10.778 146.459 11.8595 146.459 13.2508V15.7794C146.459 16.3278 146.469 16.8457 146.49 17.3331C146.51 17.8104 146.54 18.115 146.581 18.2471L148.089 18.6736L148.013 19.8008H141.813L141.752 18.6736L143.108 18.2471C143.138 18.0033 143.164 17.6428 143.184 17.1655C143.215 16.6781 143.23 16.2211 143.23 15.7946V13.7839C143.23 12.8598 143.027 12.1997 142.621 11.8037C142.225 11.3975 141.757 11.1944 141.219 11.1944C140.407 11.1944 139.726 11.5397 139.178 12.2302V15.8098C139.178 16.3481 139.188 16.8558 139.208 17.3331C139.229 17.8104 139.259 18.115 139.3 18.2471L140.762 18.6736L140.686 19.8008H134.349ZM157.499 20.1207L156.814 19.7551L156.844 18.1404L156.768 18.11C156.352 18.831 155.89 19.3336 155.382 19.618C154.884 19.9023 154.376 20.0445 153.859 20.0445C153.006 20.0445 152.208 19.8262 151.467 19.3895C150.736 18.9528 150.147 18.3435 149.7 17.5616C149.253 16.7695 149.03 15.8403 149.03 14.774C149.03 13.5656 149.324 12.5247 149.913 11.6514C150.502 10.7679 151.254 10.0875 152.168 9.6102C153.082 9.12276 154.031 8.87903 155.016 8.87903C155.321 8.87903 155.631 8.9095 155.945 8.97043C156.26 9.0212 156.519 9.10245 156.722 9.21415C156.722 8.77748 156.717 8.30527 156.707 7.79752C156.697 7.27962 156.682 6.79725 156.661 6.35043C156.651 5.89345 156.641 5.54818 156.631 5.31461L154.803 5.04043L154.757 3.97415L159.51 2.74031L160.18 3.18206C160.129 4.19756 160.084 5.13182 160.043 5.98485C160.002 6.82772 159.982 7.71628 159.982 8.65055L159.952 14.3323C159.952 15.1244 159.967 15.7591 159.997 16.2364C160.038 16.7136 160.073 17.1554 160.104 17.5616L161.749 17.9119V18.9782L157.499 20.1207ZM155.077 17.6073C155.321 17.6073 155.6 17.5311 155.915 17.3788C156.24 17.2265 156.519 16.9726 156.753 16.6172V11.1335C156.539 10.8593 156.286 10.6663 155.991 10.5546C155.707 10.4328 155.412 10.3718 155.108 10.3718C154.356 10.3718 153.737 10.6917 153.249 11.3315C152.772 11.9611 152.533 12.8192 152.533 13.9058C152.533 15.1142 152.782 16.0333 153.28 16.6629C153.787 17.2925 154.387 17.6073 155.077 17.6073Z"
    fill="black" />
</svg>