<svg width="20" height="15" viewBox="0 0 20 15" fill="none" xmlns="http://www.w3.org/2000/svg">
  <path
    d="M11.0742 4.33008H9.79102V3.57422C9.79102 3.11328 9.66211 2.75977 9.4043 2.51367C9.15039 2.26367 8.80078 2.13867 8.35547 2.13867H2.71289C2.26758 2.13867 1.91602 2.26367 1.6582 2.51367C1.4043 2.75977 1.27734 3.11328 1.27734 3.57422V6.83789C1.27734 7.30273 1.4043 7.66016 1.6582 7.91016C1.91602 8.15625 2.26758 8.2793 2.71289 8.2793H3.35156C3.50781 8.2793 3.63672 8.32617 3.73828 8.41992C3.83984 8.51367 3.89062 8.65039 3.89062 8.83008V10.3066L5.70703 8.64844C5.84375 8.52344 5.98047 8.43164 6.11719 8.37305C6.25781 8.31055 6.41797 8.2793 6.59766 8.2793H8.34375V9.49219H6.58008L4.63477 11.1621C4.43164 11.3379 4.24414 11.4746 4.07227 11.5723C3.9043 11.666 3.73633 11.7129 3.56836 11.7129C3.31055 11.7129 3.10938 11.6289 2.96484 11.4609C2.82031 11.293 2.74805 11.0703 2.74805 10.793V9.49219H2.47852C1.97852 9.49219 1.54297 9.39453 1.17188 9.19922C0.800781 9.00391 0.511719 8.72461 0.304688 8.36133C0.0976562 7.99805 -0.00585938 7.56445 -0.00585938 7.06055V3.41602C-0.00585938 2.90039 0.0996094 2.45703 0.310547 2.08594C0.525391 1.71094 0.824219 1.42383 1.20703 1.22461C1.58984 1.02148 2.03516 0.919922 2.54297 0.919922H8.51953C9.04688 0.919922 9.5 1.02148 9.87891 1.22461C10.2617 1.42383 10.5566 1.71094 10.7637 2.08594C10.9707 2.45703 11.0742 2.90039 11.0742 3.41602V4.33008ZM3.41602 6.78516L4.64648 3.36914C4.78711 2.95117 5.05859 2.74219 5.46094 2.74219C5.87109 2.74219 6.14844 2.95117 6.29297 3.36914L7.52344 6.78516C7.56641 6.90234 7.57617 7.01953 7.55273 7.13672C7.5293 7.25391 7.47461 7.35156 7.38867 7.42969C7.30273 7.50781 7.18359 7.54688 7.03125 7.54688C6.75391 7.54688 6.57227 7.38867 6.48633 7.07227L6.23438 6.3457H4.70508L4.45312 7.07227C4.36719 7.38867 4.18555 7.54688 3.9082 7.54688C3.75977 7.54688 3.64258 7.50781 3.55664 7.42969C3.4707 7.35156 3.41406 7.25391 3.38672 7.13672C3.36328 7.01953 3.37305 6.90234 3.41602 6.78516ZM4.94531 5.50195H5.98828L5.4668 3.82617L4.94531 5.50195ZM15.498 14.6133C15.3262 14.6133 15.1543 14.5664 14.9824 14.4727C14.8145 14.3789 14.6309 14.2441 14.4316 14.0684L12.4746 12.3926H10.541C10.0137 12.3926 9.55859 12.2949 9.17578 12.0996C8.79297 11.9082 8.49805 11.6309 8.29102 11.2676C8.08789 10.9043 7.98633 10.4707 7.98633 9.9668V6.32227C7.98633 5.80664 8.08789 5.36328 8.29102 4.99219C8.49805 4.61719 8.79297 4.33008 9.17578 4.13086C9.55859 3.92773 10.0137 3.82617 10.541 3.82617H16.4707C16.9824 3.82617 17.4297 3.92773 17.8125 4.13086C18.1953 4.33008 18.4922 4.61719 18.7031 4.99219C18.918 5.36328 19.0254 5.80664 19.0254 6.32227V9.9668C19.0254 10.4707 18.9219 10.9043 18.7148 11.2676C18.5078 11.6309 18.2188 11.9082 17.8477 12.0996C17.4766 12.2949 17.041 12.3926 16.541 12.3926H16.3066V13.6992C16.3066 13.9766 16.2344 14.1973 16.0898 14.3613C15.9453 14.5293 15.748 14.6133 15.498 14.6133ZM11.5898 6.76758C11.4531 6.76758 11.3398 6.81055 11.25 6.89648C11.1641 6.97852 11.1211 7.08203 11.1211 7.20703C11.1211 7.33594 11.166 7.44336 11.2559 7.5293C11.3457 7.61523 11.457 7.6582 11.5898 7.6582H12.0176C12.1816 8.22461 12.459 8.73438 12.8496 9.1875C12.6621 9.30859 12.457 9.41602 12.2344 9.50977C12.0156 9.59961 11.7734 9.67773 11.5078 9.74414C11.3789 9.77148 11.2793 9.83984 11.209 9.94922C11.1426 10.0586 11.1211 10.1797 11.1445 10.3125C11.1836 10.4414 11.2598 10.5352 11.373 10.5938C11.4902 10.6484 11.6191 10.6582 11.7598 10.623C12.084 10.5527 12.3945 10.4512 12.6914 10.3184C12.9883 10.1816 13.2715 10.0176 13.541 9.82617C13.7949 10.0137 14.0664 10.1758 14.3555 10.3125C14.6484 10.4453 14.9453 10.5469 15.2461 10.6172C15.4102 10.6523 15.5527 10.6445 15.6738 10.5938C15.7949 10.5391 15.873 10.4453 15.9082 10.3125C15.9434 10.1719 15.9277 10.0488 15.8613 9.94336C15.7988 9.83789 15.6973 9.77148 15.5566 9.74414C15.3027 9.68555 15.0645 9.61133 14.8418 9.52148C14.6191 9.42773 14.4082 9.31641 14.209 9.1875C14.6074 8.74609 14.8867 8.23633 15.0469 7.6582H15.4746C15.6113 7.6582 15.7227 7.61523 15.8086 7.5293C15.8984 7.44336 15.9434 7.33594 15.9434 7.20703C15.9434 7.08203 15.8984 6.97852 15.8086 6.89648C15.7227 6.81055 15.6113 6.76758 15.4746 6.76758H11.5898ZM13.5879 6.57422C13.7129 6.51172 13.7969 6.41992 13.8398 6.29883C13.8828 6.17773 13.875 6.05859 13.8164 5.94141L13.5352 5.36133C13.4727 5.23242 13.3809 5.14648 13.2598 5.10352C13.1426 5.05664 13.0273 5.06641 12.9141 5.13281C12.7969 5.1875 12.7168 5.27539 12.6738 5.39648C12.6348 5.51367 12.6445 5.63281 12.7031 5.75391L12.9785 6.33398C13.0332 6.45508 13.1191 6.53711 13.2363 6.58008C13.3574 6.62305 13.4746 6.62109 13.5879 6.57422ZM14.1094 7.6582C13.9844 8.00586 13.7949 8.32812 13.541 8.625C13.2832 8.33594 13.0879 8.01367 12.9551 7.6582H14.1094Z"
    fill="currentColor" />
</svg>