<svg width="12" height="12" viewBox="0 0 12 12" fill="none" xmlns="http://www.w3.org/2000/svg">
  <path
    d="M0.629883 8.11133C0.629883 7.91797 0.654785 7.73633 0.70459 7.56641C0.754395 7.39355 0.812988 7.22949 0.880371 7.07422L2.39209 3.57178C2.55029 3.20264 2.78027 2.92139 3.08203 2.72803C3.38672 2.53467 3.75 2.43799 4.17188 2.43799H7.82812C8.24707 2.43799 8.60742 2.53467 8.90918 2.72803C9.21387 2.92139 9.44678 3.20264 9.60791 3.57178L11.1284 7.10498C11.1929 7.25439 11.2485 7.4126 11.2954 7.57959C11.3423 7.74658 11.3657 7.92383 11.3657 8.11133C11.3657 8.51855 11.272 8.88184 11.0845 9.20117C10.897 9.52051 10.6377 9.771 10.3066 9.95264C9.97852 10.1372 9.59766 10.2295 9.16406 10.2295H2.83154C2.39795 10.2295 2.01562 10.1372 1.68457 9.95264C1.35352 9.771 1.09424 9.52051 0.906738 9.20117C0.722168 8.88184 0.629883 8.51855 0.629883 8.11133ZM1.55713 8.11133C1.55713 8.33984 1.60986 8.54492 1.71533 8.72656C1.8208 8.90527 1.96875 9.0459 2.15918 9.14844C2.35254 9.25098 2.57666 9.30225 2.83154 9.30225H9.16406C9.41895 9.30225 9.6416 9.25537 9.83203 9.16162C10.0225 9.06494 10.1704 8.92871 10.2759 8.75293C10.3813 8.57715 10.4341 8.36328 10.4341 8.11133C10.4341 7.88281 10.3813 7.6792 10.2759 7.50049C10.1704 7.31885 10.0225 7.17676 9.83203 7.07422C9.6416 6.97168 9.41895 6.92041 9.16406 6.92041H2.83154C2.57666 6.92041 2.35254 6.97168 2.15918 7.07422C1.96875 7.17676 1.8208 7.31885 1.71533 7.50049C1.60986 7.6792 1.55713 7.88281 1.55713 8.11133ZM2.31738 6.07227C2.39648 6.0459 2.47852 6.02686 2.56348 6.01514C2.65137 6.00049 2.74072 5.99316 2.83154 5.99316H9.16406C9.25488 5.99316 9.34277 6.00049 9.42773 6.01514C9.51562 6.02686 9.59912 6.0459 9.67822 6.07227L8.72461 3.77393C8.6543 3.59814 8.5415 3.46484 8.38623 3.37402C8.23096 3.28027 8.04639 3.2334 7.83252 3.2334H4.16748C3.95068 3.2334 3.76465 3.28027 3.60938 3.37402C3.4541 3.46484 3.34131 3.59814 3.271 3.77393L2.31738 6.07227ZM8.54004 8.11133C8.54004 7.95312 8.59717 7.81689 8.71143 7.70264C8.82861 7.58545 8.96777 7.52686 9.12891 7.52686C9.28418 7.52686 9.41895 7.58545 9.5332 7.70264C9.65039 7.81689 9.70898 7.95312 9.70898 8.11133C9.70898 8.27246 9.65186 8.41016 9.5376 8.52441C9.42334 8.63574 9.28711 8.69141 9.12891 8.69141C8.96777 8.69141 8.82861 8.63574 8.71143 8.52441C8.59717 8.41309 8.54004 8.27539 8.54004 8.11133Z"
    fill="currentColor" />
</svg>