<svg width="16" height="16" viewBox="0 0 16 16" fill="none" xmlns="http://www.w3.org/2000/svg">
  <path
    d="M12.4586 3C13.3068 3 13.9944 3.72138 13.9944 4.61125V7.39528C13.9978 7.43869 14 7.48254 14 7.52685V11.8235C14 12.7134 13.3124 13.4348 12.4641 13.4348H3.54144C2.6932 13.4348 2.00557 12.7134 2.00557 11.8235V10.825C2.002 10.7994 2 10.7731 2 10.7464V4.61125C2 3.72138 2.68763 3 3.53587 3H12.4586ZM3.53587 4.07417C3.25313 4.07417 3.02391 4.31463 3.02391 4.61125V10.6735C3.0275 10.6992 3.02949 10.7256 3.02949 10.7524V11.8235C3.02949 12.1202 3.2587 12.3606 3.54144 12.3606H12.4641C12.7469 12.3606 12.9761 12.1202 12.9761 11.8235V7.83376H12.9705V7.44743C12.9339 7.18847 12.7212 6.98977 12.4641 6.98977H7.63153C6.78329 6.98977 6.09566 6.26839 6.09566 5.37852V4.61125C6.09566 4.31463 5.86645 4.07417 5.5837 4.07417H3.53587ZM10.5424 4.07417C10.5991 4.24219 10.6301 4.42289 10.6301 4.61125V5.9156H12.4641C12.6416 5.9156 12.8119 5.94743 12.9705 6.00551V4.61125C12.9705 4.31463 12.7413 4.07417 12.4586 4.07417H10.5424ZM7.03187 4.07417C7.08849 4.24219 7.11957 4.42289 7.11957 4.61125V5.37852C7.11957 5.67514 7.34878 5.9156 7.63153 5.9156H9.60622V4.61125C9.60622 4.31463 9.37701 4.07417 9.09427 4.07417H7.03187Z"
    fill="currentColor" />
</svg>