<svg width="20" height="20" viewBox="0 0 20 20" fill="none" xmlns="http://www.w3.org/2000/svg">
  <g clip-path="url(#clip0_1955_646)">
    <path
      d="M9.99978 2.88867C6.07889 2.88867 2.88867 6.07889 2.88867 9.99978C2.88867 13.9207 6.07889 17.1109 9.99978 17.1109C13.9207 17.1109 17.1109 13.9207 17.1109 9.99978C17.1109 6.07889 13.9207 2.88867 9.99978 2.88867ZM9.33312 6.82734C9.33312 6.45934 9.63178 6.16067 9.99978 6.16067C10.3678 6.16067 10.6664 6.45934 10.6664 6.82734V10.5064C10.6664 10.8744 10.3678 11.1731 9.99978 11.1731C9.63178 11.1731 9.33312 10.8744 9.33312 10.5064V6.82734ZM9.99978 13.926C9.50912 13.926 9.11089 13.5269 9.11089 13.0371C9.11089 12.5473 9.50912 12.1482 9.99978 12.1482C10.4904 12.1482 10.8887 12.5473 10.8887 13.0371C10.8887 13.5269 10.4904 13.926 9.99978 13.926Z"
      fill="#FB923C" />
  </g>
  <defs>
    <clipPath id="clip0_1955_646">
      <rect width="15" height="15" fill="white" transform="translate(2.5 2.5)" />
    </clipPath>
  </defs>
</svg>