<svg width="12" height="12" viewBox="0 0 12 12" fill="none" xmlns="http://www.w3.org/2000/svg">
  <path
    d="M6.03957 10.6453C5.70092 10.6453 5.38161 10.5292 5.08166 10.297C4.78171 10.068 4.51885 9.74543 4.29308 9.32936C4.06731 8.9133 3.88992 8.42629 3.76091 7.86831C3.6319 7.31034 3.56739 6.70398 3.56739 6.04925C3.56739 5.39452 3.6319 4.78655 3.76091 4.22535C3.88992 3.66415 4.06731 3.17552 4.29308 2.75946C4.51885 2.3434 4.7801 2.02087 5.07683 1.79187C5.37678 1.55965 5.69769 1.44354 6.03957 1.44354C6.38468 1.44354 6.7056 1.55965 7.00232 1.79187C7.30227 2.02087 7.56513 2.3434 7.7909 2.75946C8.0199 3.17552 8.19729 3.66415 8.32308 4.22535C8.44886 4.78655 8.51175 5.39452 8.51175 6.04925C8.51175 6.70398 8.44725 7.31034 8.31824 7.86831C8.19245 8.42629 8.01506 8.9133 7.78607 9.32936C7.5603 9.74543 7.29743 10.068 6.99748 10.297C6.70076 10.5292 6.38145 10.6453 6.03957 10.6453ZM6.03957 2.07247C5.80735 2.07247 5.5832 2.17891 5.3671 2.39177C5.15423 2.60464 4.96394 2.89653 4.79623 3.26744C4.63174 3.63512 4.50111 4.05925 4.40435 4.53982C4.30759 5.01716 4.25922 5.5203 4.25922 6.04925C4.25922 6.57497 4.30759 7.07489 4.40435 7.54901C4.50111 8.02312 4.63174 8.44564 4.79623 8.81654C4.96394 9.18423 5.15423 9.4745 5.3671 9.68737C5.5832 9.90347 5.80735 10.0115 6.03957 10.0115C6.27179 10.0115 6.49434 9.90347 6.70721 9.68737C6.9233 9.4745 7.11521 9.18261 7.28292 8.81171C7.45064 8.4408 7.58287 8.01829 7.67963 7.54417C7.77639 7.07005 7.82477 6.57175 7.82477 6.04925C7.82477 5.5203 7.77639 5.01716 7.67963 4.53982C7.58287 4.05925 7.45064 3.63512 7.28292 3.26744C7.11521 2.89653 6.9233 2.60464 6.70721 2.39177C6.49434 2.17891 6.27179 2.07247 6.03957 2.07247ZM5.70576 1.50643H6.38307V10.5534H5.70576V1.50643ZM6.03957 7.73769C6.54594 7.73769 7.0249 7.77962 7.47644 7.86347C7.92798 7.9441 8.33275 8.06021 8.69076 8.2118C9.05199 8.36339 9.34388 8.5424 9.56642 8.74881L9.04877 9.17455C8.83912 9.01329 8.58271 8.87621 8.27953 8.76333C7.97958 8.64722 7.64093 8.56013 7.26357 8.50208C6.88621 8.4408 6.47821 8.41016 6.03957 8.41016C5.60416 8.41016 5.19616 8.4408 4.81558 8.50208C4.43822 8.56013 4.09795 8.64722 3.79477 8.76333C3.49482 8.87621 3.24164 9.01329 3.03522 9.17455L2.51756 8.74881C2.74011 8.5424 3.03038 8.36339 3.38839 8.2118C3.74639 8.06021 4.15117 7.9441 4.60271 7.86347C5.05747 7.77962 5.53643 7.73769 6.03957 7.73769ZM10.476 5.70092V6.37339H1.60803V5.70092H10.476ZM6.03957 4.36565C5.53643 4.36565 5.05747 4.32533 4.60271 4.2447C4.15117 4.16084 3.74639 4.04312 3.38839 3.89153C3.03038 3.73994 2.74011 3.56094 2.51756 3.35452L3.03522 2.92878C3.24486 3.09005 3.49966 3.22874 3.79961 3.34485C4.09956 3.45773 4.43822 3.54481 4.81558 3.60609C5.19616 3.66415 5.60416 3.69318 6.03957 3.69318C6.47821 3.69318 6.88621 3.66415 7.26357 3.60609C7.64093 3.54481 7.97958 3.45773 8.27953 3.34485C8.58271 3.22874 8.83912 3.09005 9.04877 2.92878L9.56642 3.35452C9.34388 3.56094 9.05199 3.73994 8.69076 3.89153C8.33275 4.04312 7.92798 4.16084 7.47644 4.2447C7.0249 4.32533 6.54594 4.36565 6.03957 4.36565ZM6.03957 11.0372C5.34936 11.0372 4.70269 10.9065 4.09956 10.6453C3.49643 10.3873 2.96588 10.0293 2.50788 9.57126C2.04989 9.1165 1.69027 8.58755 1.42903 7.98442C1.171 7.37807 1.04199 6.72978 1.04199 6.03957C1.04199 5.34936 1.171 4.70269 1.42903 4.09956C1.69027 3.49321 2.04989 2.96104 2.50788 2.50305C2.96588 2.04506 3.49643 1.68705 4.09956 1.42903C4.70269 1.171 5.34936 1.04199 6.03957 1.04199C6.72978 1.04199 7.37645 1.171 7.97958 1.42903C8.58594 1.68705 9.11811 2.04506 9.5761 2.50305C10.0341 2.96104 10.3921 3.49321 10.6501 4.09956C10.9114 4.70269 11.042 5.34936 11.042 6.03957C11.042 6.72978 10.9114 7.37807 10.6501 7.98442C10.3921 8.58755 10.0341 9.1165 9.5761 9.57126C9.11811 10.0293 8.58594 10.3873 7.97958 10.6453C7.37645 10.9065 6.72978 11.0372 6.03957 11.0372ZM6.03957 10.2631C6.62335 10.2631 7.17004 10.1518 7.67963 9.92927C8.18923 9.70995 8.63754 9.40838 9.02458 9.02458C9.41161 8.63754 9.71479 8.18923 9.93411 7.67963C10.1534 7.17004 10.2631 6.62335 10.2631 6.03957C10.2631 5.4558 10.1534 4.90911 9.93411 4.39952C9.71479 3.88992 9.41161 3.44161 9.02458 3.05457C8.63754 2.66754 8.18923 2.36436 7.67963 2.14504C7.17004 1.92572 6.62335 1.81606 6.03957 1.81606C5.45902 1.81606 4.91395 1.92572 4.40435 2.14504C3.89476 2.36436 3.44483 2.66754 3.05457 3.05457C2.66754 3.44161 2.36436 3.88992 2.14504 4.39952C1.92895 4.90911 1.8209 5.4558 1.8209 6.03957C1.8209 6.62335 1.92895 7.17004 2.14504 7.67963C2.36436 8.18923 2.66754 8.63754 3.05457 9.02458C3.44483 9.40838 3.89476 9.70995 4.40435 9.92927C4.91395 10.1518 5.45902 10.2631 6.03957 10.2631Z"
    fill="currentColor" />
</svg>