<svg width="16" height="16" viewBox="0 0 16 16" fill="none" xmlns="http://www.w3.org/2000/svg">
  <path
    d="M7.27344 8.9707L6.03125 9.45117C5.95312 9.48242 5.88086 9.4668 5.81445 9.4043C5.75195 9.3418 5.73828 9.27148 5.77344 9.19336L6.27734 7.96875L11.5625 2.68945L12.5645 3.68555L7.27344 8.9707ZM13.0039 3.25781L12.002 2.25586L12.5059 1.75195C12.627 1.63086 12.7676 1.56641 12.9277 1.55859C13.0918 1.55078 13.2305 1.59961 13.3438 1.70508L13.5195 1.86914C13.6406 1.99414 13.6973 2.14062 13.6895 2.30859C13.6855 2.47266 13.6211 2.61914 13.4961 2.74805L13.0039 3.25781ZM1.81836 6.46289C1.81836 5.73242 1.9375 5.05469 2.17578 4.42969C2.41406 3.80469 2.75781 3.25781 3.20703 2.78906C3.66016 2.32031 4.20117 1.95508 4.83008 1.69336C5.46289 1.43164 6.16992 1.30078 6.95117 1.30078C7.57227 1.30078 8.19141 1.39453 8.80859 1.58203C9.42578 1.76562 10.0117 2.02734 10.5664 2.36719L9.79297 3.14062C9.34375 2.88672 8.87109 2.68945 8.375 2.54883C7.88281 2.4043 7.38672 2.33203 6.88672 2.33203C6.0625 2.33203 5.34766 2.51172 4.74219 2.87109C4.13672 3.22656 3.66797 3.71484 3.33594 4.33594C3.00781 4.95312 2.84375 5.65234 2.84375 6.43359C2.84375 6.98047 2.92383 7.53125 3.08398 8.08594C3.24805 8.64062 3.49219 9.17969 3.81641 9.70312C4.14062 10.2266 4.54688 10.709 5.03516 11.1504C5.52344 11.5918 6.09375 11.9707 6.74609 12.2871C7.39844 12.6035 8.13477 12.834 8.95508 12.9785C9.11523 13.0098 9.23438 13.0723 9.3125 13.166C9.39453 13.2598 9.43555 13.3711 9.43555 13.5C9.43555 13.6055 9.4082 13.6973 9.35352 13.7754C9.30273 13.8535 9.22852 13.9102 9.13086 13.9453C9.0332 13.9844 8.92188 13.9961 8.79688 13.9805C8.08984 13.9023 7.39648 13.7207 6.7168 13.4355C6.04102 13.1504 5.4082 12.7773 4.81836 12.3164C4.22852 11.8555 3.70703 11.3242 3.25391 10.7227C2.80469 10.1172 2.45312 9.45703 2.19922 8.74219C1.94531 8.02344 1.81836 7.26367 1.81836 6.46289ZM14.1699 8.28516C14.1699 8.99219 14.0176 9.61523 13.7129 10.1543C13.4121 10.6934 12.9941 11.1133 12.459 11.4141C11.9238 11.7148 11.3066 11.8652 10.6074 11.8652C10.1426 11.8652 9.67383 11.7988 9.20117 11.666C8.72852 11.5332 8.27148 11.3438 7.83008 11.0977C7.38867 10.8477 6.98242 10.5508 6.61133 10.207L7.73047 9.75586C8.15234 10.1074 8.61133 10.3867 9.10742 10.5938C9.60352 10.8008 10.0898 10.9043 10.5664 10.9043C11.0391 10.9043 11.4727 10.7969 11.8672 10.582C12.2617 10.3672 12.5762 10.0645 12.8105 9.67383C13.0449 9.2793 13.1621 8.81445 13.1621 8.2793C13.1621 7.77148 13.0762 7.27148 12.9043 6.7793C12.7363 6.2832 12.502 5.8125 12.2012 5.36719L12.9629 4.60547C13.3379 5.13672 13.6328 5.71484 13.8477 6.33984C14.0625 6.96094 14.1699 7.60938 14.1699 8.28516Z"
    fill="currentColor" />
</svg>