<svg width="16" height="16" viewBox="0 0 16 16" fill="none" xmlns="http://www.w3.org/2000/svg">
  <path
    d="M13.2676 13.0254C13.127 13.1738 12.9492 13.248 12.7344 13.248C12.5234 13.252 12.3438 13.1777 12.1953 13.0254L4.53125 5.34375C4.38281 5.19531 4.30859 5.01758 4.30859 4.81055C4.30859 4.60352 4.38086 4.42578 4.52539 4.27734C4.66602 4.12891 4.8418 4.05469 5.05273 4.05469C5.26758 4.05469 5.44922 4.12891 5.59766 4.27734L13.2617 11.9648C13.4102 12.1094 13.4844 12.2852 13.4844 12.4922C13.4844 12.6992 13.4121 12.877 13.2676 13.0254ZM12.875 12.627C12.9219 12.584 12.9434 12.5293 12.9395 12.4629C12.9395 12.4004 12.918 12.3457 12.875 12.2988L7.4375 6.86133L7.10352 7.19531L12.5352 12.627C12.5859 12.6738 12.6426 12.6973 12.7051 12.6973C12.7715 12.6973 12.8281 12.6738 12.875 12.627ZM10.3086 5.98242C10.25 5.98242 10.2031 5.9668 10.168 5.93555C10.1328 5.9043 10.1133 5.86133 10.1094 5.80664C10.0508 5.45508 9.98438 5.16797 9.91016 4.94531C9.83984 4.71875 9.73828 4.53906 9.60547 4.40625C9.47656 4.26953 9.30078 4.16602 9.07812 4.0957C8.85547 4.02148 8.56445 3.95508 8.20508 3.89648C8.08398 3.87695 8.02344 3.81445 8.02344 3.70898C8.02344 3.5918 8.08398 3.52539 8.20508 3.50977C8.56836 3.45898 8.85938 3.39648 9.07812 3.32227C9.30078 3.24414 9.47656 3.13867 9.60547 3.00586C9.73438 2.87305 9.83398 2.69531 9.9043 2.47266C9.97461 2.24609 10.043 1.95508 10.1094 1.59961C10.1289 1.48242 10.1953 1.42383 10.3086 1.42383C10.4102 1.42383 10.4727 1.48437 10.4961 1.60547C10.5508 1.95312 10.6152 2.24023 10.6895 2.4668C10.7637 2.68945 10.8652 2.86914 10.9941 3.00586C11.123 3.13867 11.2988 3.24414 11.5215 3.32227C11.748 3.39648 12.043 3.45898 12.4062 3.50977C12.5234 3.52539 12.582 3.5918 12.582 3.70898C12.582 3.81836 12.5234 3.88086 12.4062 3.89648C12.0391 3.95117 11.7441 4.01562 11.5215 4.08984C11.2988 4.16406 11.123 4.26758 10.9941 4.40039C10.8691 4.5332 10.7715 4.71484 10.7012 4.94531C10.6309 5.17188 10.5625 5.46094 10.4961 5.8125C10.4883 5.86328 10.4648 5.9043 10.4258 5.93555C10.3906 5.9668 10.3516 5.98242 10.3086 5.98242ZM3.48828 10.7988C3.39062 10.7988 3.33398 10.7461 3.31836 10.6406C3.27539 10.3633 3.23438 10.1445 3.19531 9.98438C3.16016 9.82422 3.10156 9.70312 3.01953 9.62109C2.94141 9.53516 2.81836 9.46875 2.65039 9.42188C2.48633 9.375 2.25391 9.32812 1.95312 9.28125C1.85156 9.26172 1.80078 9.20508 1.80078 9.11133C1.80078 9.01367 1.85352 8.95703 1.95898 8.94141C2.25586 8.89453 2.48633 8.84961 2.65039 8.80664C2.81836 8.75977 2.94141 8.69336 3.01953 8.60742C3.10156 8.52148 3.16016 8.39844 3.19531 8.23828C3.23438 8.07422 3.27539 7.85547 3.31836 7.58203C3.33398 7.47656 3.39062 7.42383 3.48828 7.42383C3.58594 7.42383 3.64258 7.47656 3.6582 7.58203C3.70117 7.85547 3.74219 8.07227 3.78125 8.23242C3.82031 8.39258 3.87891 8.51562 3.95703 8.60156C4.03516 8.6875 4.15625 8.75391 4.32031 8.80078C4.48828 8.84766 4.72266 8.89453 5.02344 8.94141C5.125 8.95703 5.17578 9.01367 5.17578 9.11133C5.17578 9.20508 5.125 9.26172 5.02344 9.28125C4.72266 9.32812 4.49023 9.375 4.32617 9.42188C4.16211 9.46484 4.03906 9.5293 3.95703 9.61523C3.87891 9.69727 3.82031 9.82031 3.78125 9.98438C3.74219 10.1445 3.70117 10.3633 3.6582 10.6406C3.64258 10.7461 3.58594 10.7988 3.48828 10.7988ZM5.46875 12.4863C5.39844 12.4863 5.35156 12.4434 5.32812 12.3574C5.28516 12.1426 5.24609 11.9863 5.21094 11.8887C5.17969 11.7871 5.11523 11.7168 5.01758 11.6777C4.92383 11.6387 4.75391 11.5938 4.50781 11.543C4.42969 11.5273 4.39062 11.4824 4.39062 11.4082C4.39062 11.334 4.43164 11.2871 4.51367 11.2676C4.75586 11.2285 4.92578 11.1895 5.02344 11.1504C5.12109 11.1074 5.18555 11.0371 5.2168 10.9395C5.24805 10.8379 5.28516 10.6777 5.32812 10.459C5.35156 10.373 5.39844 10.3301 5.46875 10.3301C5.54688 10.3301 5.59375 10.3711 5.60938 10.4531C5.64844 10.6758 5.68359 10.8359 5.71484 10.9336C5.74609 11.0312 5.81055 11.0996 5.9082 11.1387C6.00977 11.1777 6.18359 11.2207 6.42969 11.2676C6.50781 11.2832 6.54688 11.3301 6.54688 11.4082C6.54688 11.4824 6.50586 11.5273 6.42383 11.543C6.18164 11.5938 6.00977 11.6387 5.9082 11.6777C5.80664 11.7168 5.74023 11.7871 5.70898 11.8887C5.67773 11.9863 5.64453 12.1426 5.60938 12.3574C5.59375 12.4434 5.54688 12.4863 5.46875 12.4863Z"
    fill="currentColor" />
</svg>