<svg width="16" height="16" viewBox="0 0 16 16" fill="none" xmlns="http://www.w3.org/2000/svg">
  <path
    d="M2.2793 4.99805C2.05273 4.99805 1.85742 4.91797 1.69336 4.75781C1.5332 4.59766 1.45312 4.40234 1.45312 4.17188C1.45312 3.94531 1.5332 3.75195 1.69336 3.5918C1.85742 3.42773 2.05273 3.3457 2.2793 3.3457C2.50586 3.3457 2.69922 3.42773 2.85938 3.5918C3.02344 3.75195 3.10547 3.94531 3.10547 4.17188C3.10547 4.40234 3.02344 4.59766 2.85938 4.75781C2.69922 4.91797 2.50586 4.99805 2.2793 4.99805ZM5.01562 4.73438C4.85938 4.73438 4.72852 4.67969 4.62305 4.57031C4.51758 4.45703 4.46484 4.32422 4.46484 4.17188C4.46484 4.01953 4.51758 3.89062 4.62305 3.78516C4.72852 3.67578 4.85938 3.62109 5.01562 3.62109H12.9844C13.1367 3.62109 13.2676 3.67383 13.377 3.7793C13.4863 3.88477 13.541 4.01562 13.541 4.17188C13.541 4.32812 13.4863 4.46094 13.377 4.57031C13.2676 4.67969 13.1367 4.73438 12.9844 4.73438H5.01562ZM2.2793 8.60156C2.05273 8.60156 1.85742 8.52148 1.69336 8.36133C1.5332 8.19727 1.45312 8.00195 1.45312 7.77539C1.45312 7.54883 1.5332 7.35547 1.69336 7.19531C1.85742 7.03125 2.05273 6.94922 2.2793 6.94922C2.50586 6.94922 2.69922 7.03125 2.85938 7.19531C3.02344 7.35547 3.10547 7.54883 3.10547 7.77539C3.10547 8.00195 3.02344 8.19727 2.85938 8.36133C2.69922 8.52148 2.50586 8.60156 2.2793 8.60156ZM5.01562 8.32617C4.85938 8.32617 4.72852 8.27344 4.62305 8.16797C4.51758 8.05859 4.46484 7.92773 4.46484 7.77539C4.46484 7.61914 4.51758 7.48633 4.62305 7.37695C4.72852 7.26758 4.85938 7.21289 5.01562 7.21289H12.9844C13.1367 7.21289 13.2676 7.26758 13.377 7.37695C13.4863 7.48633 13.541 7.61914 13.541 7.77539C13.541 7.92773 13.4863 8.05859 13.377 8.16797C13.2676 8.27344 13.1367 8.32617 12.9844 8.32617H5.01562ZM2.2793 12.1934C2.05273 12.1934 1.85742 12.1133 1.69336 11.9531C1.5332 11.793 1.45312 11.5996 1.45312 11.373C1.45312 11.1426 1.5332 10.9473 1.69336 10.7871C1.85742 10.627 2.05273 10.5469 2.2793 10.5469C2.50586 10.5469 2.69922 10.627 2.85938 10.7871C3.02344 10.9473 3.10547 11.1426 3.10547 11.373C3.10547 11.5996 3.02344 11.793 2.85938 11.9531C2.69922 12.1133 2.50586 12.1934 2.2793 12.1934ZM5.01562 11.9297C4.85938 11.9297 4.72852 11.875 4.62305 11.7656C4.51758 11.6523 4.46484 11.5215 4.46484 11.373C4.46484 11.2168 4.51758 11.0859 4.62305 10.9805C4.72852 10.8711 4.85938 10.8164 5.01562 10.8164H12.9844C13.1367 10.8164 13.2676 10.8711 13.377 10.9805C13.4863 11.0859 13.541 11.2168 13.541 11.373C13.541 11.5254 13.4863 11.6562 13.377 11.7656C13.2676 11.875 13.1367 11.9297 12.9844 11.9297H5.01562Z"
    fill="currentColor" />
</svg>