<svg width="16" height="16" viewBox="0 0 16 16" fill="none" xmlns="http://www.w3.org/2000/svg">
  <path
    d="M2.21094 6.70312C2.21094 6.04688 2.33398 5.43164 2.58008 4.85742C2.83008 4.2793 3.17383 3.77148 3.61133 3.33398C4.04883 2.89258 4.55469 2.54883 5.12891 2.30273C5.70703 2.05664 6.32422 1.93359 6.98047 1.93359C7.64062 1.93359 8.25781 2.05664 8.83203 2.30273C9.41016 2.54883 9.91797 2.89258 10.3555 3.33398C10.793 3.77148 11.1348 4.2793 11.3809 4.85742C11.6309 5.43164 11.7559 6.04688 11.7559 6.70312C11.7559 7.21875 11.6758 7.70898 11.5156 8.17383C11.3594 8.63867 11.1426 9.0625 10.8652 9.44531L13.5371 12.1289C13.6191 12.207 13.6797 12.2988 13.7188 12.4043C13.7617 12.5098 13.7832 12.6211 13.7832 12.7383C13.7832 12.9023 13.7461 13.0508 13.6719 13.1836C13.5977 13.3164 13.4961 13.4199 13.3672 13.4941C13.2383 13.5723 13.0898 13.6113 12.9219 13.6113C12.8047 13.6113 12.6914 13.5898 12.582 13.5469C12.4766 13.5078 12.3809 13.4453 12.2949 13.3594L9.60547 10.6699C9.23047 10.9199 8.82031 11.1172 8.375 11.2617C7.93359 11.4023 7.46875 11.4727 6.98047 11.4727C6.32422 11.4727 5.70703 11.3496 5.12891 11.1035C4.55469 10.8574 4.04883 10.5156 3.61133 10.0781C3.17383 9.64062 2.83008 9.13477 2.58008 8.56055C2.33398 7.98242 2.21094 7.36328 2.21094 6.70312ZM3.43555 6.70312C3.43555 7.19531 3.52539 7.65625 3.70508 8.08594C3.88867 8.51172 4.14258 8.88672 4.4668 9.21094C4.79492 9.53516 5.17383 9.79102 5.60352 9.97852C6.0332 10.1621 6.49219 10.2539 6.98047 10.2539C7.47266 10.2539 7.93164 10.1621 8.35742 9.97852C8.78711 9.79102 9.16406 9.53516 9.48828 9.21094C9.8125 8.88672 10.0664 8.51172 10.25 8.08594C10.4375 7.65625 10.5312 7.19531 10.5312 6.70312C10.5312 6.21484 10.4375 5.75586 10.25 5.32617C10.0664 4.89648 9.8125 4.51953 9.48828 4.19531C9.16406 3.86719 8.78711 3.61328 8.35742 3.43359C7.93164 3.25 7.47266 3.1582 6.98047 3.1582C6.49219 3.1582 6.0332 3.25 5.60352 3.43359C5.17383 3.61328 4.79492 3.86719 4.4668 4.19531C4.14258 4.51953 3.88867 4.89648 3.70508 5.32617C3.52539 5.75586 3.43555 6.21484 3.43555 6.70312ZM5.24609 6.35742C5.12109 6.35742 5.01758 6.31445 4.93555 6.22852C4.85742 6.14258 4.81836 6.04297 4.81836 5.92969C4.81836 5.80859 4.85742 5.70703 4.93555 5.625C5.01758 5.53906 5.12109 5.49609 5.24609 5.49609H8.75C8.87109 5.49609 8.9707 5.53711 9.04883 5.61914C9.13086 5.70117 9.17188 5.80469 9.17188 5.92969C9.17188 6.04297 9.13086 6.14258 9.04883 6.22852C8.9707 6.31445 8.87109 6.35742 8.75 6.35742H5.24609ZM5.24609 7.89844C5.12109 7.89844 5.01758 7.85742 4.93555 7.77539C4.85742 7.69336 4.81836 7.5918 4.81836 7.4707C4.81836 7.35352 4.85742 7.25391 4.93555 7.17188C5.01758 7.08594 5.12109 7.04297 5.24609 7.04297H7.77148C7.88867 7.04297 7.98828 7.08594 8.07031 7.17188C8.15625 7.25391 8.19922 7.35352 8.19922 7.4707C8.19922 7.5918 8.15625 7.69336 8.07031 7.77539C7.98828 7.85742 7.88867 7.89844 7.77148 7.89844H5.24609Z"
    fill="currentColor" />
</svg>